M48
; DRILL file {KiCad (6.0.4)} date Fri Oct 21 15:06:33 2022
; FORMAT={-:-/ absolute / metric / decimal}
; #@! TF.CreationDate,2022-10-21T15:06:33+11:00
; #@! TF.GenerationSoftware,Kicad,Pcbnew,(6.0.4)
; #@! TF.FileFunction,MixedPlating,1,2
FMAT,2
METRIC
; #@! TA.AperFunction,Plated,PTH,ViaDrill
T1C0.600
; #@! TA.AperFunction,Plated,PTH,ComponentDrill
T2C1.000
; #@! TA.AperFunction,NonPlated,NPTH,ComponentDrill
T3C3.200
%
G90
G05
T1
X131.8Y-71.15
X132.1Y-69.0
X148.75Y-92.55
X155.15Y-80.5
X156.5Y-77.75
X158.3Y-80.3
T2
X117.72Y-56.67
X117.72Y-59.21
X117.72Y-61.75
X117.72Y-64.29
X117.72Y-66.83
X117.72Y-69.37
X117.72Y-71.91
X117.72Y-74.45
X117.72Y-76.99
X117.72Y-79.53
X117.72Y-82.07
X117.72Y-84.61
X117.72Y-87.15
X117.72Y-89.69
X117.72Y-92.23
X117.72Y-94.77
X117.72Y-97.31
X117.72Y-99.85
X117.72Y-102.39
X117.72Y-104.93
X120.26Y-56.67
X120.26Y-59.21
X120.26Y-61.75
X120.26Y-64.29
X120.26Y-66.83
X120.26Y-69.37
X120.26Y-71.91
X120.26Y-74.45
X120.26Y-76.99
X120.26Y-79.53
X120.26Y-82.07
X120.26Y-84.61
X120.26Y-87.15
X120.26Y-89.69
X120.26Y-92.23
X120.26Y-94.77
X120.26Y-97.31
X120.26Y-99.85
X120.26Y-102.39
X120.26Y-104.93
X135.92Y-87.0
X138.46Y-87.0
X139.79Y-52.12
X141.0Y-87.0
X142.33Y-52.12
X143.54Y-87.0
X144.87Y-52.12
X147.41Y-52.12
X160.41Y-104.2
X160.475Y-100.6
X162.95Y-104.2
X163.015Y-100.6
X165.49Y-104.2
X165.555Y-100.6
X166.27Y-49.35
X168.03Y-104.2
X168.095Y-100.6
X168.81Y-49.35
X170.57Y-104.2
X170.635Y-100.6
X171.35Y-49.35
X173.11Y-104.2
X173.89Y-49.35
X175.65Y-104.2
X176.43Y-49.35
X178.19Y-104.2
X178.97Y-49.35
T3
X106.2Y-80.8
X148.2Y-39.8
X148.2Y-121.8
X191.2Y-80.8
T0
M30
