%TF.GenerationSoftware,KiCad,Pcbnew,(6.0.5)*%
%TF.CreationDate,2022-12-15T19:20:58+11:00*%
%TF.ProjectId,Battery Board,42617474-6572-4792-9042-6f6172642e6b,1*%
%TF.SameCoordinates,Original*%
%TF.FileFunction,Soldermask,Top*%
%TF.FilePolarity,Negative*%
%FSLAX46Y46*%
G04 Gerber Fmt 4.6, Leading zero omitted, Abs format (unit mm)*
G04 Created by KiCad (PCBNEW (6.0.5)) date 2022-12-15 19:20:58*
%MOMM*%
%LPD*%
G01*
G04 APERTURE LIST*
G04 Aperture macros list*
%AMRoundRect*
0 Rectangle with rounded corners*
0 $1 Rounding radius*
0 $2 $3 $4 $5 $6 $7 $8 $9 X,Y pos of 4 corners*
0 Add a 4 corners polygon primitive as box body*
4,1,4,$2,$3,$4,$5,$6,$7,$8,$9,$2,$3,0*
0 Add four circle primitives for the rounded corners*
1,1,$1+$1,$2,$3*
1,1,$1+$1,$4,$5*
1,1,$1+$1,$6,$7*
1,1,$1+$1,$8,$9*
0 Add four rect primitives between the rounded corners*
20,1,$1+$1,$2,$3,$4,$5,0*
20,1,$1+$1,$4,$5,$6,$7,0*
20,1,$1+$1,$6,$7,$8,$9,0*
20,1,$1+$1,$8,$9,$2,$3,0*%
G04 Aperture macros list end*
%ADD10C,2.400000*%
%ADD11C,3.200000*%
%ADD12RoundRect,0.250000X0.337500X0.475000X-0.337500X0.475000X-0.337500X-0.475000X0.337500X-0.475000X0*%
%ADD13R,5.400000X3.500000*%
%ADD14RoundRect,0.200000X1.800000X0.800000X-1.800000X0.800000X-1.800000X-0.800000X1.800000X-0.800000X0*%
%ADD15RoundRect,0.237500X-0.300000X-0.237500X0.300000X-0.237500X0.300000X0.237500X-0.300000X0.237500X0*%
%ADD16RoundRect,0.020500X0.799500X0.184500X-0.799500X0.184500X-0.799500X-0.184500X0.799500X-0.184500X0*%
%ADD17R,1.200000X2.200000*%
%ADD18R,5.800000X6.400000*%
%ADD19RoundRect,0.237500X0.237500X-0.300000X0.237500X0.300000X-0.237500X0.300000X-0.237500X-0.300000X0*%
%ADD20R,2.290000X3.000000*%
%ADD21RoundRect,0.150000X0.825000X0.150000X-0.825000X0.150000X-0.825000X-0.150000X0.825000X-0.150000X0*%
%ADD22R,1.090000X0.610000*%
%ADD23RoundRect,0.550000X0.850000X0.550000X-0.850000X0.550000X-0.850000X-0.550000X0.850000X-0.550000X0*%
%ADD24RoundRect,0.237500X-0.237500X0.250000X-0.237500X-0.250000X0.237500X-0.250000X0.237500X0.250000X0*%
%ADD25RoundRect,0.237500X-0.250000X-0.237500X0.250000X-0.237500X0.250000X0.237500X-0.250000X0.237500X0*%
%ADD26RoundRect,0.237500X-0.237500X0.300000X-0.237500X-0.300000X0.237500X-0.300000X0.237500X0.300000X0*%
%ADD27RoundRect,0.250001X0.462499X0.624999X-0.462499X0.624999X-0.462499X-0.624999X0.462499X-0.624999X0*%
%ADD28RoundRect,0.250000X-0.475000X0.337500X-0.475000X-0.337500X0.475000X-0.337500X0.475000X0.337500X0*%
%ADD29C,1.700000*%
%ADD30C,2.000000*%
%ADD31RoundRect,0.150000X-0.825000X-0.150000X0.825000X-0.150000X0.825000X0.150000X-0.825000X0.150000X0*%
%ADD32RoundRect,0.250001X-0.462499X-0.624999X0.462499X-0.624999X0.462499X0.624999X-0.462499X0.624999X0*%
%ADD33RoundRect,0.237500X0.250000X0.237500X-0.250000X0.237500X-0.250000X-0.237500X0.250000X-0.237500X0*%
G04 APERTURE END LIST*
D10*
%TO.C,BT1*%
X101700000Y-55950000D03*
X101700000Y-128850000D03*
X121000000Y-55950000D03*
X121000000Y-128850000D03*
X140300000Y-55950000D03*
X140300000Y-128850000D03*
X159600000Y-55950000D03*
X159600000Y-128850000D03*
D11*
X140300000Y-64595000D03*
X140300000Y-120205000D03*
X101695000Y-120205000D03*
X121000000Y-120205000D03*
X159605000Y-120205000D03*
X159605000Y-64595000D03*
X101695000Y-64595000D03*
X121000000Y-64595000D03*
%TD*%
D12*
%TO.C,C5*%
X132037500Y-56000000D03*
X129962500Y-56000000D03*
%TD*%
D13*
%TO.C,R_{SENSE}1*%
X140800000Y-87055000D03*
X140800000Y-82945000D03*
%TD*%
D14*
%TO.C,L1*%
X123500000Y-103500000D03*
X123500000Y-95900000D03*
%TD*%
D12*
%TO.C,C6*%
X152037500Y-56000000D03*
X149962500Y-56000000D03*
%TD*%
D15*
%TO.C,C_{IN}1*%
X138437500Y-103600000D03*
X140162500Y-103600000D03*
%TD*%
D16*
%TO.C,U1*%
X146565000Y-89672500D03*
X146565000Y-89037500D03*
X146565000Y-88402500D03*
X146565000Y-87767500D03*
X146565000Y-87132500D03*
X146565000Y-86497500D03*
X146565000Y-85862500D03*
X146565000Y-85227500D03*
X151835000Y-85227500D03*
X151835000Y-85862500D03*
X151835000Y-86497500D03*
X151835000Y-87132500D03*
X151835000Y-87767500D03*
X151835000Y-88402500D03*
X151835000Y-89037500D03*
X151835000Y-89672500D03*
%TD*%
D17*
%TO.C,Reg_{3.3}1*%
X123318000Y-87208000D03*
D18*
X121038000Y-80908000D03*
D17*
X118758000Y-87208000D03*
%TD*%
D19*
%TO.C,C_{5OUT1}1*%
X128400000Y-92762500D03*
X128400000Y-91037500D03*
%TD*%
D20*
%TO.C,REG_{5}1*%
X133038000Y-98008000D03*
D21*
X130563000Y-99913000D03*
X130563000Y-98643000D03*
X130563000Y-97373000D03*
X130563000Y-96103000D03*
X135513000Y-96103000D03*
X135513000Y-97373000D03*
X135513000Y-98643000D03*
X135513000Y-99913000D03*
%TD*%
D22*
%TO.C,D1*%
X157270000Y-93900000D03*
X155130000Y-94815000D03*
X155130000Y-92985000D03*
%TD*%
D23*
%TO.C,D2*%
X130700000Y-103600000D03*
X130700000Y-108000000D03*
%TD*%
D24*
%TO.C,R7*%
X147600000Y-95063500D03*
X147600000Y-96888500D03*
%TD*%
D12*
%TO.C,C1*%
X150331500Y-92400000D03*
X148256500Y-92400000D03*
%TD*%
D19*
%TO.C,C_{5OUT2}1*%
X125600000Y-92762500D03*
X125600000Y-91037500D03*
%TD*%
D25*
%TO.C,R1*%
X156737500Y-84600000D03*
X158562500Y-84600000D03*
%TD*%
D26*
%TO.C,C_{3.3OUT}1*%
X116400000Y-84037500D03*
X116400000Y-85762500D03*
%TD*%
D27*
%TO.C,F_{5V}1*%
X122787500Y-93100000D03*
X119812500Y-93100000D03*
%TD*%
D25*
%TO.C,R3*%
X156737500Y-89750000D03*
X158562500Y-89750000D03*
%TD*%
D24*
%TO.C,R4*%
X152088000Y-92015500D03*
X152088000Y-93840500D03*
%TD*%
D21*
%TO.C,Q1*%
X145475000Y-99205000D03*
X145475000Y-97935000D03*
X145475000Y-96665000D03*
X145475000Y-95395000D03*
X140525000Y-95395000D03*
X140525000Y-96665000D03*
X140525000Y-97935000D03*
X140525000Y-99205000D03*
%TD*%
D25*
%TO.C,R5*%
X146095500Y-83530000D03*
X147920500Y-83530000D03*
%TD*%
D28*
%TO.C,C2*%
X151834000Y-81476500D03*
X151834000Y-83551500D03*
%TD*%
D29*
%TO.C,R8*%
X102710000Y-68270000D03*
X102710000Y-70810000D03*
X102710000Y-73350000D03*
X102710000Y-75890000D03*
X102710000Y-78430000D03*
X102710000Y-80970000D03*
X102710000Y-83510000D03*
X102710000Y-86050000D03*
X102710000Y-88590000D03*
X102710000Y-91130000D03*
X102710000Y-93670000D03*
X102710000Y-96210000D03*
X102710000Y-98750000D03*
X102710000Y-101290000D03*
X102710000Y-103830000D03*
X102710000Y-106370000D03*
X102710000Y-108910000D03*
X102710000Y-111450000D03*
X102710000Y-113990000D03*
X102710000Y-116530000D03*
X100170000Y-116530000D03*
X100170000Y-113990000D03*
X100170000Y-111450000D03*
X100170000Y-108910000D03*
X100170000Y-106370000D03*
X100170000Y-103830000D03*
X100170000Y-101290000D03*
X100170000Y-98750000D03*
X100170000Y-96210000D03*
X100170000Y-93670000D03*
X100170000Y-91130000D03*
X100170000Y-88590000D03*
X100170000Y-86050000D03*
X100170000Y-83510000D03*
X100170000Y-80970000D03*
X100170000Y-78430000D03*
X100170000Y-75890000D03*
X100170000Y-73350000D03*
X100170000Y-70810000D03*
X100170000Y-68270000D03*
D30*
X173650000Y-92400000D03*
X130650000Y-51400000D03*
X88650000Y-92400000D03*
X130650000Y-133400000D03*
%TD*%
D31*
%TO.C,Q2*%
X145125000Y-101595000D03*
X145125000Y-102865000D03*
X145125000Y-104135000D03*
X145125000Y-105405000D03*
X150075000Y-105405000D03*
X150075000Y-104135000D03*
X150075000Y-102865000D03*
X150075000Y-101595000D03*
%TD*%
D12*
%TO.C,C4*%
X111537500Y-56000000D03*
X109462500Y-56000000D03*
%TD*%
D19*
%TO.C,C_{BST}1*%
X133200000Y-103662500D03*
X133200000Y-101937500D03*
%TD*%
D12*
%TO.C,C3*%
X113037500Y-129000000D03*
X110962500Y-129000000D03*
%TD*%
D25*
%TO.C,R2*%
X156737500Y-87050000D03*
X158562500Y-87050000D03*
%TD*%
D32*
%TO.C,F_{VPP}1*%
X137812500Y-101300000D03*
X140787500Y-101300000D03*
%TD*%
D33*
%TO.C,R6*%
X147920500Y-82006000D03*
X146095500Y-82006000D03*
%TD*%
D24*
%TO.C,R_{PON}1*%
X137800000Y-95487500D03*
X137800000Y-97312500D03*
%TD*%
M02*
