%TF.GenerationSoftware,KiCad,Pcbnew,(6.0.5)*%
%TF.CreationDate,2022-12-11T20:22:43+11:00*%
%TF.ProjectId,Battery Board,42617474-6572-4792-9042-6f6172642e6b,1*%
%TF.SameCoordinates,Original*%
%TF.FileFunction,Copper,L2,Bot*%
%TF.FilePolarity,Positive*%
%FSLAX46Y46*%
G04 Gerber Fmt 4.6, Leading zero omitted, Abs format (unit mm)*
G04 Created by KiCad (PCBNEW (6.0.5)) date 2022-12-11 20:22:43*
%MOMM*%
%LPD*%
G01*
G04 APERTURE LIST*
%TA.AperFunction,ComponentPad*%
%ADD10C,1.700000*%
%TD*%
%TA.AperFunction,ComponentPad*%
%ADD11C,2.400000*%
%TD*%
%TA.AperFunction,ViaPad*%
%ADD12C,0.800000*%
%TD*%
%TA.AperFunction,Conductor*%
%ADD13C,1.000000*%
%TD*%
%TA.AperFunction,Conductor*%
%ADD14C,2.000000*%
%TD*%
%TA.AperFunction,Conductor*%
%ADD15C,0.250000*%
%TD*%
G04 APERTURE END LIST*
D10*
%TO.P,R8,1,5V*%
%TO.N,+5V*%
X100170000Y-68270000D03*
%TO.P,R8,2,GND*%
%TO.N,GND*%
X100170000Y-70810000D03*
%TO.P,R8,3,3.3V*%
%TO.N,+3V3*%
X100170000Y-73350000D03*
%TO.P,R8,4,GND*%
%TO.N,GND*%
X100170000Y-75890000D03*
%TO.P,R8,5,D1*%
%TO.N,unconnected-(R8-Pad5)*%
X100170000Y-78430000D03*
%TO.P,R8,6,D3*%
%TO.N,unconnected-(R8-Pad6)*%
X100170000Y-80970000D03*
%TO.P,R8,7,GND*%
%TO.N,GND*%
X100170000Y-83510000D03*
%TO.P,R8,8,5V*%
%TO.N,+5V*%
X100170000Y-86050000D03*
%TO.P,R8,9,GND*%
%TO.N,GND*%
X100170000Y-88590000D03*
%TO.P,R8,10,3.3V*%
%TO.N,+3V3*%
X100170000Y-91130000D03*
%TO.P,R8,11,GND*%
%TO.N,GND*%
X100170000Y-93670000D03*
%TO.P,R8,12,D5*%
%TO.N,unconnected-(R8-Pad12)*%
X100170000Y-96210000D03*
%TO.P,R8,13,D7*%
%TO.N,unconnected-(R8-Pad13)*%
X100170000Y-98750000D03*
%TO.P,R8,14,GND*%
%TO.N,GND*%
X100170000Y-101290000D03*
%TO.P,R8,15,D9*%
%TO.N,unconnected-(R8-Pad15)*%
X100170000Y-103830000D03*
%TO.P,R8,16,D11*%
%TO.N,unconnected-(R8-Pad16)*%
X100170000Y-106370000D03*
%TO.P,R8,17,GND*%
%TO.N,GND*%
X100170000Y-108910000D03*
%TO.P,R8,18,5V*%
%TO.N,+5V*%
X100170000Y-111450000D03*
%TO.P,R8,19,GND*%
%TO.N,GND*%
X100170000Y-113990000D03*
%TO.P,R8,20,3.3V*%
%TO.N,+3V3*%
X100170000Y-116530000D03*
%TO.P,R8,21,3.3V*%
X102710000Y-116530000D03*
%TO.P,R8,22,GND*%
%TO.N,GND*%
X102710000Y-113990000D03*
%TO.P,R8,23,5V*%
%TO.N,+5V*%
X102710000Y-111450000D03*
%TO.P,R8,24,GND*%
%TO.N,GND*%
X102710000Y-108910000D03*
%TO.P,R8,25,D12*%
%TO.N,unconnected-(R8-Pad25)*%
X102710000Y-106370000D03*
%TO.P,R8,26,D10*%
%TO.N,unconnected-(R8-Pad26)*%
X102710000Y-103830000D03*
%TO.P,R8,27,GND*%
%TO.N,GND*%
X102710000Y-101290000D03*
%TO.P,R8,28,D8*%
%TO.N,unconnected-(R8-Pad28)*%
X102710000Y-98750000D03*
%TO.P,R8,29,D6*%
%TO.N,unconnected-(R8-Pad29)*%
X102710000Y-96210000D03*
%TO.P,R8,30,GND*%
%TO.N,GND*%
X102710000Y-93670000D03*
%TO.P,R8,31,3.3V*%
%TO.N,+3V3*%
X102710000Y-91130000D03*
%TO.P,R8,32,GND*%
%TO.N,GND*%
X102710000Y-88590000D03*
%TO.P,R8,33,5V*%
%TO.N,+5V*%
X102710000Y-86050000D03*
%TO.P,R8,34,GND*%
%TO.N,GND*%
X102710000Y-83510000D03*
%TO.P,R8,35,D4*%
%TO.N,unconnected-(R8-Pad35)*%
X102710000Y-80970000D03*
%TO.P,R8,36,D2*%
%TO.N,unconnected-(R8-Pad36)*%
X102710000Y-78430000D03*
%TO.P,R8,37,GND*%
%TO.N,GND*%
X102710000Y-75890000D03*
%TO.P,R8,38,3.3V*%
%TO.N,+3V3*%
X102710000Y-73350000D03*
%TO.P,R8,39,GND*%
%TO.N,GND*%
X102710000Y-70810000D03*
%TO.P,R8,40,5V*%
%TO.N,+5V*%
X102710000Y-68270000D03*
%TD*%
D11*
%TO.P,BT1,1+*%
%TO.N,Net-(BT1-Pad1+)*%
X101700000Y-128850000D03*
%TO.P,BT1,1-*%
%TO.N,GNDPWR*%
X101700000Y-55950000D03*
%TO.P,BT1,2+*%
%TO.N,Net-(BT1-Pad2+)*%
X121000000Y-128850000D03*
%TO.P,BT1,2-*%
%TO.N,Net-(BT1-Pad1+)*%
X121000000Y-55950000D03*
%TO.P,BT1,3+*%
%TO.N,Net-(BT1-Pad3+)*%
X140300000Y-128850000D03*
%TO.P,BT1,3-*%
%TO.N,Net-(BT1-Pad2+)*%
X140300000Y-55950000D03*
%TO.P,BT1,4+*%
%TO.N,Net-(BT1-Pad4+)*%
X159600000Y-128850000D03*
%TO.P,BT1,4-*%
%TO.N,Net-(BT1-Pad3+)*%
X159600000Y-55950000D03*
%TD*%
D12*
%TO.N,GND*%
X113000000Y-110900000D03*
X93600000Y-71900000D03*
X94000000Y-104600000D03*
X166300000Y-59500000D03*
X142500000Y-79700000D03*
X149500000Y-64700000D03*
X128900000Y-62700000D03*
X109300000Y-68600000D03*
X108600000Y-80900000D03*
X113900000Y-77300000D03*
X114600000Y-125400000D03*
X116300000Y-119500000D03*
X122000000Y-108800000D03*
X131400000Y-108600000D03*
X142300000Y-110100000D03*
X141500000Y-91900000D03*
X132400000Y-87100000D03*
X127300000Y-84200000D03*
%TO.N,*%
X150202123Y-69964536D03*
%TO.N,GND*%
X96462000Y-60670000D03*
X166058000Y-107660000D03*
X148100000Y-90800000D03*
X96970000Y-123916000D03*
X94684000Y-83022000D03*
X164280000Y-91404000D03*
X110100000Y-96100000D03*
X128212000Y-72354000D03*
X113480000Y-62194000D03*
X149548000Y-124932000D03*
X93414000Y-98008000D03*
X134562000Y-125186000D03*
X165296000Y-74132000D03*
X145484000Y-113502000D03*
X147516000Y-96992000D03*
X126700000Y-97300000D03*
X158692000Y-74640000D03*
X154374000Y-105374000D03*
X149700000Y-82900000D03*
%TO.N,Net-(BT1-Pad3+)*%
X158600000Y-92050000D03*
%TD*%
D13*
%TO.N,+5V*%
X100170000Y-68270000D02*
X102710000Y-68270000D01*
X102710000Y-86050000D02*
X100170000Y-86050000D01*
%TO.N,+3V3*%
X100170000Y-116530000D02*
X102710000Y-116530000D01*
X98620489Y-114980489D02*
X100170000Y-116530000D01*
X98620489Y-92679511D02*
X98620489Y-114980489D01*
X100170000Y-91130000D02*
X98620489Y-92679511D01*
X100170000Y-91130000D02*
X102710000Y-91130000D01*
X98620489Y-89580489D02*
X100170000Y-91130000D01*
X98620489Y-74899511D02*
X98620489Y-89580489D01*
X100170000Y-73350000D02*
X98620489Y-74899511D01*
D14*
%TO.N,Net-(BT1-Pad1+)*%
X118150479Y-58799521D02*
X118150479Y-112399521D01*
X118150479Y-112399521D02*
X101700000Y-128850000D01*
X121000000Y-55950000D02*
X118150479Y-58799521D01*
%TO.N,Net-(BT1-Pad2+)*%
X137450479Y-112399521D02*
X121000000Y-128850000D01*
X137450479Y-58799521D02*
X137450479Y-112399521D01*
X140300000Y-55950000D02*
X137450479Y-58799521D01*
D15*
%TO.N,Net-(BT1-Pad3+)*%
X158600000Y-92050000D02*
X157894521Y-92755479D01*
X157894521Y-92755479D02*
X156755479Y-92755479D01*
D14*
X156755479Y-92755479D02*
X156755479Y-112394521D01*
X156755479Y-58794521D02*
X156755479Y-92755479D01*
X156755479Y-112394521D02*
X140300000Y-128850000D01*
X159600000Y-55950000D02*
X156755479Y-58794521D01*
D13*
%TO.N,+3V3*%
X102710000Y-73350000D02*
X100170000Y-73350000D01*
%TD*%
%TA.AperFunction,Conductor*%
%TO.N,GND*%
G36*
X100846246Y-54679407D02*
G01*
X100882210Y-54728907D01*
X100882210Y-54790093D01*
X100847498Y-54838668D01*
X100766984Y-54899119D01*
X100607877Y-55065616D01*
X100605585Y-55068976D01*
X100480389Y-55252505D01*
X100480386Y-55252511D01*
X100478099Y-55255863D01*
X100381136Y-55464752D01*
X100319592Y-55686673D01*
X100295119Y-55915665D01*
X100308376Y-56145580D01*
X100359006Y-56370242D01*
X100445649Y-56583618D01*
X100565979Y-56779978D01*
X100716763Y-56954048D01*
X100893953Y-57101154D01*
X101092790Y-57217345D01*
X101307934Y-57299501D01*
X101311909Y-57300310D01*
X101311910Y-57300310D01*
X101529624Y-57344604D01*
X101529628Y-57344604D01*
X101533607Y-57345414D01*
X101537667Y-57345563D01*
X101537668Y-57345563D01*
X101579459Y-57347095D01*
X101763749Y-57353853D01*
X101767767Y-57353338D01*
X101767773Y-57353338D01*
X101988146Y-57325108D01*
X101988152Y-57325107D01*
X101992178Y-57324591D01*
X101996071Y-57323423D01*
X101996076Y-57323422D01*
X102154836Y-57275791D01*
X102212761Y-57258413D01*
X102419574Y-57157096D01*
X102607062Y-57023363D01*
X102770190Y-56860803D01*
X102904577Y-56673783D01*
X103006615Y-56467325D01*
X103036112Y-56370242D01*
X103072380Y-56250869D01*
X103072380Y-56250868D01*
X103073563Y-56246975D01*
X103103622Y-56018649D01*
X103105300Y-55950000D01*
X103086430Y-55720478D01*
X103052851Y-55586793D01*
X103031317Y-55501066D01*
X103030326Y-55497120D01*
X102938496Y-55285924D01*
X102813405Y-55092563D01*
X102658412Y-54922229D01*
X102655226Y-54919713D01*
X102655223Y-54919710D01*
X102550738Y-54837193D01*
X102516789Y-54786289D01*
X102519245Y-54725153D01*
X102557166Y-54677136D01*
X102612096Y-54660500D01*
X120088055Y-54660500D01*
X120146246Y-54679407D01*
X120182210Y-54728907D01*
X120182210Y-54790093D01*
X120147498Y-54838668D01*
X120066984Y-54899119D01*
X119907877Y-55065616D01*
X119905585Y-55068976D01*
X119780389Y-55252505D01*
X119780386Y-55252511D01*
X119778099Y-55255863D01*
X119681136Y-55464752D01*
X119647291Y-55586793D01*
X119621896Y-55630340D01*
X117332597Y-57919640D01*
X117327869Y-57924067D01*
X117275936Y-57969611D01*
X117218113Y-58042959D01*
X117216566Y-58044870D01*
X117156877Y-58116638D01*
X117152946Y-58123658D01*
X117144320Y-58136566D01*
X117139342Y-58142881D01*
X117137229Y-58146898D01*
X117137224Y-58146905D01*
X117095895Y-58225457D01*
X117094659Y-58227734D01*
X117051289Y-58305176D01*
X117051285Y-58305185D01*
X117049069Y-58309142D01*
X117047610Y-58313441D01*
X117046485Y-58316755D01*
X117040353Y-58331028D01*
X117036610Y-58338141D01*
X117010489Y-58422266D01*
X117008936Y-58427266D01*
X117008141Y-58429712D01*
X116978148Y-58518069D01*
X116977496Y-58522565D01*
X116976994Y-58526025D01*
X116973567Y-58541174D01*
X116971182Y-58548854D01*
X116970649Y-58553359D01*
X116970648Y-58553363D01*
X116960212Y-58641538D01*
X116959873Y-58644108D01*
X116946488Y-58736423D01*
X116946666Y-58740955D01*
X116946666Y-58740956D01*
X116949903Y-58823342D01*
X116949979Y-58827229D01*
X116949979Y-111861250D01*
X116931072Y-111919441D01*
X116920983Y-111931254D01*
X101383570Y-127468667D01*
X101344323Y-127492764D01*
X101159281Y-127553245D01*
X101159277Y-127553247D01*
X101155424Y-127554506D01*
X101151824Y-127556380D01*
X100954754Y-127658968D01*
X100954751Y-127658970D01*
X100951149Y-127660845D01*
X100766984Y-127799119D01*
X100607877Y-127965616D01*
X100605585Y-127968976D01*
X100480389Y-128152505D01*
X100480386Y-128152511D01*
X100478099Y-128155863D01*
X100381136Y-128364752D01*
X100319592Y-128586673D01*
X100295119Y-128815665D01*
X100308376Y-129045580D01*
X100359006Y-129270242D01*
X100445649Y-129483618D01*
X100565979Y-129679978D01*
X100716763Y-129854048D01*
X100893953Y-130001154D01*
X101092790Y-130117345D01*
X101307934Y-130199501D01*
X101311909Y-130200310D01*
X101311910Y-130200310D01*
X101529624Y-130244604D01*
X101529628Y-130244604D01*
X101533607Y-130245414D01*
X101537667Y-130245563D01*
X101537668Y-130245563D01*
X101579459Y-130247095D01*
X101763749Y-130253853D01*
X101767767Y-130253338D01*
X101767773Y-130253338D01*
X101988146Y-130225108D01*
X101988152Y-130225107D01*
X101992178Y-130224591D01*
X101996071Y-130223423D01*
X101996076Y-130223422D01*
X102154836Y-130175791D01*
X102212761Y-130158413D01*
X102419574Y-130057096D01*
X102607062Y-129923363D01*
X102770190Y-129760803D01*
X102904577Y-129573783D01*
X103006615Y-129367325D01*
X103054479Y-129209786D01*
X103079198Y-129168566D01*
X112000669Y-120247095D01*
X119145028Y-120247095D01*
X119145368Y-120250657D01*
X119145368Y-120250664D01*
X119162922Y-120434648D01*
X119170534Y-120514431D01*
X119234364Y-120775285D01*
X119335182Y-121024192D01*
X119470875Y-121255938D01*
X119638601Y-121465669D01*
X119834846Y-121648991D01*
X120055499Y-121802064D01*
X120177066Y-121862542D01*
X120292723Y-121920081D01*
X120292728Y-121920083D01*
X120295938Y-121921680D01*
X120299349Y-121922798D01*
X120299351Y-121922799D01*
X120547721Y-122004219D01*
X120547724Y-122004220D01*
X120551126Y-122005335D01*
X120815717Y-122051276D01*
X120864761Y-122053717D01*
X120899335Y-122055439D01*
X120899348Y-122055439D01*
X120900567Y-122055500D01*
X121068223Y-122055500D01*
X121267846Y-122041016D01*
X121530080Y-121983120D01*
X121533429Y-121981851D01*
X121533433Y-121981850D01*
X121635087Y-121943337D01*
X121781211Y-121887975D01*
X121935879Y-121802064D01*
X122012837Y-121759318D01*
X122012841Y-121759315D01*
X122015976Y-121757574D01*
X122155575Y-121651036D01*
X122226607Y-121596826D01*
X122226609Y-121596825D01*
X122229458Y-121594650D01*
X122417185Y-121402614D01*
X122575225Y-121185491D01*
X122700265Y-120947828D01*
X122789688Y-120694603D01*
X122825904Y-120510861D01*
X122840925Y-120434648D01*
X122841620Y-120431122D01*
X122854972Y-120162905D01*
X122854632Y-120159343D01*
X122854632Y-120159336D01*
X122829807Y-119899139D01*
X122829806Y-119899134D01*
X122829466Y-119895569D01*
X122765636Y-119634715D01*
X122664818Y-119385808D01*
X122529125Y-119154062D01*
X122361399Y-118944331D01*
X122165154Y-118761009D01*
X121944501Y-118607936D01*
X121771812Y-118522025D01*
X121707277Y-118489919D01*
X121707272Y-118489917D01*
X121704062Y-118488320D01*
X121520515Y-118428150D01*
X121452279Y-118405781D01*
X121452276Y-118405780D01*
X121448874Y-118404665D01*
X121184283Y-118358724D01*
X121135239Y-118356283D01*
X121100665Y-118354561D01*
X121100652Y-118354561D01*
X121099433Y-118354500D01*
X120931777Y-118354500D01*
X120732154Y-118368984D01*
X120469920Y-118426880D01*
X120466571Y-118428149D01*
X120466567Y-118428150D01*
X120364913Y-118466663D01*
X120218789Y-118522025D01*
X120088411Y-118594444D01*
X119987163Y-118650682D01*
X119987159Y-118650685D01*
X119984024Y-118652426D01*
X119981174Y-118654601D01*
X119981171Y-118654603D01*
X119773393Y-118813174D01*
X119770542Y-118815350D01*
X119582815Y-119007386D01*
X119424775Y-119224509D01*
X119299735Y-119462172D01*
X119210312Y-119715397D01*
X119209618Y-119718919D01*
X119209617Y-119718922D01*
X119164479Y-119947934D01*
X119158380Y-119978878D01*
X119145028Y-120247095D01*
X112000669Y-120247095D01*
X118968369Y-113279395D01*
X118973098Y-113274967D01*
X119021610Y-113232423D01*
X119025022Y-113229431D01*
X119082790Y-113156152D01*
X119084421Y-113154138D01*
X119141181Y-113085891D01*
X119141181Y-113085890D01*
X119144081Y-113082404D01*
X119148012Y-113075384D01*
X119156638Y-113062476D01*
X119161616Y-113056161D01*
X119163729Y-113052144D01*
X119163734Y-113052137D01*
X119205063Y-112973585D01*
X119206299Y-112971308D01*
X119249669Y-112893866D01*
X119249673Y-112893857D01*
X119251889Y-112889900D01*
X119254473Y-112882286D01*
X119260605Y-112868014D01*
X119264348Y-112860901D01*
X119266785Y-112853055D01*
X119292018Y-112771790D01*
X119292819Y-112769326D01*
X119321351Y-112685273D01*
X119322811Y-112680972D01*
X119323462Y-112676480D01*
X119323464Y-112676473D01*
X119323967Y-112673005D01*
X119327394Y-112657860D01*
X119328430Y-112654523D01*
X119329776Y-112650188D01*
X119340744Y-112557521D01*
X119341073Y-112555018D01*
X119354470Y-112462619D01*
X119351055Y-112375700D01*
X119350979Y-112371813D01*
X119350979Y-65778321D01*
X119369886Y-65720130D01*
X119419386Y-65684166D01*
X119480572Y-65684166D01*
X119527296Y-65716489D01*
X119638601Y-65855669D01*
X119834846Y-66038991D01*
X120055499Y-66192064D01*
X120177066Y-66252542D01*
X120292723Y-66310081D01*
X120292728Y-66310083D01*
X120295938Y-66311680D01*
X120299349Y-66312798D01*
X120299351Y-66312799D01*
X120547721Y-66394219D01*
X120547724Y-66394220D01*
X120551126Y-66395335D01*
X120815717Y-66441276D01*
X120864761Y-66443717D01*
X120899335Y-66445439D01*
X120899348Y-66445439D01*
X120900567Y-66445500D01*
X121068223Y-66445500D01*
X121267846Y-66431016D01*
X121530080Y-66373120D01*
X121533429Y-66371851D01*
X121533433Y-66371850D01*
X121635087Y-66333337D01*
X121781211Y-66277975D01*
X121935879Y-66192064D01*
X122012837Y-66149318D01*
X122012841Y-66149315D01*
X122015976Y-66147574D01*
X122155575Y-66041036D01*
X122226607Y-65986826D01*
X122226609Y-65986825D01*
X122229458Y-65984650D01*
X122417185Y-65792614D01*
X122575225Y-65575491D01*
X122700265Y-65337828D01*
X122789688Y-65084603D01*
X122825904Y-64900861D01*
X122840925Y-64824648D01*
X122841620Y-64821122D01*
X122854972Y-64552905D01*
X122854632Y-64549343D01*
X122854632Y-64549336D01*
X122829807Y-64289139D01*
X122829806Y-64289134D01*
X122829466Y-64285569D01*
X122765636Y-64024715D01*
X122664818Y-63775808D01*
X122652502Y-63754773D01*
X122530936Y-63547155D01*
X122529125Y-63544062D01*
X122498514Y-63505784D01*
X122363634Y-63337126D01*
X122361399Y-63334331D01*
X122165154Y-63151009D01*
X121944501Y-62997936D01*
X121771812Y-62912025D01*
X121707277Y-62879919D01*
X121707272Y-62879917D01*
X121704062Y-62878320D01*
X121520515Y-62818150D01*
X121452279Y-62795781D01*
X121452276Y-62795780D01*
X121448874Y-62794665D01*
X121184283Y-62748724D01*
X121135239Y-62746283D01*
X121100665Y-62744561D01*
X121100652Y-62744561D01*
X121099433Y-62744500D01*
X120931777Y-62744500D01*
X120732154Y-62758984D01*
X120469920Y-62816880D01*
X120466571Y-62818149D01*
X120466567Y-62818150D01*
X120364913Y-62856663D01*
X120218789Y-62912025D01*
X120088411Y-62984444D01*
X119987163Y-63040682D01*
X119987159Y-63040685D01*
X119984024Y-63042426D01*
X119981174Y-63044601D01*
X119981171Y-63044603D01*
X119773393Y-63203174D01*
X119770542Y-63205350D01*
X119582815Y-63397386D01*
X119580703Y-63400288D01*
X119530021Y-63469917D01*
X119480489Y-63505837D01*
X119419304Y-63505784D01*
X119369835Y-63469777D01*
X119350979Y-63411656D01*
X119350979Y-59337793D01*
X119369886Y-59279602D01*
X119379975Y-59267789D01*
X121318809Y-57328954D01*
X121360363Y-57304135D01*
X121512761Y-57258413D01*
X121719574Y-57157096D01*
X121907062Y-57023363D01*
X122070190Y-56860803D01*
X122204577Y-56673783D01*
X122306615Y-56467325D01*
X122336112Y-56370242D01*
X122372380Y-56250869D01*
X122372380Y-56250868D01*
X122373563Y-56246975D01*
X122403622Y-56018649D01*
X122405300Y-55950000D01*
X122386430Y-55720478D01*
X122352851Y-55586793D01*
X122331317Y-55501066D01*
X122330326Y-55497120D01*
X122238496Y-55285924D01*
X122113405Y-55092563D01*
X121958412Y-54922229D01*
X121955226Y-54919713D01*
X121955223Y-54919710D01*
X121850738Y-54837193D01*
X121816789Y-54786289D01*
X121819245Y-54725153D01*
X121857166Y-54677136D01*
X121912096Y-54660500D01*
X139388055Y-54660500D01*
X139446246Y-54679407D01*
X139482210Y-54728907D01*
X139482210Y-54790093D01*
X139447498Y-54838668D01*
X139366984Y-54899119D01*
X139207877Y-55065616D01*
X139205585Y-55068976D01*
X139080389Y-55252505D01*
X139080386Y-55252511D01*
X139078099Y-55255863D01*
X138981136Y-55464752D01*
X138947291Y-55586793D01*
X138921896Y-55630340D01*
X136632597Y-57919640D01*
X136627869Y-57924067D01*
X136575936Y-57969611D01*
X136518113Y-58042959D01*
X136516566Y-58044870D01*
X136456877Y-58116638D01*
X136452946Y-58123658D01*
X136444320Y-58136566D01*
X136439342Y-58142881D01*
X136437229Y-58146898D01*
X136437224Y-58146905D01*
X136395895Y-58225457D01*
X136394659Y-58227734D01*
X136351289Y-58305176D01*
X136351285Y-58305185D01*
X136349069Y-58309142D01*
X136347610Y-58313441D01*
X136346485Y-58316755D01*
X136340353Y-58331028D01*
X136336610Y-58338141D01*
X136310489Y-58422266D01*
X136308936Y-58427266D01*
X136308141Y-58429712D01*
X136278148Y-58518069D01*
X136277496Y-58522565D01*
X136276994Y-58526025D01*
X136273567Y-58541174D01*
X136271182Y-58548854D01*
X136270649Y-58553359D01*
X136270648Y-58553363D01*
X136260212Y-58641538D01*
X136259873Y-58644108D01*
X136246488Y-58736423D01*
X136246666Y-58740955D01*
X136246666Y-58740956D01*
X136249903Y-58823342D01*
X136249979Y-58827229D01*
X136249979Y-111861250D01*
X136231072Y-111919441D01*
X136220983Y-111931254D01*
X120683570Y-127468667D01*
X120644323Y-127492764D01*
X120459281Y-127553245D01*
X120459277Y-127553247D01*
X120455424Y-127554506D01*
X120451824Y-127556380D01*
X120254754Y-127658968D01*
X120254751Y-127658970D01*
X120251149Y-127660845D01*
X120066984Y-127799119D01*
X119907877Y-127965616D01*
X119905585Y-127968976D01*
X119780389Y-128152505D01*
X119780386Y-128152511D01*
X119778099Y-128155863D01*
X119681136Y-128364752D01*
X119619592Y-128586673D01*
X119595119Y-128815665D01*
X119608376Y-129045580D01*
X119659006Y-129270242D01*
X119745649Y-129483618D01*
X119865979Y-129679978D01*
X120016763Y-129854048D01*
X120193953Y-130001154D01*
X120392790Y-130117345D01*
X120607934Y-130199501D01*
X120611909Y-130200310D01*
X120611910Y-130200310D01*
X120829624Y-130244604D01*
X120829628Y-130244604D01*
X120833607Y-130245414D01*
X120837667Y-130245563D01*
X120837668Y-130245563D01*
X120879459Y-130247095D01*
X121063749Y-130253853D01*
X121067767Y-130253338D01*
X121067773Y-130253338D01*
X121288146Y-130225108D01*
X121288152Y-130225107D01*
X121292178Y-130224591D01*
X121296071Y-130223423D01*
X121296076Y-130223422D01*
X121454836Y-130175791D01*
X121512761Y-130158413D01*
X121719574Y-130057096D01*
X121907062Y-129923363D01*
X122070190Y-129760803D01*
X122204577Y-129573783D01*
X122306615Y-129367325D01*
X122354479Y-129209786D01*
X122379198Y-129168566D01*
X131300669Y-120247095D01*
X138445028Y-120247095D01*
X138445368Y-120250657D01*
X138445368Y-120250664D01*
X138462922Y-120434648D01*
X138470534Y-120514431D01*
X138534364Y-120775285D01*
X138635182Y-121024192D01*
X138770875Y-121255938D01*
X138938601Y-121465669D01*
X139134846Y-121648991D01*
X139355499Y-121802064D01*
X139477066Y-121862542D01*
X139592723Y-121920081D01*
X139592728Y-121920083D01*
X139595938Y-121921680D01*
X139599349Y-121922798D01*
X139599351Y-121922799D01*
X139847721Y-122004219D01*
X139847724Y-122004220D01*
X139851126Y-122005335D01*
X140115717Y-122051276D01*
X140164761Y-122053717D01*
X140199335Y-122055439D01*
X140199348Y-122055439D01*
X140200567Y-122055500D01*
X140368223Y-122055500D01*
X140567846Y-122041016D01*
X140830080Y-121983120D01*
X140833429Y-121981851D01*
X140833433Y-121981850D01*
X140935087Y-121943337D01*
X141081211Y-121887975D01*
X141235879Y-121802064D01*
X141312837Y-121759318D01*
X141312841Y-121759315D01*
X141315976Y-121757574D01*
X141455575Y-121651036D01*
X141526607Y-121596826D01*
X141526609Y-121596825D01*
X141529458Y-121594650D01*
X141717185Y-121402614D01*
X141875225Y-121185491D01*
X142000265Y-120947828D01*
X142089688Y-120694603D01*
X142125904Y-120510861D01*
X142140925Y-120434648D01*
X142141620Y-120431122D01*
X142154972Y-120162905D01*
X142154632Y-120159343D01*
X142154632Y-120159336D01*
X142129807Y-119899139D01*
X142129806Y-119899134D01*
X142129466Y-119895569D01*
X142065636Y-119634715D01*
X141964818Y-119385808D01*
X141829125Y-119154062D01*
X141661399Y-118944331D01*
X141465154Y-118761009D01*
X141244501Y-118607936D01*
X141071812Y-118522025D01*
X141007277Y-118489919D01*
X141007272Y-118489917D01*
X141004062Y-118488320D01*
X140820515Y-118428150D01*
X140752279Y-118405781D01*
X140752276Y-118405780D01*
X140748874Y-118404665D01*
X140484283Y-118358724D01*
X140435239Y-118356283D01*
X140400665Y-118354561D01*
X140400652Y-118354561D01*
X140399433Y-118354500D01*
X140231777Y-118354500D01*
X140032154Y-118368984D01*
X139769920Y-118426880D01*
X139766571Y-118428149D01*
X139766567Y-118428150D01*
X139664913Y-118466663D01*
X139518789Y-118522025D01*
X139388411Y-118594444D01*
X139287163Y-118650682D01*
X139287159Y-118650685D01*
X139284024Y-118652426D01*
X139281174Y-118654601D01*
X139281171Y-118654603D01*
X139073393Y-118813174D01*
X139070542Y-118815350D01*
X138882815Y-119007386D01*
X138724775Y-119224509D01*
X138599735Y-119462172D01*
X138510312Y-119715397D01*
X138509618Y-119718919D01*
X138509617Y-119718922D01*
X138464479Y-119947934D01*
X138458380Y-119978878D01*
X138445028Y-120247095D01*
X131300669Y-120247095D01*
X138268369Y-113279395D01*
X138273098Y-113274967D01*
X138321610Y-113232423D01*
X138325022Y-113229431D01*
X138382790Y-113156152D01*
X138384421Y-113154138D01*
X138441181Y-113085891D01*
X138441181Y-113085890D01*
X138444081Y-113082404D01*
X138448012Y-113075384D01*
X138456638Y-113062476D01*
X138461616Y-113056161D01*
X138463729Y-113052144D01*
X138463734Y-113052137D01*
X138505063Y-112973585D01*
X138506299Y-112971308D01*
X138549669Y-112893866D01*
X138549673Y-112893857D01*
X138551889Y-112889900D01*
X138554473Y-112882286D01*
X138560605Y-112868014D01*
X138564348Y-112860901D01*
X138566785Y-112853055D01*
X138592018Y-112771790D01*
X138592819Y-112769326D01*
X138621351Y-112685273D01*
X138622811Y-112680972D01*
X138623462Y-112676480D01*
X138623464Y-112676473D01*
X138623967Y-112673005D01*
X138627394Y-112657860D01*
X138628430Y-112654523D01*
X138629776Y-112650188D01*
X138640744Y-112557521D01*
X138641073Y-112555018D01*
X138654470Y-112462619D01*
X138651055Y-112375700D01*
X138650979Y-112371813D01*
X138650979Y-69964536D01*
X149596441Y-69964536D01*
X149617079Y-70121298D01*
X149677587Y-70267377D01*
X149773841Y-70392818D01*
X149899282Y-70489072D01*
X150045361Y-70549580D01*
X150202123Y-70570218D01*
X150358885Y-70549580D01*
X150504964Y-70489072D01*
X150630405Y-70392818D01*
X150726659Y-70267377D01*
X150787167Y-70121298D01*
X150807805Y-69964536D01*
X150787167Y-69807774D01*
X150726659Y-69661695D01*
X150630405Y-69536254D01*
X150504964Y-69440000D01*
X150358885Y-69379492D01*
X150202123Y-69358854D01*
X150045361Y-69379492D01*
X149899282Y-69440000D01*
X149773841Y-69536254D01*
X149677587Y-69661695D01*
X149617079Y-69807774D01*
X149596441Y-69964536D01*
X138650979Y-69964536D01*
X138650979Y-65778321D01*
X138669886Y-65720130D01*
X138719386Y-65684166D01*
X138780572Y-65684166D01*
X138827296Y-65716489D01*
X138938601Y-65855669D01*
X139134846Y-66038991D01*
X139355499Y-66192064D01*
X139477066Y-66252542D01*
X139592723Y-66310081D01*
X139592728Y-66310083D01*
X139595938Y-66311680D01*
X139599349Y-66312798D01*
X139599351Y-66312799D01*
X139847721Y-66394219D01*
X139847724Y-66394220D01*
X139851126Y-66395335D01*
X140115717Y-66441276D01*
X140164761Y-66443717D01*
X140199335Y-66445439D01*
X140199348Y-66445439D01*
X140200567Y-66445500D01*
X140368223Y-66445500D01*
X140567846Y-66431016D01*
X140830080Y-66373120D01*
X140833429Y-66371851D01*
X140833433Y-66371850D01*
X140935087Y-66333337D01*
X141081211Y-66277975D01*
X141235879Y-66192064D01*
X141312837Y-66149318D01*
X141312841Y-66149315D01*
X141315976Y-66147574D01*
X141455575Y-66041036D01*
X141526607Y-65986826D01*
X141526609Y-65986825D01*
X141529458Y-65984650D01*
X141717185Y-65792614D01*
X141875225Y-65575491D01*
X142000265Y-65337828D01*
X142089688Y-65084603D01*
X142125904Y-64900861D01*
X142140925Y-64824648D01*
X142141620Y-64821122D01*
X142154972Y-64552905D01*
X142154632Y-64549343D01*
X142154632Y-64549336D01*
X142129807Y-64289139D01*
X142129806Y-64289134D01*
X142129466Y-64285569D01*
X142065636Y-64024715D01*
X141964818Y-63775808D01*
X141952502Y-63754773D01*
X141830936Y-63547155D01*
X141829125Y-63544062D01*
X141798514Y-63505784D01*
X141663634Y-63337126D01*
X141661399Y-63334331D01*
X141465154Y-63151009D01*
X141244501Y-62997936D01*
X141071812Y-62912025D01*
X141007277Y-62879919D01*
X141007272Y-62879917D01*
X141004062Y-62878320D01*
X140820515Y-62818150D01*
X140752279Y-62795781D01*
X140752276Y-62795780D01*
X140748874Y-62794665D01*
X140484283Y-62748724D01*
X140435239Y-62746283D01*
X140400665Y-62744561D01*
X140400652Y-62744561D01*
X140399433Y-62744500D01*
X140231777Y-62744500D01*
X140032154Y-62758984D01*
X139769920Y-62816880D01*
X139766571Y-62818149D01*
X139766567Y-62818150D01*
X139664913Y-62856663D01*
X139518789Y-62912025D01*
X139388411Y-62984444D01*
X139287163Y-63040682D01*
X139287159Y-63040685D01*
X139284024Y-63042426D01*
X139281174Y-63044601D01*
X139281171Y-63044603D01*
X139073393Y-63203174D01*
X139070542Y-63205350D01*
X138882815Y-63397386D01*
X138880703Y-63400288D01*
X138830021Y-63469917D01*
X138780489Y-63505837D01*
X138719304Y-63505784D01*
X138669835Y-63469777D01*
X138650979Y-63411656D01*
X138650979Y-59337793D01*
X138669886Y-59279602D01*
X138679975Y-59267789D01*
X140618809Y-57328954D01*
X140660363Y-57304135D01*
X140812761Y-57258413D01*
X141019574Y-57157096D01*
X141207062Y-57023363D01*
X141370190Y-56860803D01*
X141504577Y-56673783D01*
X141606615Y-56467325D01*
X141636112Y-56370242D01*
X141672380Y-56250869D01*
X141672380Y-56250868D01*
X141673563Y-56246975D01*
X141703622Y-56018649D01*
X141705300Y-55950000D01*
X141686430Y-55720478D01*
X141652851Y-55586793D01*
X141631317Y-55501066D01*
X141630326Y-55497120D01*
X141538496Y-55285924D01*
X141413405Y-55092563D01*
X141258412Y-54922229D01*
X141255226Y-54919713D01*
X141255223Y-54919710D01*
X141150738Y-54837193D01*
X141116789Y-54786289D01*
X141119245Y-54725153D01*
X141157166Y-54677136D01*
X141212096Y-54660500D01*
X158688055Y-54660500D01*
X158746246Y-54679407D01*
X158782210Y-54728907D01*
X158782210Y-54790093D01*
X158747498Y-54838668D01*
X158666984Y-54899119D01*
X158507877Y-55065616D01*
X158505585Y-55068976D01*
X158380389Y-55252505D01*
X158380386Y-55252511D01*
X158378099Y-55255863D01*
X158281136Y-55464752D01*
X158247291Y-55586793D01*
X158221896Y-55630340D01*
X155937597Y-57914640D01*
X155932869Y-57919067D01*
X155880936Y-57964611D01*
X155823113Y-58037959D01*
X155821566Y-58039870D01*
X155761877Y-58111638D01*
X155757946Y-58118658D01*
X155749320Y-58131566D01*
X155744342Y-58137881D01*
X155742229Y-58141898D01*
X155742224Y-58141905D01*
X155700895Y-58220457D01*
X155699659Y-58222734D01*
X155656289Y-58300176D01*
X155656285Y-58300185D01*
X155654069Y-58304142D01*
X155652610Y-58308441D01*
X155651485Y-58311755D01*
X155645353Y-58326028D01*
X155641610Y-58333141D01*
X155640264Y-58337475D01*
X155640263Y-58337478D01*
X155613936Y-58422266D01*
X155613141Y-58424712D01*
X155583148Y-58513069D01*
X155582496Y-58517565D01*
X155581994Y-58521025D01*
X155578567Y-58536174D01*
X155576182Y-58543854D01*
X155575649Y-58548359D01*
X155575648Y-58548363D01*
X155565212Y-58636538D01*
X155564873Y-58639108D01*
X155551488Y-58731423D01*
X155551666Y-58735955D01*
X155551666Y-58735956D01*
X155554903Y-58818342D01*
X155554979Y-58822229D01*
X155554979Y-111856250D01*
X155536072Y-111914441D01*
X155525983Y-111926254D01*
X139983570Y-127468667D01*
X139944323Y-127492764D01*
X139759281Y-127553245D01*
X139759277Y-127553247D01*
X139755424Y-127554506D01*
X139751824Y-127556380D01*
X139554754Y-127658968D01*
X139554751Y-127658970D01*
X139551149Y-127660845D01*
X139366984Y-127799119D01*
X139207877Y-127965616D01*
X139205585Y-127968976D01*
X139080389Y-128152505D01*
X139080386Y-128152511D01*
X139078099Y-128155863D01*
X138981136Y-128364752D01*
X138919592Y-128586673D01*
X138895119Y-128815665D01*
X138908376Y-129045580D01*
X138959006Y-129270242D01*
X139045649Y-129483618D01*
X139165979Y-129679978D01*
X139316763Y-129854048D01*
X139493953Y-130001154D01*
X139692790Y-130117345D01*
X139907934Y-130199501D01*
X139911909Y-130200310D01*
X139911910Y-130200310D01*
X140129624Y-130244604D01*
X140129628Y-130244604D01*
X140133607Y-130245414D01*
X140137667Y-130245563D01*
X140137668Y-130245563D01*
X140179459Y-130247095D01*
X140363749Y-130253853D01*
X140367767Y-130253338D01*
X140367773Y-130253338D01*
X140588146Y-130225108D01*
X140588152Y-130225107D01*
X140592178Y-130224591D01*
X140596071Y-130223423D01*
X140596076Y-130223422D01*
X140754836Y-130175791D01*
X140812761Y-130158413D01*
X141019574Y-130057096D01*
X141207062Y-129923363D01*
X141370190Y-129760803D01*
X141504577Y-129573783D01*
X141606615Y-129367325D01*
X141654479Y-129209786D01*
X141679198Y-129168566D01*
X142032099Y-128815665D01*
X158195119Y-128815665D01*
X158208376Y-129045580D01*
X158259006Y-129270242D01*
X158345649Y-129483618D01*
X158465979Y-129679978D01*
X158616763Y-129854048D01*
X158793953Y-130001154D01*
X158992790Y-130117345D01*
X159207934Y-130199501D01*
X159211909Y-130200310D01*
X159211910Y-130200310D01*
X159429624Y-130244604D01*
X159429628Y-130244604D01*
X159433607Y-130245414D01*
X159437667Y-130245563D01*
X159437668Y-130245563D01*
X159479459Y-130247095D01*
X159663749Y-130253853D01*
X159667767Y-130253338D01*
X159667773Y-130253338D01*
X159888146Y-130225108D01*
X159888152Y-130225107D01*
X159892178Y-130224591D01*
X159896071Y-130223423D01*
X159896076Y-130223422D01*
X160054836Y-130175791D01*
X160112761Y-130158413D01*
X160319574Y-130057096D01*
X160507062Y-129923363D01*
X160670190Y-129760803D01*
X160804577Y-129573783D01*
X160906615Y-129367325D01*
X160936112Y-129270242D01*
X160972380Y-129150869D01*
X160972380Y-129150868D01*
X160973563Y-129146975D01*
X161003622Y-128918649D01*
X161005300Y-128850000D01*
X160986430Y-128620478D01*
X160930326Y-128397120D01*
X160838496Y-128185924D01*
X160713405Y-127992563D01*
X160558412Y-127822229D01*
X160555226Y-127819713D01*
X160555223Y-127819710D01*
X160380869Y-127682013D01*
X160380863Y-127682009D01*
X160377681Y-127679496D01*
X160176065Y-127568198D01*
X160172234Y-127566841D01*
X160172231Y-127566840D01*
X159962814Y-127492681D01*
X159962809Y-127492680D01*
X159958978Y-127491323D01*
X159732250Y-127450937D01*
X159728204Y-127450888D01*
X159728198Y-127450887D01*
X159601094Y-127449334D01*
X159501971Y-127448123D01*
X159274325Y-127482958D01*
X159244324Y-127492764D01*
X159059281Y-127553245D01*
X159059277Y-127553247D01*
X159055424Y-127554506D01*
X159051824Y-127556380D01*
X158854754Y-127658968D01*
X158854751Y-127658970D01*
X158851149Y-127660845D01*
X158666984Y-127799119D01*
X158507877Y-127965616D01*
X158505585Y-127968976D01*
X158380389Y-128152505D01*
X158380386Y-128152511D01*
X158378099Y-128155863D01*
X158281136Y-128364752D01*
X158219592Y-128586673D01*
X158195119Y-128815665D01*
X142032099Y-128815665D01*
X150600669Y-120247095D01*
X157750028Y-120247095D01*
X157750368Y-120250657D01*
X157750368Y-120250664D01*
X157767922Y-120434648D01*
X157775534Y-120514431D01*
X157839364Y-120775285D01*
X157940182Y-121024192D01*
X158075875Y-121255938D01*
X158243601Y-121465669D01*
X158439846Y-121648991D01*
X158660499Y-121802064D01*
X158782066Y-121862542D01*
X158897723Y-121920081D01*
X158897728Y-121920083D01*
X158900938Y-121921680D01*
X158904349Y-121922798D01*
X158904351Y-121922799D01*
X159152721Y-122004219D01*
X159152724Y-122004220D01*
X159156126Y-122005335D01*
X159420717Y-122051276D01*
X159469761Y-122053717D01*
X159504335Y-122055439D01*
X159504348Y-122055439D01*
X159505567Y-122055500D01*
X159673223Y-122055500D01*
X159872846Y-122041016D01*
X160135080Y-121983120D01*
X160138429Y-121981851D01*
X160138433Y-121981850D01*
X160240087Y-121943337D01*
X160386211Y-121887975D01*
X160540879Y-121802064D01*
X160617837Y-121759318D01*
X160617841Y-121759315D01*
X160620976Y-121757574D01*
X160760575Y-121651036D01*
X160831607Y-121596826D01*
X160831609Y-121596825D01*
X160834458Y-121594650D01*
X161022185Y-121402614D01*
X161180225Y-121185491D01*
X161305265Y-120947828D01*
X161394688Y-120694603D01*
X161430904Y-120510861D01*
X161445925Y-120434648D01*
X161446620Y-120431122D01*
X161459972Y-120162905D01*
X161459632Y-120159343D01*
X161459632Y-120159336D01*
X161434807Y-119899139D01*
X161434806Y-119899134D01*
X161434466Y-119895569D01*
X161370636Y-119634715D01*
X161269818Y-119385808D01*
X161134125Y-119154062D01*
X160966399Y-118944331D01*
X160770154Y-118761009D01*
X160549501Y-118607936D01*
X160376812Y-118522025D01*
X160312277Y-118489919D01*
X160312272Y-118489917D01*
X160309062Y-118488320D01*
X160125515Y-118428150D01*
X160057279Y-118405781D01*
X160057276Y-118405780D01*
X160053874Y-118404665D01*
X159789283Y-118358724D01*
X159740239Y-118356283D01*
X159705665Y-118354561D01*
X159705652Y-118354561D01*
X159704433Y-118354500D01*
X159536777Y-118354500D01*
X159337154Y-118368984D01*
X159074920Y-118426880D01*
X159071571Y-118428149D01*
X159071567Y-118428150D01*
X158969913Y-118466663D01*
X158823789Y-118522025D01*
X158693411Y-118594444D01*
X158592163Y-118650682D01*
X158592159Y-118650685D01*
X158589024Y-118652426D01*
X158586174Y-118654601D01*
X158586171Y-118654603D01*
X158378393Y-118813174D01*
X158375542Y-118815350D01*
X158187815Y-119007386D01*
X158029775Y-119224509D01*
X157904735Y-119462172D01*
X157815312Y-119715397D01*
X157814618Y-119718919D01*
X157814617Y-119718922D01*
X157769479Y-119947934D01*
X157763380Y-119978878D01*
X157750028Y-120247095D01*
X150600669Y-120247095D01*
X157573369Y-113274395D01*
X157578098Y-113269967D01*
X157620909Y-113232423D01*
X157630022Y-113224431D01*
X157683848Y-113156152D01*
X157687790Y-113151152D01*
X157689421Y-113149138D01*
X157746181Y-113080891D01*
X157746181Y-113080890D01*
X157749081Y-113077404D01*
X157753012Y-113070384D01*
X157761638Y-113057476D01*
X157766616Y-113051161D01*
X157768729Y-113047144D01*
X157768734Y-113047137D01*
X157810063Y-112968585D01*
X157811299Y-112966308D01*
X157854670Y-112888863D01*
X157854672Y-112888860D01*
X157856889Y-112884900D01*
X157859476Y-112877279D01*
X157865604Y-112863017D01*
X157866718Y-112860901D01*
X157869348Y-112855901D01*
X157874481Y-112839372D01*
X157897016Y-112766797D01*
X157897817Y-112764333D01*
X157926352Y-112680271D01*
X157927811Y-112675973D01*
X157928463Y-112671478D01*
X157928967Y-112668004D01*
X157932394Y-112652859D01*
X157933428Y-112649529D01*
X157934776Y-112645188D01*
X157937774Y-112619858D01*
X157945744Y-112552520D01*
X157946082Y-112549951D01*
X157959470Y-112457619D01*
X157957945Y-112418791D01*
X157956055Y-112370700D01*
X157955979Y-112366813D01*
X157955979Y-93152563D01*
X157974886Y-93094372D01*
X158009064Y-93068612D01*
X158007588Y-93066054D01*
X158008892Y-93065301D01*
X158018223Y-93061437D01*
X158017989Y-93060935D01*
X158025836Y-93057275D01*
X158034205Y-93055033D01*
X158066032Y-93032747D01*
X158073316Y-93028106D01*
X158082728Y-93022672D01*
X158106976Y-93008673D01*
X158131952Y-92978908D01*
X158137786Y-92972540D01*
X158437033Y-92673293D01*
X158491550Y-92645516D01*
X158519955Y-92645144D01*
X158600000Y-92655682D01*
X158756762Y-92635044D01*
X158902841Y-92574536D01*
X159028282Y-92478282D01*
X159124536Y-92352841D01*
X159185044Y-92206762D01*
X159205682Y-92050000D01*
X159185044Y-91893238D01*
X159124536Y-91747159D01*
X159028282Y-91621718D01*
X158902841Y-91525464D01*
X158756762Y-91464956D01*
X158600000Y-91444318D01*
X158443238Y-91464956D01*
X158297159Y-91525464D01*
X158171718Y-91621718D01*
X158136739Y-91667304D01*
X158133521Y-91671498D01*
X158083096Y-91706153D01*
X158021932Y-91704551D01*
X157973390Y-91667304D01*
X157955979Y-91611230D01*
X157955979Y-65778321D01*
X157974886Y-65720130D01*
X158024386Y-65684166D01*
X158085572Y-65684166D01*
X158132296Y-65716489D01*
X158243601Y-65855669D01*
X158439846Y-66038991D01*
X158660499Y-66192064D01*
X158782066Y-66252542D01*
X158897723Y-66310081D01*
X158897728Y-66310083D01*
X158900938Y-66311680D01*
X158904349Y-66312798D01*
X158904351Y-66312799D01*
X159152721Y-66394219D01*
X159152724Y-66394220D01*
X159156126Y-66395335D01*
X159420717Y-66441276D01*
X159469761Y-66443717D01*
X159504335Y-66445439D01*
X159504348Y-66445439D01*
X159505567Y-66445500D01*
X159673223Y-66445500D01*
X159872846Y-66431016D01*
X160135080Y-66373120D01*
X160138429Y-66371851D01*
X160138433Y-66371850D01*
X160240087Y-66333337D01*
X160386211Y-66277975D01*
X160540879Y-66192064D01*
X160617837Y-66149318D01*
X160617841Y-66149315D01*
X160620976Y-66147574D01*
X160760575Y-66041036D01*
X160831607Y-65986826D01*
X160831609Y-65986825D01*
X160834458Y-65984650D01*
X161022185Y-65792614D01*
X161180225Y-65575491D01*
X161305265Y-65337828D01*
X161394688Y-65084603D01*
X161430904Y-64900861D01*
X161445925Y-64824648D01*
X161446620Y-64821122D01*
X161459972Y-64552905D01*
X161459632Y-64549343D01*
X161459632Y-64549336D01*
X161434807Y-64289139D01*
X161434806Y-64289134D01*
X161434466Y-64285569D01*
X161370636Y-64024715D01*
X161269818Y-63775808D01*
X161257502Y-63754773D01*
X161135936Y-63547155D01*
X161134125Y-63544062D01*
X161103514Y-63505784D01*
X160968634Y-63337126D01*
X160966399Y-63334331D01*
X160770154Y-63151009D01*
X160549501Y-62997936D01*
X160376812Y-62912025D01*
X160312277Y-62879919D01*
X160312272Y-62879917D01*
X160309062Y-62878320D01*
X160125515Y-62818150D01*
X160057279Y-62795781D01*
X160057276Y-62795780D01*
X160053874Y-62794665D01*
X159789283Y-62748724D01*
X159740239Y-62746283D01*
X159705665Y-62744561D01*
X159705652Y-62744561D01*
X159704433Y-62744500D01*
X159536777Y-62744500D01*
X159337154Y-62758984D01*
X159074920Y-62816880D01*
X159071571Y-62818149D01*
X159071567Y-62818150D01*
X158969913Y-62856663D01*
X158823789Y-62912025D01*
X158693411Y-62984444D01*
X158592163Y-63040682D01*
X158592159Y-63040685D01*
X158589024Y-63042426D01*
X158586174Y-63044601D01*
X158586171Y-63044603D01*
X158378393Y-63203174D01*
X158375542Y-63205350D01*
X158187815Y-63397386D01*
X158185703Y-63400288D01*
X158135021Y-63469917D01*
X158085489Y-63505837D01*
X158024304Y-63505784D01*
X157974835Y-63469777D01*
X157955979Y-63411656D01*
X157955979Y-59332793D01*
X157974886Y-59274602D01*
X157984975Y-59262789D01*
X159918809Y-57328954D01*
X159960363Y-57304135D01*
X160112761Y-57258413D01*
X160319574Y-57157096D01*
X160507062Y-57023363D01*
X160670190Y-56860803D01*
X160804577Y-56673783D01*
X160906615Y-56467325D01*
X160936112Y-56370242D01*
X160972380Y-56250869D01*
X160972380Y-56250868D01*
X160973563Y-56246975D01*
X161003622Y-56018649D01*
X161005300Y-55950000D01*
X160986430Y-55720478D01*
X160952851Y-55586793D01*
X160931317Y-55501066D01*
X160930326Y-55497120D01*
X160838496Y-55285924D01*
X160713405Y-55092563D01*
X160558412Y-54922229D01*
X160555226Y-54919713D01*
X160555223Y-54919710D01*
X160450738Y-54837193D01*
X160416789Y-54786289D01*
X160419245Y-54725153D01*
X160457166Y-54677136D01*
X160512096Y-54660500D01*
X168890500Y-54660500D01*
X168948691Y-54679407D01*
X168984655Y-54728907D01*
X168989500Y-54759500D01*
X168989500Y-130440500D01*
X168970593Y-130498691D01*
X168921093Y-130534655D01*
X168890500Y-130539500D01*
X92009500Y-130539500D01*
X91951309Y-130520593D01*
X91915345Y-130471093D01*
X91910500Y-130440500D01*
X91910500Y-120247095D01*
X99840028Y-120247095D01*
X99840368Y-120250657D01*
X99840368Y-120250664D01*
X99857922Y-120434648D01*
X99865534Y-120514431D01*
X99929364Y-120775285D01*
X100030182Y-121024192D01*
X100165875Y-121255938D01*
X100333601Y-121465669D01*
X100529846Y-121648991D01*
X100750499Y-121802064D01*
X100872066Y-121862542D01*
X100987723Y-121920081D01*
X100987728Y-121920083D01*
X100990938Y-121921680D01*
X100994349Y-121922798D01*
X100994351Y-121922799D01*
X101242721Y-122004219D01*
X101242724Y-122004220D01*
X101246126Y-122005335D01*
X101510717Y-122051276D01*
X101559761Y-122053717D01*
X101594335Y-122055439D01*
X101594348Y-122055439D01*
X101595567Y-122055500D01*
X101763223Y-122055500D01*
X101962846Y-122041016D01*
X102225080Y-121983120D01*
X102228429Y-121981851D01*
X102228433Y-121981850D01*
X102330087Y-121943337D01*
X102476211Y-121887975D01*
X102630879Y-121802064D01*
X102707837Y-121759318D01*
X102707841Y-121759315D01*
X102710976Y-121757574D01*
X102850575Y-121651036D01*
X102921607Y-121596826D01*
X102921609Y-121596825D01*
X102924458Y-121594650D01*
X103112185Y-121402614D01*
X103270225Y-121185491D01*
X103395265Y-120947828D01*
X103484688Y-120694603D01*
X103520904Y-120510861D01*
X103535925Y-120434648D01*
X103536620Y-120431122D01*
X103549972Y-120162905D01*
X103549632Y-120159343D01*
X103549632Y-120159336D01*
X103524807Y-119899139D01*
X103524806Y-119899134D01*
X103524466Y-119895569D01*
X103460636Y-119634715D01*
X103359818Y-119385808D01*
X103224125Y-119154062D01*
X103056399Y-118944331D01*
X102860154Y-118761009D01*
X102639501Y-118607936D01*
X102466812Y-118522025D01*
X102402277Y-118489919D01*
X102402272Y-118489917D01*
X102399062Y-118488320D01*
X102215515Y-118428150D01*
X102147279Y-118405781D01*
X102147276Y-118405780D01*
X102143874Y-118404665D01*
X101879283Y-118358724D01*
X101830239Y-118356283D01*
X101795665Y-118354561D01*
X101795652Y-118354561D01*
X101794433Y-118354500D01*
X101626777Y-118354500D01*
X101427154Y-118368984D01*
X101164920Y-118426880D01*
X101161571Y-118428149D01*
X101161567Y-118428150D01*
X101059913Y-118466663D01*
X100913789Y-118522025D01*
X100783411Y-118594444D01*
X100682163Y-118650682D01*
X100682159Y-118650685D01*
X100679024Y-118652426D01*
X100676174Y-118654601D01*
X100676171Y-118654603D01*
X100468393Y-118813174D01*
X100465542Y-118815350D01*
X100277815Y-119007386D01*
X100119775Y-119224509D01*
X99994735Y-119462172D01*
X99905312Y-119715397D01*
X99904618Y-119718919D01*
X99904617Y-119718922D01*
X99859479Y-119947934D01*
X99853380Y-119978878D01*
X99840028Y-120247095D01*
X91910500Y-120247095D01*
X91910500Y-115017419D01*
X97915811Y-115017419D01*
X97916836Y-115023290D01*
X97916836Y-115023295D01*
X97926787Y-115080309D01*
X97927544Y-115085436D01*
X97932006Y-115122309D01*
X97935213Y-115148809D01*
X97937322Y-115154390D01*
X97938467Y-115157421D01*
X97943381Y-115175384D01*
X97944962Y-115184443D01*
X97947362Y-115189910D01*
X97970619Y-115242893D01*
X97972577Y-115247691D01*
X97991247Y-115297099D01*
X97995144Y-115307412D01*
X97998522Y-115312327D01*
X97998526Y-115312335D01*
X98000354Y-115314994D01*
X98009412Y-115331267D01*
X98013110Y-115339691D01*
X98016741Y-115344423D01*
X98016744Y-115344428D01*
X98051976Y-115390343D01*
X98055022Y-115394535D01*
X98063149Y-115406359D01*
X98091177Y-115447140D01*
X98095630Y-115451107D01*
X98095633Y-115451111D01*
X98137715Y-115488604D01*
X98141861Y-115492517D01*
X99086106Y-116436762D01*
X99113883Y-116491279D01*
X99115092Y-116508152D01*
X99115060Y-116510449D01*
X99114520Y-116515262D01*
X99131759Y-116720553D01*
X99188544Y-116918586D01*
X99282712Y-117101818D01*
X99410677Y-117263270D01*
X99414357Y-117266402D01*
X99414359Y-117266404D01*
X99527017Y-117362283D01*
X99567564Y-117396791D01*
X99571787Y-117399151D01*
X99571791Y-117399154D01*
X99611342Y-117421258D01*
X99747398Y-117497297D01*
X99751996Y-117498791D01*
X99938724Y-117559463D01*
X99938726Y-117559464D01*
X99943329Y-117560959D01*
X100147894Y-117585351D01*
X100152716Y-117584980D01*
X100152719Y-117584980D01*
X100220541Y-117579761D01*
X100353300Y-117569546D01*
X100551725Y-117514145D01*
X100556038Y-117511966D01*
X100556044Y-117511964D01*
X100731289Y-117423441D01*
X100731291Y-117423440D01*
X100735610Y-117421258D01*
X100770943Y-117393653D01*
X100894135Y-117297406D01*
X100894139Y-117297402D01*
X100897951Y-117294424D01*
X100923511Y-117264812D01*
X100975847Y-117233116D01*
X100998454Y-117230500D01*
X101877665Y-117230500D01*
X101935856Y-117249407D01*
X101948182Y-117260122D01*
X101950677Y-117263270D01*
X101954364Y-117266407D01*
X101954365Y-117266409D01*
X101987283Y-117294424D01*
X102107564Y-117396791D01*
X102111787Y-117399151D01*
X102111791Y-117399154D01*
X102151342Y-117421258D01*
X102287398Y-117497297D01*
X102291996Y-117498791D01*
X102478724Y-117559463D01*
X102478726Y-117559464D01*
X102483329Y-117560959D01*
X102687894Y-117585351D01*
X102692716Y-117584980D01*
X102692719Y-117584980D01*
X102760541Y-117579761D01*
X102893300Y-117569546D01*
X103091725Y-117514145D01*
X103096038Y-117511966D01*
X103096044Y-117511964D01*
X103271289Y-117423441D01*
X103271291Y-117423440D01*
X103275610Y-117421258D01*
X103310943Y-117393653D01*
X103434135Y-117297406D01*
X103434139Y-117297402D01*
X103437951Y-117294424D01*
X103572564Y-117138472D01*
X103591231Y-117105613D01*
X103671934Y-116963550D01*
X103671935Y-116963547D01*
X103674323Y-116959344D01*
X103687882Y-116918586D01*
X103737824Y-116768454D01*
X103737824Y-116768452D01*
X103739351Y-116763863D01*
X103765171Y-116559474D01*
X103765583Y-116530000D01*
X103763441Y-116508152D01*
X103745952Y-116329780D01*
X103745951Y-116329776D01*
X103745480Y-116324970D01*
X103685935Y-116127749D01*
X103589218Y-115945849D01*
X103459011Y-115786200D01*
X103300275Y-115654882D01*
X103119055Y-115556897D01*
X103065038Y-115540176D01*
X102982061Y-115514490D01*
X102932063Y-115479220D01*
X102912346Y-115421299D01*
X102930439Y-115362850D01*
X102979432Y-115326199D01*
X102990752Y-115323081D01*
X102997202Y-115321710D01*
X103203304Y-115259876D01*
X103210852Y-115256918D01*
X103404090Y-115162252D01*
X103411045Y-115158105D01*
X103461229Y-115122309D01*
X103469163Y-115111587D01*
X103469170Y-115110724D01*
X103465554Y-115104764D01*
X102721086Y-114360296D01*
X102709203Y-114354242D01*
X102704172Y-114355038D01*
X101955011Y-115104199D01*
X101949387Y-115115238D01*
X101956207Y-115122462D01*
X102117713Y-115216838D01*
X102125008Y-115220334D01*
X102326038Y-115297099D01*
X102333808Y-115299357D01*
X102437991Y-115320553D01*
X102491244Y-115350682D01*
X102516618Y-115406359D01*
X102504419Y-115466316D01*
X102459309Y-115507652D01*
X102446206Y-115512538D01*
X102314572Y-115551280D01*
X102310288Y-115553519D01*
X102310287Y-115553520D01*
X102299428Y-115559197D01*
X102132002Y-115646726D01*
X102128231Y-115649758D01*
X101975220Y-115772781D01*
X101975217Y-115772783D01*
X101971447Y-115775815D01*
X101956073Y-115794137D01*
X101904187Y-115826559D01*
X101880236Y-115829500D01*
X101001334Y-115829500D01*
X100943143Y-115810593D01*
X100924618Y-115793075D01*
X100919011Y-115786200D01*
X100760275Y-115654882D01*
X100579055Y-115556897D01*
X100525038Y-115540176D01*
X100442061Y-115514490D01*
X100392063Y-115479220D01*
X100372346Y-115421299D01*
X100390439Y-115362850D01*
X100439432Y-115326199D01*
X100450752Y-115323081D01*
X100457202Y-115321710D01*
X100663304Y-115259876D01*
X100670852Y-115256918D01*
X100864090Y-115162252D01*
X100871045Y-115158105D01*
X100921229Y-115122309D01*
X100929163Y-115111587D01*
X100929170Y-115110724D01*
X100925554Y-115104764D01*
X99880794Y-114060004D01*
X99853017Y-114005487D01*
X99855344Y-113990797D01*
X100534242Y-113990797D01*
X100535038Y-113995828D01*
X101282200Y-114742990D01*
X101294083Y-114749044D01*
X101295028Y-114748895D01*
X101300201Y-114744453D01*
X101335649Y-114695121D01*
X101339822Y-114688176D01*
X101351990Y-114663557D01*
X101394723Y-114619767D01*
X101455033Y-114609458D01*
X101509885Y-114636568D01*
X101525153Y-114655694D01*
X101577732Y-114741496D01*
X101587419Y-114749769D01*
X101595605Y-114745185D01*
X102339704Y-114001086D01*
X102344946Y-113990797D01*
X103074242Y-113990797D01*
X103075038Y-113995828D01*
X103822200Y-114742990D01*
X103834083Y-114749044D01*
X103835028Y-114748895D01*
X103840201Y-114744453D01*
X103875649Y-114695121D01*
X103879822Y-114688176D01*
X103975164Y-114495268D01*
X103978144Y-114487744D01*
X104040700Y-114281847D01*
X104042410Y-114273935D01*
X104070682Y-114059184D01*
X104071092Y-114053920D01*
X104072589Y-113992641D01*
X104072438Y-113987371D01*
X104054690Y-113771489D01*
X104053368Y-113763504D01*
X104000946Y-113554809D01*
X103998333Y-113547133D01*
X103912530Y-113349798D01*
X103908710Y-113342672D01*
X103841740Y-113239153D01*
X103831549Y-113230871D01*
X103823975Y-113235235D01*
X103080296Y-113978914D01*
X103074242Y-113990797D01*
X102344946Y-113990797D01*
X102345758Y-113989203D01*
X102344962Y-113984172D01*
X101598123Y-113237333D01*
X101586240Y-113231279D01*
X101585941Y-113231326D01*
X101580015Y-113236542D01*
X101527466Y-113313575D01*
X101525026Y-113317871D01*
X101479845Y-113359131D01*
X101419042Y-113365954D01*
X101365840Y-113335734D01*
X101355822Y-113322749D01*
X101301743Y-113239155D01*
X101291549Y-113230871D01*
X101283975Y-113235235D01*
X100540296Y-113978914D01*
X100534242Y-113990797D01*
X99855344Y-113990797D01*
X99862588Y-113945055D01*
X99880794Y-113919996D01*
X100925115Y-112875675D01*
X100931169Y-112863792D01*
X100930830Y-112861652D01*
X100927796Y-112857951D01*
X100927268Y-112857534D01*
X100920527Y-112853055D01*
X100732141Y-112749060D01*
X100724749Y-112745738D01*
X100521920Y-112673912D01*
X100514081Y-112671841D01*
X100444589Y-112659463D01*
X100390616Y-112630644D01*
X100363890Y-112575605D01*
X100374619Y-112515367D01*
X100418706Y-112472941D01*
X100435327Y-112466644D01*
X100483886Y-112453086D01*
X100551725Y-112434145D01*
X100556038Y-112431966D01*
X100556044Y-112431964D01*
X100731289Y-112343441D01*
X100731291Y-112343440D01*
X100735610Y-112341258D01*
X100770943Y-112313653D01*
X100894135Y-112217406D01*
X100894139Y-112217402D01*
X100897951Y-112214424D01*
X101032564Y-112058472D01*
X101051231Y-112025613D01*
X101131934Y-111883550D01*
X101131935Y-111883547D01*
X101134323Y-111879344D01*
X101140343Y-111861250D01*
X101197824Y-111688454D01*
X101197824Y-111688452D01*
X101199351Y-111683863D01*
X101225171Y-111479474D01*
X101225583Y-111450000D01*
X101224138Y-111435262D01*
X101654520Y-111435262D01*
X101671759Y-111640553D01*
X101728544Y-111838586D01*
X101822712Y-112021818D01*
X101950677Y-112183270D01*
X101954357Y-112186402D01*
X101954359Y-112186404D01*
X102024153Y-112245803D01*
X102107564Y-112316791D01*
X102111787Y-112319151D01*
X102111791Y-112319154D01*
X102212969Y-112375700D01*
X102287398Y-112417297D01*
X102441944Y-112467512D01*
X102491444Y-112503476D01*
X102510351Y-112561667D01*
X102491444Y-112619858D01*
X102441944Y-112655822D01*
X102426327Y-112659528D01*
X102398226Y-112663828D01*
X102390341Y-112665707D01*
X102185807Y-112732558D01*
X102178350Y-112735693D01*
X101987482Y-112835053D01*
X101980623Y-112839372D01*
X101957726Y-112856564D01*
X101950058Y-112867475D01*
X101950082Y-112868994D01*
X101953193Y-112873983D01*
X102698914Y-113619704D01*
X102710797Y-113625758D01*
X102715828Y-113624962D01*
X103465115Y-112875675D01*
X103471169Y-112863792D01*
X103470830Y-112861652D01*
X103467796Y-112857951D01*
X103467268Y-112857534D01*
X103460527Y-112853055D01*
X103272141Y-112749060D01*
X103264749Y-112745738D01*
X103061920Y-112673912D01*
X103054081Y-112671841D01*
X102984589Y-112659463D01*
X102930616Y-112630644D01*
X102903890Y-112575605D01*
X102914619Y-112515367D01*
X102958706Y-112472941D01*
X102975327Y-112466644D01*
X103023886Y-112453086D01*
X103091725Y-112434145D01*
X103096038Y-112431966D01*
X103096044Y-112431964D01*
X103271289Y-112343441D01*
X103271291Y-112343440D01*
X103275610Y-112341258D01*
X103310943Y-112313653D01*
X103434135Y-112217406D01*
X103434139Y-112217402D01*
X103437951Y-112214424D01*
X103572564Y-112058472D01*
X103591231Y-112025613D01*
X103671934Y-111883550D01*
X103671935Y-111883547D01*
X103674323Y-111879344D01*
X103680343Y-111861250D01*
X103737824Y-111688454D01*
X103737824Y-111688452D01*
X103739351Y-111683863D01*
X103765171Y-111479474D01*
X103765583Y-111450000D01*
X103745480Y-111244970D01*
X103685935Y-111047749D01*
X103589218Y-110865849D01*
X103459011Y-110706200D01*
X103423567Y-110676878D01*
X103304002Y-110577965D01*
X103304000Y-110577964D01*
X103300275Y-110574882D01*
X103119055Y-110476897D01*
X103065038Y-110460176D01*
X102982061Y-110434490D01*
X102932063Y-110399220D01*
X102912346Y-110341299D01*
X102930439Y-110282850D01*
X102979432Y-110246199D01*
X102990752Y-110243081D01*
X102997202Y-110241710D01*
X103203304Y-110179876D01*
X103210852Y-110176918D01*
X103404090Y-110082252D01*
X103411045Y-110078105D01*
X103461229Y-110042309D01*
X103469163Y-110031587D01*
X103469170Y-110030724D01*
X103465554Y-110024764D01*
X102721086Y-109280296D01*
X102709203Y-109274242D01*
X102704172Y-109275038D01*
X101955011Y-110024199D01*
X101949387Y-110035238D01*
X101956207Y-110042462D01*
X102117713Y-110136838D01*
X102125008Y-110140334D01*
X102326038Y-110217099D01*
X102333808Y-110219357D01*
X102437991Y-110240553D01*
X102491244Y-110270682D01*
X102516618Y-110326359D01*
X102504419Y-110386316D01*
X102459309Y-110427652D01*
X102446206Y-110432538D01*
X102314572Y-110471280D01*
X102310288Y-110473519D01*
X102310287Y-110473520D01*
X102299428Y-110479197D01*
X102132002Y-110566726D01*
X102128231Y-110569758D01*
X101975220Y-110692781D01*
X101975217Y-110692783D01*
X101971447Y-110695815D01*
X101968333Y-110699526D01*
X101968332Y-110699527D01*
X101959585Y-110709952D01*
X101839024Y-110853630D01*
X101836689Y-110857878D01*
X101836688Y-110857879D01*
X101829955Y-110870126D01*
X101739776Y-111034162D01*
X101677484Y-111230532D01*
X101676944Y-111235344D01*
X101676944Y-111235345D01*
X101675865Y-111244970D01*
X101654520Y-111435262D01*
X101224138Y-111435262D01*
X101205480Y-111244970D01*
X101145935Y-111047749D01*
X101049218Y-110865849D01*
X100919011Y-110706200D01*
X100883567Y-110676878D01*
X100764002Y-110577965D01*
X100764000Y-110577964D01*
X100760275Y-110574882D01*
X100579055Y-110476897D01*
X100525038Y-110460176D01*
X100442061Y-110434490D01*
X100392063Y-110399220D01*
X100372346Y-110341299D01*
X100390439Y-110282850D01*
X100439432Y-110246199D01*
X100450752Y-110243081D01*
X100457202Y-110241710D01*
X100663304Y-110179876D01*
X100670852Y-110176918D01*
X100864090Y-110082252D01*
X100871045Y-110078105D01*
X100921229Y-110042309D01*
X100929163Y-110031587D01*
X100929170Y-110030724D01*
X100925554Y-110024764D01*
X99880794Y-108980004D01*
X99853017Y-108925487D01*
X99855344Y-108910797D01*
X100534242Y-108910797D01*
X100535038Y-108915828D01*
X101282200Y-109662990D01*
X101294083Y-109669044D01*
X101295028Y-109668895D01*
X101300201Y-109664453D01*
X101335649Y-109615121D01*
X101339822Y-109608176D01*
X101351990Y-109583557D01*
X101394723Y-109539767D01*
X101455033Y-109529458D01*
X101509885Y-109556568D01*
X101525153Y-109575694D01*
X101577732Y-109661496D01*
X101587419Y-109669769D01*
X101595605Y-109665185D01*
X102339704Y-108921086D01*
X102344946Y-108910797D01*
X103074242Y-108910797D01*
X103075038Y-108915828D01*
X103822200Y-109662990D01*
X103834083Y-109669044D01*
X103835028Y-109668895D01*
X103840201Y-109664453D01*
X103875649Y-109615121D01*
X103879822Y-109608176D01*
X103975164Y-109415268D01*
X103978144Y-109407744D01*
X104040700Y-109201847D01*
X104042410Y-109193935D01*
X104070682Y-108979184D01*
X104071092Y-108973920D01*
X104072589Y-108912641D01*
X104072438Y-108907371D01*
X104054690Y-108691489D01*
X104053368Y-108683504D01*
X104000946Y-108474809D01*
X103998333Y-108467133D01*
X103912530Y-108269798D01*
X103908710Y-108262672D01*
X103841740Y-108159153D01*
X103831549Y-108150871D01*
X103823975Y-108155235D01*
X103080296Y-108898914D01*
X103074242Y-108910797D01*
X102344946Y-108910797D01*
X102345758Y-108909203D01*
X102344962Y-108904172D01*
X101598123Y-108157333D01*
X101586240Y-108151279D01*
X101585941Y-108151326D01*
X101580015Y-108156542D01*
X101527466Y-108233575D01*
X101525026Y-108237871D01*
X101479845Y-108279131D01*
X101419042Y-108285954D01*
X101365840Y-108255734D01*
X101355822Y-108242749D01*
X101301743Y-108159155D01*
X101291549Y-108150871D01*
X101283975Y-108155235D01*
X100540296Y-108898914D01*
X100534242Y-108910797D01*
X99855344Y-108910797D01*
X99862588Y-108865055D01*
X99880794Y-108839996D01*
X100925115Y-107795675D01*
X100931169Y-107783792D01*
X100930830Y-107781652D01*
X100927796Y-107777951D01*
X100927268Y-107777534D01*
X100920527Y-107773055D01*
X100732141Y-107669060D01*
X100724749Y-107665738D01*
X100521920Y-107593912D01*
X100514081Y-107591841D01*
X100444589Y-107579463D01*
X100390616Y-107550644D01*
X100363890Y-107495605D01*
X100374619Y-107435367D01*
X100418706Y-107392941D01*
X100435327Y-107386644D01*
X100479867Y-107374208D01*
X100551725Y-107354145D01*
X100556038Y-107351966D01*
X100556044Y-107351964D01*
X100731289Y-107263441D01*
X100731291Y-107263440D01*
X100735610Y-107261258D01*
X100770943Y-107233653D01*
X100894135Y-107137406D01*
X100894139Y-107137402D01*
X100897951Y-107134424D01*
X101032564Y-106978472D01*
X101051231Y-106945613D01*
X101131934Y-106803550D01*
X101131935Y-106803547D01*
X101134323Y-106799344D01*
X101147882Y-106758586D01*
X101197824Y-106608454D01*
X101197824Y-106608452D01*
X101199351Y-106603863D01*
X101225171Y-106399474D01*
X101225583Y-106370000D01*
X101224138Y-106355262D01*
X101654520Y-106355262D01*
X101671759Y-106560553D01*
X101728544Y-106758586D01*
X101822712Y-106941818D01*
X101950677Y-107103270D01*
X101954357Y-107106402D01*
X101954359Y-107106404D01*
X102024153Y-107165803D01*
X102107564Y-107236791D01*
X102111787Y-107239151D01*
X102111791Y-107239154D01*
X102151342Y-107261258D01*
X102287398Y-107337297D01*
X102441944Y-107387512D01*
X102491444Y-107423476D01*
X102510351Y-107481667D01*
X102491444Y-107539858D01*
X102441944Y-107575822D01*
X102426327Y-107579528D01*
X102398226Y-107583828D01*
X102390341Y-107585707D01*
X102185807Y-107652558D01*
X102178350Y-107655693D01*
X101987482Y-107755053D01*
X101980623Y-107759372D01*
X101957726Y-107776564D01*
X101950058Y-107787475D01*
X101950082Y-107788994D01*
X101953193Y-107793983D01*
X102698914Y-108539704D01*
X102710797Y-108545758D01*
X102715828Y-108544962D01*
X103465115Y-107795675D01*
X103471169Y-107783792D01*
X103470830Y-107781652D01*
X103467796Y-107777951D01*
X103467268Y-107777534D01*
X103460527Y-107773055D01*
X103272141Y-107669060D01*
X103264749Y-107665738D01*
X103061920Y-107593912D01*
X103054081Y-107591841D01*
X102984589Y-107579463D01*
X102930616Y-107550644D01*
X102903890Y-107495605D01*
X102914619Y-107435367D01*
X102958706Y-107392941D01*
X102975327Y-107386644D01*
X103019867Y-107374208D01*
X103091725Y-107354145D01*
X103096038Y-107351966D01*
X103096044Y-107351964D01*
X103271289Y-107263441D01*
X103271291Y-107263440D01*
X103275610Y-107261258D01*
X103310943Y-107233653D01*
X103434135Y-107137406D01*
X103434139Y-107137402D01*
X103437951Y-107134424D01*
X103572564Y-106978472D01*
X103591231Y-106945613D01*
X103671934Y-106803550D01*
X103671935Y-106803547D01*
X103674323Y-106799344D01*
X103687882Y-106758586D01*
X103737824Y-106608454D01*
X103737824Y-106608452D01*
X103739351Y-106603863D01*
X103765171Y-106399474D01*
X103765583Y-106370000D01*
X103745480Y-106164970D01*
X103685935Y-105967749D01*
X103589218Y-105785849D01*
X103459011Y-105626200D01*
X103423567Y-105596878D01*
X103304002Y-105497965D01*
X103304000Y-105497964D01*
X103300275Y-105494882D01*
X103119055Y-105396897D01*
X103055855Y-105377333D01*
X102926875Y-105337407D01*
X102926871Y-105337406D01*
X102922254Y-105335977D01*
X102917446Y-105335472D01*
X102917443Y-105335471D01*
X102722185Y-105314949D01*
X102722183Y-105314949D01*
X102717369Y-105314443D01*
X102657354Y-105319905D01*
X102517022Y-105332675D01*
X102517017Y-105332676D01*
X102512203Y-105333114D01*
X102314572Y-105391280D01*
X102310288Y-105393519D01*
X102310287Y-105393520D01*
X102299428Y-105399197D01*
X102132002Y-105486726D01*
X102128231Y-105489758D01*
X101975220Y-105612781D01*
X101975217Y-105612783D01*
X101971447Y-105615815D01*
X101968333Y-105619526D01*
X101968332Y-105619527D01*
X101959585Y-105629952D01*
X101839024Y-105773630D01*
X101836689Y-105777878D01*
X101836688Y-105777879D01*
X101829955Y-105790126D01*
X101739776Y-105954162D01*
X101677484Y-106150532D01*
X101676944Y-106155344D01*
X101676944Y-106155345D01*
X101675865Y-106164970D01*
X101654520Y-106355262D01*
X101224138Y-106355262D01*
X101205480Y-106164970D01*
X101145935Y-105967749D01*
X101049218Y-105785849D01*
X100919011Y-105626200D01*
X100883567Y-105596878D01*
X100764002Y-105497965D01*
X100764000Y-105497964D01*
X100760275Y-105494882D01*
X100579055Y-105396897D01*
X100515855Y-105377333D01*
X100386875Y-105337407D01*
X100386871Y-105337406D01*
X100382254Y-105335977D01*
X100377446Y-105335472D01*
X100377443Y-105335471D01*
X100182185Y-105314949D01*
X100182183Y-105314949D01*
X100177369Y-105314443D01*
X100117354Y-105319905D01*
X99977022Y-105332675D01*
X99977017Y-105332676D01*
X99972203Y-105333114D01*
X99774572Y-105391280D01*
X99770288Y-105393519D01*
X99770287Y-105393520D01*
X99759428Y-105399197D01*
X99592002Y-105486726D01*
X99588231Y-105489758D01*
X99482023Y-105575151D01*
X99424825Y-105596878D01*
X99365780Y-105580836D01*
X99327441Y-105533151D01*
X99320989Y-105497996D01*
X99320989Y-104701195D01*
X99339896Y-104643004D01*
X99389396Y-104607040D01*
X99450582Y-104607040D01*
X99484153Y-104625803D01*
X99563876Y-104693653D01*
X99563881Y-104693656D01*
X99567564Y-104696791D01*
X99571787Y-104699151D01*
X99571791Y-104699154D01*
X99611342Y-104721258D01*
X99747398Y-104797297D01*
X99751996Y-104798791D01*
X99938724Y-104859463D01*
X99938726Y-104859464D01*
X99943329Y-104860959D01*
X100147894Y-104885351D01*
X100152716Y-104884980D01*
X100152719Y-104884980D01*
X100220541Y-104879761D01*
X100353300Y-104869546D01*
X100551725Y-104814145D01*
X100556038Y-104811966D01*
X100556044Y-104811964D01*
X100731289Y-104723441D01*
X100731291Y-104723440D01*
X100735610Y-104721258D01*
X100770943Y-104693653D01*
X100894135Y-104597406D01*
X100894139Y-104597402D01*
X100897951Y-104594424D01*
X101032564Y-104438472D01*
X101051231Y-104405613D01*
X101131934Y-104263550D01*
X101131935Y-104263547D01*
X101134323Y-104259344D01*
X101147882Y-104218586D01*
X101197824Y-104068454D01*
X101197824Y-104068452D01*
X101199351Y-104063863D01*
X101225171Y-103859474D01*
X101225583Y-103830000D01*
X101224138Y-103815262D01*
X101654520Y-103815262D01*
X101671759Y-104020553D01*
X101728544Y-104218586D01*
X101822712Y-104401818D01*
X101950677Y-104563270D01*
X101954357Y-104566402D01*
X101954359Y-104566404D01*
X102024153Y-104625803D01*
X102107564Y-104696791D01*
X102111787Y-104699151D01*
X102111791Y-104699154D01*
X102151342Y-104721258D01*
X102287398Y-104797297D01*
X102291996Y-104798791D01*
X102478724Y-104859463D01*
X102478726Y-104859464D01*
X102483329Y-104860959D01*
X102687894Y-104885351D01*
X102692716Y-104884980D01*
X102692719Y-104884980D01*
X102760541Y-104879761D01*
X102893300Y-104869546D01*
X103091725Y-104814145D01*
X103096038Y-104811966D01*
X103096044Y-104811964D01*
X103271289Y-104723441D01*
X103271291Y-104723440D01*
X103275610Y-104721258D01*
X103310943Y-104693653D01*
X103434135Y-104597406D01*
X103434139Y-104597402D01*
X103437951Y-104594424D01*
X103572564Y-104438472D01*
X103591231Y-104405613D01*
X103671934Y-104263550D01*
X103671935Y-104263547D01*
X103674323Y-104259344D01*
X103687882Y-104218586D01*
X103737824Y-104068454D01*
X103737824Y-104068452D01*
X103739351Y-104063863D01*
X103765171Y-103859474D01*
X103765583Y-103830000D01*
X103745480Y-103624970D01*
X103685935Y-103427749D01*
X103589218Y-103245849D01*
X103459011Y-103086200D01*
X103423567Y-103056878D01*
X103304002Y-102957965D01*
X103304000Y-102957964D01*
X103300275Y-102954882D01*
X103119055Y-102856897D01*
X103065038Y-102840176D01*
X102982061Y-102814490D01*
X102932063Y-102779220D01*
X102912346Y-102721299D01*
X102930439Y-102662850D01*
X102979432Y-102626199D01*
X102990752Y-102623081D01*
X102997202Y-102621710D01*
X103203304Y-102559876D01*
X103210852Y-102556918D01*
X103404090Y-102462252D01*
X103411045Y-102458105D01*
X103461229Y-102422309D01*
X103469163Y-102411587D01*
X103469170Y-102410724D01*
X103465554Y-102404764D01*
X102721086Y-101660296D01*
X102709203Y-101654242D01*
X102704172Y-101655038D01*
X101955011Y-102404199D01*
X101949387Y-102415238D01*
X101956207Y-102422462D01*
X102117713Y-102516838D01*
X102125008Y-102520334D01*
X102326038Y-102597099D01*
X102333808Y-102599357D01*
X102437991Y-102620553D01*
X102491244Y-102650682D01*
X102516618Y-102706359D01*
X102504419Y-102766316D01*
X102459309Y-102807652D01*
X102446206Y-102812538D01*
X102314572Y-102851280D01*
X102310288Y-102853519D01*
X102310287Y-102853520D01*
X102299428Y-102859197D01*
X102132002Y-102946726D01*
X102128231Y-102949758D01*
X101975220Y-103072781D01*
X101975217Y-103072783D01*
X101971447Y-103075815D01*
X101968333Y-103079526D01*
X101968332Y-103079527D01*
X101959585Y-103089952D01*
X101839024Y-103233630D01*
X101836689Y-103237878D01*
X101836688Y-103237879D01*
X101829955Y-103250126D01*
X101739776Y-103414162D01*
X101677484Y-103610532D01*
X101676944Y-103615344D01*
X101676944Y-103615345D01*
X101675865Y-103624970D01*
X101654520Y-103815262D01*
X101224138Y-103815262D01*
X101205480Y-103624970D01*
X101145935Y-103427749D01*
X101049218Y-103245849D01*
X100919011Y-103086200D01*
X100883567Y-103056878D01*
X100764002Y-102957965D01*
X100764000Y-102957964D01*
X100760275Y-102954882D01*
X100579055Y-102856897D01*
X100525038Y-102840176D01*
X100442061Y-102814490D01*
X100392063Y-102779220D01*
X100372346Y-102721299D01*
X100390439Y-102662850D01*
X100439432Y-102626199D01*
X100450752Y-102623081D01*
X100457202Y-102621710D01*
X100663304Y-102559876D01*
X100670852Y-102556918D01*
X100864090Y-102462252D01*
X100871045Y-102458105D01*
X100921229Y-102422309D01*
X100929163Y-102411587D01*
X100929170Y-102410724D01*
X100925554Y-102404764D01*
X99880794Y-101360004D01*
X99853017Y-101305487D01*
X99855344Y-101290797D01*
X100534242Y-101290797D01*
X100535038Y-101295828D01*
X101282200Y-102042990D01*
X101294083Y-102049044D01*
X101295028Y-102048895D01*
X101300201Y-102044453D01*
X101335649Y-101995121D01*
X101339822Y-101988176D01*
X101351990Y-101963557D01*
X101394723Y-101919767D01*
X101455033Y-101909458D01*
X101509885Y-101936568D01*
X101525153Y-101955694D01*
X101577732Y-102041496D01*
X101587419Y-102049769D01*
X101595605Y-102045185D01*
X102339704Y-101301086D01*
X102344946Y-101290797D01*
X103074242Y-101290797D01*
X103075038Y-101295828D01*
X103822200Y-102042990D01*
X103834083Y-102049044D01*
X103835028Y-102048895D01*
X103840201Y-102044453D01*
X103875649Y-101995121D01*
X103879822Y-101988176D01*
X103975164Y-101795268D01*
X103978144Y-101787744D01*
X104040700Y-101581847D01*
X104042410Y-101573935D01*
X104070682Y-101359184D01*
X104071092Y-101353920D01*
X104072589Y-101292641D01*
X104072438Y-101287371D01*
X104054690Y-101071489D01*
X104053368Y-101063504D01*
X104000946Y-100854809D01*
X103998333Y-100847133D01*
X103912530Y-100649798D01*
X103908710Y-100642672D01*
X103841740Y-100539153D01*
X103831549Y-100530871D01*
X103823975Y-100535235D01*
X103080296Y-101278914D01*
X103074242Y-101290797D01*
X102344946Y-101290797D01*
X102345758Y-101289203D01*
X102344962Y-101284172D01*
X101598123Y-100537333D01*
X101586240Y-100531279D01*
X101585941Y-100531326D01*
X101580015Y-100536542D01*
X101527466Y-100613575D01*
X101525026Y-100617871D01*
X101479845Y-100659131D01*
X101419042Y-100665954D01*
X101365840Y-100635734D01*
X101355822Y-100622749D01*
X101301743Y-100539155D01*
X101291549Y-100530871D01*
X101283975Y-100535235D01*
X100540296Y-101278914D01*
X100534242Y-101290797D01*
X99855344Y-101290797D01*
X99862588Y-101245055D01*
X99880794Y-101219996D01*
X100925115Y-100175675D01*
X100931169Y-100163792D01*
X100930830Y-100161652D01*
X100927796Y-100157951D01*
X100927268Y-100157534D01*
X100920527Y-100153055D01*
X100732141Y-100049060D01*
X100724749Y-100045738D01*
X100521920Y-99973912D01*
X100514081Y-99971841D01*
X100444589Y-99959463D01*
X100390616Y-99930644D01*
X100363890Y-99875605D01*
X100374619Y-99815367D01*
X100418706Y-99772941D01*
X100435327Y-99766644D01*
X100479867Y-99754208D01*
X100551725Y-99734145D01*
X100556038Y-99731966D01*
X100556044Y-99731964D01*
X100731289Y-99643441D01*
X100731291Y-99643440D01*
X100735610Y-99641258D01*
X100770943Y-99613653D01*
X100894135Y-99517406D01*
X100894139Y-99517402D01*
X100897951Y-99514424D01*
X100901490Y-99510325D01*
X100981656Y-99417450D01*
X101032564Y-99358472D01*
X101051231Y-99325613D01*
X101131934Y-99183550D01*
X101131935Y-99183547D01*
X101134323Y-99179344D01*
X101147882Y-99138586D01*
X101197824Y-98988454D01*
X101197824Y-98988452D01*
X101199351Y-98983863D01*
X101225171Y-98779474D01*
X101225583Y-98750000D01*
X101224138Y-98735262D01*
X101654520Y-98735262D01*
X101671759Y-98940553D01*
X101728544Y-99138586D01*
X101822712Y-99321818D01*
X101950677Y-99483270D01*
X101954357Y-99486402D01*
X101954359Y-99486404D01*
X102024153Y-99545803D01*
X102107564Y-99616791D01*
X102111787Y-99619151D01*
X102111791Y-99619154D01*
X102151342Y-99641258D01*
X102287398Y-99717297D01*
X102441944Y-99767512D01*
X102491444Y-99803476D01*
X102510351Y-99861667D01*
X102491444Y-99919858D01*
X102441944Y-99955822D01*
X102426327Y-99959528D01*
X102398226Y-99963828D01*
X102390341Y-99965707D01*
X102185807Y-100032558D01*
X102178350Y-100035693D01*
X101987482Y-100135053D01*
X101980623Y-100139372D01*
X101957726Y-100156564D01*
X101950058Y-100167475D01*
X101950082Y-100168994D01*
X101953193Y-100173983D01*
X102698914Y-100919704D01*
X102710797Y-100925758D01*
X102715828Y-100924962D01*
X103465115Y-100175675D01*
X103471169Y-100163792D01*
X103470830Y-100161652D01*
X103467796Y-100157951D01*
X103467268Y-100157534D01*
X103460527Y-100153055D01*
X103272141Y-100049060D01*
X103264749Y-100045738D01*
X103061920Y-99973912D01*
X103054081Y-99971841D01*
X102984589Y-99959463D01*
X102930616Y-99930644D01*
X102903890Y-99875605D01*
X102914619Y-99815367D01*
X102958706Y-99772941D01*
X102975327Y-99766644D01*
X103019867Y-99754208D01*
X103091725Y-99734145D01*
X103096038Y-99731966D01*
X103096044Y-99731964D01*
X103271289Y-99643441D01*
X103271291Y-99643440D01*
X103275610Y-99641258D01*
X103310943Y-99613653D01*
X103434135Y-99517406D01*
X103434139Y-99517402D01*
X103437951Y-99514424D01*
X103441490Y-99510325D01*
X103521656Y-99417450D01*
X103572564Y-99358472D01*
X103591231Y-99325613D01*
X103671934Y-99183550D01*
X103671935Y-99183547D01*
X103674323Y-99179344D01*
X103687882Y-99138586D01*
X103737824Y-98988454D01*
X103737824Y-98988452D01*
X103739351Y-98983863D01*
X103765171Y-98779474D01*
X103765583Y-98750000D01*
X103745480Y-98544970D01*
X103685935Y-98347749D01*
X103589218Y-98165849D01*
X103459011Y-98006200D01*
X103423567Y-97976878D01*
X103304002Y-97877965D01*
X103304000Y-97877964D01*
X103300275Y-97874882D01*
X103119055Y-97776897D01*
X103055855Y-97757333D01*
X102926875Y-97717407D01*
X102926871Y-97717406D01*
X102922254Y-97715977D01*
X102917446Y-97715472D01*
X102917443Y-97715471D01*
X102722185Y-97694949D01*
X102722183Y-97694949D01*
X102717369Y-97694443D01*
X102657354Y-97699905D01*
X102517022Y-97712675D01*
X102517017Y-97712676D01*
X102512203Y-97713114D01*
X102314572Y-97771280D01*
X102310288Y-97773519D01*
X102310287Y-97773520D01*
X102299428Y-97779197D01*
X102132002Y-97866726D01*
X102128231Y-97869758D01*
X101975220Y-97992781D01*
X101975217Y-97992783D01*
X101971447Y-97995815D01*
X101968333Y-97999526D01*
X101968332Y-97999527D01*
X101959585Y-98009952D01*
X101839024Y-98153630D01*
X101836689Y-98157878D01*
X101836688Y-98157879D01*
X101829955Y-98170126D01*
X101739776Y-98334162D01*
X101677484Y-98530532D01*
X101676944Y-98535344D01*
X101676944Y-98535345D01*
X101675865Y-98544970D01*
X101654520Y-98735262D01*
X101224138Y-98735262D01*
X101205480Y-98544970D01*
X101145935Y-98347749D01*
X101049218Y-98165849D01*
X100919011Y-98006200D01*
X100883567Y-97976878D01*
X100764002Y-97877965D01*
X100764000Y-97877964D01*
X100760275Y-97874882D01*
X100579055Y-97776897D01*
X100515855Y-97757333D01*
X100386875Y-97717407D01*
X100386871Y-97717406D01*
X100382254Y-97715977D01*
X100377446Y-97715472D01*
X100377443Y-97715471D01*
X100182185Y-97694949D01*
X100182183Y-97694949D01*
X100177369Y-97694443D01*
X100117354Y-97699905D01*
X99977022Y-97712675D01*
X99977017Y-97712676D01*
X99972203Y-97713114D01*
X99774572Y-97771280D01*
X99770288Y-97773519D01*
X99770287Y-97773520D01*
X99759428Y-97779197D01*
X99592002Y-97866726D01*
X99588231Y-97869758D01*
X99482023Y-97955151D01*
X99424825Y-97976878D01*
X99365780Y-97960836D01*
X99327441Y-97913151D01*
X99320989Y-97877996D01*
X99320989Y-97081195D01*
X99339896Y-97023004D01*
X99389396Y-96987040D01*
X99450582Y-96987040D01*
X99484153Y-97005803D01*
X99563876Y-97073653D01*
X99563881Y-97073656D01*
X99567564Y-97076791D01*
X99571787Y-97079151D01*
X99571791Y-97079154D01*
X99611342Y-97101258D01*
X99747398Y-97177297D01*
X99751996Y-97178791D01*
X99938724Y-97239463D01*
X99938726Y-97239464D01*
X99943329Y-97240959D01*
X100147894Y-97265351D01*
X100152716Y-97264980D01*
X100152719Y-97264980D01*
X100220541Y-97259761D01*
X100353300Y-97249546D01*
X100551725Y-97194145D01*
X100556038Y-97191966D01*
X100556044Y-97191964D01*
X100731289Y-97103441D01*
X100731291Y-97103440D01*
X100735610Y-97101258D01*
X100770943Y-97073653D01*
X100894135Y-96977406D01*
X100894139Y-96977402D01*
X100897951Y-96974424D01*
X101032564Y-96818472D01*
X101051231Y-96785613D01*
X101131934Y-96643550D01*
X101131935Y-96643547D01*
X101134323Y-96639344D01*
X101147882Y-96598586D01*
X101197824Y-96448454D01*
X101197824Y-96448452D01*
X101199351Y-96443863D01*
X101225171Y-96239474D01*
X101225583Y-96210000D01*
X101224138Y-96195262D01*
X101654520Y-96195262D01*
X101671759Y-96400553D01*
X101728544Y-96598586D01*
X101822712Y-96781818D01*
X101950677Y-96943270D01*
X101954357Y-96946402D01*
X101954359Y-96946404D01*
X102024153Y-97005803D01*
X102107564Y-97076791D01*
X102111787Y-97079151D01*
X102111791Y-97079154D01*
X102151342Y-97101258D01*
X102287398Y-97177297D01*
X102291996Y-97178791D01*
X102478724Y-97239463D01*
X102478726Y-97239464D01*
X102483329Y-97240959D01*
X102687894Y-97265351D01*
X102692716Y-97264980D01*
X102692719Y-97264980D01*
X102760541Y-97259761D01*
X102893300Y-97249546D01*
X103091725Y-97194145D01*
X103096038Y-97191966D01*
X103096044Y-97191964D01*
X103271289Y-97103441D01*
X103271291Y-97103440D01*
X103275610Y-97101258D01*
X103310943Y-97073653D01*
X103434135Y-96977406D01*
X103434139Y-96977402D01*
X103437951Y-96974424D01*
X103572564Y-96818472D01*
X103591231Y-96785613D01*
X103671934Y-96643550D01*
X103671935Y-96643547D01*
X103674323Y-96639344D01*
X103687882Y-96598586D01*
X103737824Y-96448454D01*
X103737824Y-96448452D01*
X103739351Y-96443863D01*
X103765171Y-96239474D01*
X103765583Y-96210000D01*
X103745480Y-96004970D01*
X103685935Y-95807749D01*
X103589218Y-95625849D01*
X103459011Y-95466200D01*
X103423567Y-95436878D01*
X103304002Y-95337965D01*
X103304000Y-95337964D01*
X103300275Y-95334882D01*
X103119055Y-95236897D01*
X103065038Y-95220176D01*
X102982061Y-95194490D01*
X102932063Y-95159220D01*
X102912346Y-95101299D01*
X102930439Y-95042850D01*
X102979432Y-95006199D01*
X102990752Y-95003081D01*
X102997202Y-95001710D01*
X103203304Y-94939876D01*
X103210852Y-94936918D01*
X103404090Y-94842252D01*
X103411045Y-94838105D01*
X103461229Y-94802309D01*
X103469163Y-94791587D01*
X103469170Y-94790724D01*
X103465554Y-94784764D01*
X102721086Y-94040296D01*
X102709203Y-94034242D01*
X102704172Y-94035038D01*
X101955011Y-94784199D01*
X101949387Y-94795238D01*
X101956207Y-94802462D01*
X102117713Y-94896838D01*
X102125008Y-94900334D01*
X102326038Y-94977099D01*
X102333808Y-94979357D01*
X102437991Y-95000553D01*
X102491244Y-95030682D01*
X102516618Y-95086359D01*
X102504419Y-95146316D01*
X102459309Y-95187652D01*
X102446206Y-95192538D01*
X102314572Y-95231280D01*
X102310288Y-95233519D01*
X102310287Y-95233520D01*
X102299428Y-95239197D01*
X102132002Y-95326726D01*
X102128231Y-95329758D01*
X101975220Y-95452781D01*
X101975217Y-95452783D01*
X101971447Y-95455815D01*
X101968333Y-95459526D01*
X101968332Y-95459527D01*
X101959585Y-95469952D01*
X101839024Y-95613630D01*
X101836689Y-95617878D01*
X101836688Y-95617879D01*
X101829955Y-95630126D01*
X101739776Y-95794162D01*
X101677484Y-95990532D01*
X101676944Y-95995344D01*
X101676944Y-95995345D01*
X101675865Y-96004970D01*
X101654520Y-96195262D01*
X101224138Y-96195262D01*
X101205480Y-96004970D01*
X101145935Y-95807749D01*
X101049218Y-95625849D01*
X100919011Y-95466200D01*
X100883567Y-95436878D01*
X100764002Y-95337965D01*
X100764000Y-95337964D01*
X100760275Y-95334882D01*
X100579055Y-95236897D01*
X100525038Y-95220176D01*
X100442061Y-95194490D01*
X100392063Y-95159220D01*
X100372346Y-95101299D01*
X100390439Y-95042850D01*
X100439432Y-95006199D01*
X100450752Y-95003081D01*
X100457202Y-95001710D01*
X100663304Y-94939876D01*
X100670852Y-94936918D01*
X100864090Y-94842252D01*
X100871045Y-94838105D01*
X100921229Y-94802309D01*
X100929163Y-94791587D01*
X100929170Y-94790724D01*
X100925554Y-94784764D01*
X99880794Y-93740004D01*
X99853017Y-93685487D01*
X99855344Y-93670797D01*
X100534242Y-93670797D01*
X100535038Y-93675828D01*
X101282200Y-94422990D01*
X101294083Y-94429044D01*
X101295028Y-94428895D01*
X101300201Y-94424453D01*
X101335649Y-94375121D01*
X101339822Y-94368176D01*
X101351990Y-94343557D01*
X101394723Y-94299767D01*
X101455033Y-94289458D01*
X101509885Y-94316568D01*
X101525153Y-94335694D01*
X101577732Y-94421496D01*
X101587419Y-94429769D01*
X101595605Y-94425185D01*
X102339704Y-93681086D01*
X102344946Y-93670797D01*
X103074242Y-93670797D01*
X103075038Y-93675828D01*
X103822200Y-94422990D01*
X103834083Y-94429044D01*
X103835028Y-94428895D01*
X103840201Y-94424453D01*
X103875649Y-94375121D01*
X103879822Y-94368176D01*
X103975164Y-94175268D01*
X103978144Y-94167744D01*
X104040700Y-93961847D01*
X104042410Y-93953935D01*
X104070682Y-93739184D01*
X104071092Y-93733920D01*
X104072589Y-93672641D01*
X104072438Y-93667371D01*
X104054690Y-93451489D01*
X104053368Y-93443504D01*
X104000946Y-93234809D01*
X103998333Y-93227133D01*
X103912530Y-93029798D01*
X103908710Y-93022672D01*
X103841740Y-92919153D01*
X103831549Y-92910871D01*
X103823975Y-92915235D01*
X103080296Y-93658914D01*
X103074242Y-93670797D01*
X102344946Y-93670797D01*
X102345758Y-93669203D01*
X102344962Y-93664172D01*
X101598123Y-92917333D01*
X101586240Y-92911279D01*
X101585941Y-92911326D01*
X101580015Y-92916542D01*
X101527466Y-92993575D01*
X101525026Y-92997871D01*
X101479845Y-93039131D01*
X101419042Y-93045954D01*
X101365840Y-93015734D01*
X101355822Y-93002749D01*
X101301743Y-92919155D01*
X101291549Y-92910871D01*
X101283975Y-92915235D01*
X100540296Y-93658914D01*
X100534242Y-93670797D01*
X99855344Y-93670797D01*
X99862588Y-93625055D01*
X99880794Y-93599996D01*
X100925115Y-92555675D01*
X100931169Y-92543792D01*
X100930830Y-92541652D01*
X100927796Y-92537951D01*
X100927268Y-92537534D01*
X100920527Y-92533055D01*
X100732141Y-92429060D01*
X100724749Y-92425738D01*
X100521920Y-92353912D01*
X100514081Y-92351841D01*
X100444589Y-92339463D01*
X100390616Y-92310644D01*
X100363890Y-92255605D01*
X100374619Y-92195367D01*
X100418706Y-92152941D01*
X100435327Y-92146644D01*
X100479867Y-92134208D01*
X100551725Y-92114145D01*
X100556038Y-92111966D01*
X100556044Y-92111964D01*
X100731289Y-92023441D01*
X100731291Y-92023440D01*
X100735610Y-92021258D01*
X100770943Y-91993653D01*
X100894135Y-91897406D01*
X100894139Y-91897402D01*
X100897951Y-91894424D01*
X100923511Y-91864812D01*
X100975847Y-91833116D01*
X100998454Y-91830500D01*
X101877665Y-91830500D01*
X101935856Y-91849407D01*
X101948182Y-91860122D01*
X101950677Y-91863270D01*
X101954364Y-91866407D01*
X101954365Y-91866409D01*
X102057148Y-91953884D01*
X102107564Y-91996791D01*
X102111787Y-91999151D01*
X102111791Y-91999154D01*
X102151342Y-92021258D01*
X102287398Y-92097297D01*
X102441944Y-92147512D01*
X102491444Y-92183476D01*
X102510351Y-92241667D01*
X102491444Y-92299858D01*
X102441944Y-92335822D01*
X102426327Y-92339528D01*
X102398226Y-92343828D01*
X102390341Y-92345707D01*
X102185807Y-92412558D01*
X102178350Y-92415693D01*
X101987482Y-92515053D01*
X101980623Y-92519372D01*
X101957726Y-92536564D01*
X101950058Y-92547475D01*
X101950082Y-92548994D01*
X101953193Y-92553983D01*
X102698914Y-93299704D01*
X102710797Y-93305758D01*
X102715828Y-93304962D01*
X103465115Y-92555675D01*
X103471169Y-92543792D01*
X103470830Y-92541652D01*
X103467796Y-92537951D01*
X103467268Y-92537534D01*
X103460527Y-92533055D01*
X103272141Y-92429060D01*
X103264749Y-92425738D01*
X103061920Y-92353912D01*
X103054081Y-92351841D01*
X102984589Y-92339463D01*
X102930616Y-92310644D01*
X102903890Y-92255605D01*
X102914619Y-92195367D01*
X102958706Y-92152941D01*
X102975327Y-92146644D01*
X103019867Y-92134208D01*
X103091725Y-92114145D01*
X103096038Y-92111966D01*
X103096044Y-92111964D01*
X103271289Y-92023441D01*
X103271291Y-92023440D01*
X103275610Y-92021258D01*
X103310943Y-91993653D01*
X103434135Y-91897406D01*
X103434139Y-91897402D01*
X103437951Y-91894424D01*
X103444152Y-91887241D01*
X103497313Y-91825651D01*
X103572564Y-91738472D01*
X103612993Y-91667304D01*
X103671934Y-91563550D01*
X103671935Y-91563547D01*
X103674323Y-91559344D01*
X103685594Y-91525464D01*
X103737824Y-91368454D01*
X103737824Y-91368452D01*
X103739351Y-91363863D01*
X103765171Y-91159474D01*
X103765583Y-91130000D01*
X103763441Y-91108152D01*
X103745952Y-90929780D01*
X103745951Y-90929776D01*
X103745480Y-90924970D01*
X103685935Y-90727749D01*
X103589218Y-90545849D01*
X103459011Y-90386200D01*
X103300275Y-90254882D01*
X103119055Y-90156897D01*
X103065038Y-90140176D01*
X102982061Y-90114490D01*
X102932063Y-90079220D01*
X102912346Y-90021299D01*
X102930439Y-89962850D01*
X102979432Y-89926199D01*
X102990752Y-89923081D01*
X102997202Y-89921710D01*
X103203304Y-89859876D01*
X103210852Y-89856918D01*
X103404090Y-89762252D01*
X103411045Y-89758105D01*
X103461229Y-89722309D01*
X103469163Y-89711587D01*
X103469170Y-89710724D01*
X103465554Y-89704764D01*
X102721086Y-88960296D01*
X102709203Y-88954242D01*
X102704172Y-88955038D01*
X101955011Y-89704199D01*
X101949387Y-89715238D01*
X101956207Y-89722462D01*
X102117713Y-89816838D01*
X102125008Y-89820334D01*
X102326038Y-89897099D01*
X102333808Y-89899357D01*
X102437991Y-89920553D01*
X102491244Y-89950682D01*
X102516618Y-90006359D01*
X102504419Y-90066316D01*
X102459309Y-90107652D01*
X102446206Y-90112538D01*
X102314572Y-90151280D01*
X102310288Y-90153519D01*
X102310287Y-90153520D01*
X102299428Y-90159197D01*
X102132002Y-90246726D01*
X102128231Y-90249758D01*
X101975220Y-90372781D01*
X101975217Y-90372783D01*
X101971447Y-90375815D01*
X101956073Y-90394137D01*
X101904187Y-90426559D01*
X101880236Y-90429500D01*
X101001334Y-90429500D01*
X100943143Y-90410593D01*
X100924618Y-90393075D01*
X100919011Y-90386200D01*
X100760275Y-90254882D01*
X100579055Y-90156897D01*
X100525038Y-90140176D01*
X100442061Y-90114490D01*
X100392063Y-90079220D01*
X100372346Y-90021299D01*
X100390439Y-89962850D01*
X100439432Y-89926199D01*
X100450752Y-89923081D01*
X100457202Y-89921710D01*
X100663304Y-89859876D01*
X100670852Y-89856918D01*
X100864090Y-89762252D01*
X100871045Y-89758105D01*
X100921229Y-89722309D01*
X100929163Y-89711587D01*
X100929170Y-89710724D01*
X100925554Y-89704764D01*
X99880794Y-88660004D01*
X99853017Y-88605487D01*
X99855344Y-88590797D01*
X100534242Y-88590797D01*
X100535038Y-88595828D01*
X101282200Y-89342990D01*
X101294083Y-89349044D01*
X101295028Y-89348895D01*
X101300201Y-89344453D01*
X101335649Y-89295121D01*
X101339822Y-89288176D01*
X101351990Y-89263557D01*
X101394723Y-89219767D01*
X101455033Y-89209458D01*
X101509885Y-89236568D01*
X101525153Y-89255694D01*
X101577732Y-89341496D01*
X101587419Y-89349769D01*
X101595605Y-89345185D01*
X102339704Y-88601086D01*
X102344946Y-88590797D01*
X103074242Y-88590797D01*
X103075038Y-88595828D01*
X103822200Y-89342990D01*
X103834083Y-89349044D01*
X103835028Y-89348895D01*
X103840201Y-89344453D01*
X103875649Y-89295121D01*
X103879822Y-89288176D01*
X103975164Y-89095268D01*
X103978144Y-89087744D01*
X104040700Y-88881847D01*
X104042410Y-88873935D01*
X104070682Y-88659184D01*
X104071092Y-88653920D01*
X104072589Y-88592641D01*
X104072438Y-88587371D01*
X104054690Y-88371489D01*
X104053368Y-88363504D01*
X104000946Y-88154809D01*
X103998333Y-88147133D01*
X103912530Y-87949798D01*
X103908710Y-87942672D01*
X103841740Y-87839153D01*
X103831549Y-87830871D01*
X103823975Y-87835235D01*
X103080296Y-88578914D01*
X103074242Y-88590797D01*
X102344946Y-88590797D01*
X102345758Y-88589203D01*
X102344962Y-88584172D01*
X101598123Y-87837333D01*
X101586240Y-87831279D01*
X101585941Y-87831326D01*
X101580015Y-87836542D01*
X101527466Y-87913575D01*
X101525026Y-87917871D01*
X101479845Y-87959131D01*
X101419042Y-87965954D01*
X101365840Y-87935734D01*
X101355822Y-87922749D01*
X101301743Y-87839155D01*
X101291549Y-87830871D01*
X101283975Y-87835235D01*
X100540296Y-88578914D01*
X100534242Y-88590797D01*
X99855344Y-88590797D01*
X99862588Y-88545055D01*
X99880794Y-88519996D01*
X100925115Y-87475675D01*
X100931169Y-87463792D01*
X100930830Y-87461652D01*
X100927796Y-87457951D01*
X100927268Y-87457534D01*
X100920527Y-87453055D01*
X100732141Y-87349060D01*
X100724749Y-87345738D01*
X100521920Y-87273912D01*
X100514081Y-87271841D01*
X100444589Y-87259463D01*
X100390616Y-87230644D01*
X100363890Y-87175605D01*
X100374619Y-87115367D01*
X100418706Y-87072941D01*
X100435327Y-87066644D01*
X100479867Y-87054208D01*
X100551725Y-87034145D01*
X100556038Y-87031966D01*
X100556044Y-87031964D01*
X100731289Y-86943441D01*
X100731291Y-86943440D01*
X100735610Y-86941258D01*
X100770943Y-86913653D01*
X100894135Y-86817406D01*
X100894139Y-86817402D01*
X100897951Y-86814424D01*
X100923511Y-86784812D01*
X100975847Y-86753116D01*
X100998454Y-86750500D01*
X101877665Y-86750500D01*
X101935856Y-86769407D01*
X101948182Y-86780122D01*
X101950677Y-86783270D01*
X101954364Y-86786407D01*
X101954365Y-86786409D01*
X101987283Y-86814424D01*
X102107564Y-86916791D01*
X102111787Y-86919151D01*
X102111791Y-86919154D01*
X102151342Y-86941258D01*
X102287398Y-87017297D01*
X102441944Y-87067512D01*
X102491444Y-87103476D01*
X102510351Y-87161667D01*
X102491444Y-87219858D01*
X102441944Y-87255822D01*
X102426327Y-87259528D01*
X102398226Y-87263828D01*
X102390341Y-87265707D01*
X102185807Y-87332558D01*
X102178350Y-87335693D01*
X101987482Y-87435053D01*
X101980623Y-87439372D01*
X101957726Y-87456564D01*
X101950058Y-87467475D01*
X101950082Y-87468994D01*
X101953193Y-87473983D01*
X102698914Y-88219704D01*
X102710797Y-88225758D01*
X102715828Y-88224962D01*
X103465115Y-87475675D01*
X103471169Y-87463792D01*
X103470830Y-87461652D01*
X103467796Y-87457951D01*
X103467268Y-87457534D01*
X103460527Y-87453055D01*
X103272141Y-87349060D01*
X103264749Y-87345738D01*
X103061920Y-87273912D01*
X103054081Y-87271841D01*
X102984589Y-87259463D01*
X102930616Y-87230644D01*
X102903890Y-87175605D01*
X102914619Y-87115367D01*
X102958706Y-87072941D01*
X102975327Y-87066644D01*
X103019867Y-87054208D01*
X103091725Y-87034145D01*
X103096038Y-87031966D01*
X103096044Y-87031964D01*
X103271289Y-86943441D01*
X103271291Y-86943440D01*
X103275610Y-86941258D01*
X103310943Y-86913653D01*
X103434135Y-86817406D01*
X103434139Y-86817402D01*
X103437951Y-86814424D01*
X103572564Y-86658472D01*
X103674323Y-86479344D01*
X103739351Y-86283863D01*
X103765171Y-86079474D01*
X103765583Y-86050000D01*
X103745480Y-85844970D01*
X103685935Y-85647749D01*
X103589218Y-85465849D01*
X103459011Y-85306200D01*
X103423567Y-85276878D01*
X103304002Y-85177965D01*
X103304000Y-85177964D01*
X103300275Y-85174882D01*
X103119055Y-85076897D01*
X103065038Y-85060176D01*
X102982061Y-85034490D01*
X102932063Y-84999220D01*
X102912346Y-84941299D01*
X102930439Y-84882850D01*
X102979432Y-84846199D01*
X102990752Y-84843081D01*
X102997202Y-84841710D01*
X103203304Y-84779876D01*
X103210852Y-84776918D01*
X103404090Y-84682252D01*
X103411045Y-84678105D01*
X103461229Y-84642309D01*
X103469163Y-84631587D01*
X103469170Y-84630724D01*
X103465554Y-84624764D01*
X102721086Y-83880296D01*
X102709203Y-83874242D01*
X102704172Y-83875038D01*
X101955011Y-84624199D01*
X101949387Y-84635238D01*
X101956207Y-84642462D01*
X102117713Y-84736838D01*
X102125008Y-84740334D01*
X102326038Y-84817099D01*
X102333808Y-84819357D01*
X102437991Y-84840553D01*
X102491244Y-84870682D01*
X102516618Y-84926359D01*
X102504419Y-84986316D01*
X102459309Y-85027652D01*
X102446206Y-85032538D01*
X102314572Y-85071280D01*
X102310288Y-85073519D01*
X102310287Y-85073520D01*
X102299428Y-85079197D01*
X102132002Y-85166726D01*
X102128231Y-85169758D01*
X101975220Y-85292781D01*
X101975217Y-85292783D01*
X101971447Y-85295815D01*
X101956073Y-85314137D01*
X101904187Y-85346559D01*
X101880236Y-85349500D01*
X101001334Y-85349500D01*
X100943143Y-85330593D01*
X100924618Y-85313075D01*
X100919011Y-85306200D01*
X100883567Y-85276878D01*
X100764002Y-85177965D01*
X100764000Y-85177964D01*
X100760275Y-85174882D01*
X100579055Y-85076897D01*
X100525038Y-85060176D01*
X100442061Y-85034490D01*
X100392063Y-84999220D01*
X100372346Y-84941299D01*
X100390439Y-84882850D01*
X100439432Y-84846199D01*
X100450752Y-84843081D01*
X100457202Y-84841710D01*
X100663304Y-84779876D01*
X100670852Y-84776918D01*
X100864090Y-84682252D01*
X100871045Y-84678105D01*
X100921229Y-84642309D01*
X100929163Y-84631587D01*
X100929170Y-84630724D01*
X100925554Y-84624764D01*
X99880794Y-83580004D01*
X99853017Y-83525487D01*
X99855344Y-83510797D01*
X100534242Y-83510797D01*
X100535038Y-83515828D01*
X101282200Y-84262990D01*
X101294083Y-84269044D01*
X101295028Y-84268895D01*
X101300201Y-84264453D01*
X101335649Y-84215121D01*
X101339822Y-84208176D01*
X101351990Y-84183557D01*
X101394723Y-84139767D01*
X101455033Y-84129458D01*
X101509885Y-84156568D01*
X101525153Y-84175694D01*
X101577732Y-84261496D01*
X101587419Y-84269769D01*
X101595605Y-84265185D01*
X102339704Y-83521086D01*
X102344946Y-83510797D01*
X103074242Y-83510797D01*
X103075038Y-83515828D01*
X103822200Y-84262990D01*
X103834083Y-84269044D01*
X103835028Y-84268895D01*
X103840201Y-84264453D01*
X103875649Y-84215121D01*
X103879822Y-84208176D01*
X103975164Y-84015268D01*
X103978144Y-84007744D01*
X104040700Y-83801847D01*
X104042410Y-83793935D01*
X104070682Y-83579184D01*
X104071092Y-83573920D01*
X104072589Y-83512641D01*
X104072438Y-83507371D01*
X104054690Y-83291489D01*
X104053368Y-83283504D01*
X104000946Y-83074809D01*
X103998333Y-83067133D01*
X103912530Y-82869798D01*
X103908710Y-82862672D01*
X103841740Y-82759153D01*
X103831549Y-82750871D01*
X103823975Y-82755235D01*
X103080296Y-83498914D01*
X103074242Y-83510797D01*
X102344946Y-83510797D01*
X102345758Y-83509203D01*
X102344962Y-83504172D01*
X101598123Y-82757333D01*
X101586240Y-82751279D01*
X101585941Y-82751326D01*
X101580015Y-82756542D01*
X101527466Y-82833575D01*
X101525026Y-82837871D01*
X101479845Y-82879131D01*
X101419042Y-82885954D01*
X101365840Y-82855734D01*
X101355822Y-82842749D01*
X101301743Y-82759155D01*
X101291549Y-82750871D01*
X101283975Y-82755235D01*
X100540296Y-83498914D01*
X100534242Y-83510797D01*
X99855344Y-83510797D01*
X99862588Y-83465055D01*
X99880794Y-83439996D01*
X100925115Y-82395675D01*
X100931169Y-82383792D01*
X100930830Y-82381652D01*
X100927796Y-82377951D01*
X100927268Y-82377534D01*
X100920527Y-82373055D01*
X100732141Y-82269060D01*
X100724749Y-82265738D01*
X100521920Y-82193912D01*
X100514081Y-82191841D01*
X100444589Y-82179463D01*
X100390616Y-82150644D01*
X100363890Y-82095605D01*
X100374619Y-82035367D01*
X100418706Y-81992941D01*
X100435327Y-81986644D01*
X100479867Y-81974208D01*
X100551725Y-81954145D01*
X100556038Y-81951966D01*
X100556044Y-81951964D01*
X100731289Y-81863441D01*
X100731291Y-81863440D01*
X100735610Y-81861258D01*
X100770943Y-81833653D01*
X100894135Y-81737406D01*
X100894139Y-81737402D01*
X100897951Y-81734424D01*
X101032564Y-81578472D01*
X101051231Y-81545613D01*
X101131934Y-81403550D01*
X101131935Y-81403547D01*
X101134323Y-81399344D01*
X101147882Y-81358586D01*
X101197824Y-81208454D01*
X101197824Y-81208452D01*
X101199351Y-81203863D01*
X101225171Y-80999474D01*
X101225583Y-80970000D01*
X101224138Y-80955262D01*
X101654520Y-80955262D01*
X101671759Y-81160553D01*
X101728544Y-81358586D01*
X101822712Y-81541818D01*
X101950677Y-81703270D01*
X101954357Y-81706402D01*
X101954359Y-81706404D01*
X102024153Y-81765803D01*
X102107564Y-81836791D01*
X102111787Y-81839151D01*
X102111791Y-81839154D01*
X102151342Y-81861258D01*
X102287398Y-81937297D01*
X102441944Y-81987512D01*
X102491444Y-82023476D01*
X102510351Y-82081667D01*
X102491444Y-82139858D01*
X102441944Y-82175822D01*
X102426327Y-82179528D01*
X102398226Y-82183828D01*
X102390341Y-82185707D01*
X102185807Y-82252558D01*
X102178350Y-82255693D01*
X101987482Y-82355053D01*
X101980623Y-82359372D01*
X101957726Y-82376564D01*
X101950058Y-82387475D01*
X101950082Y-82388994D01*
X101953193Y-82393983D01*
X102698914Y-83139704D01*
X102710797Y-83145758D01*
X102715828Y-83144962D01*
X103465115Y-82395675D01*
X103471169Y-82383792D01*
X103470830Y-82381652D01*
X103467796Y-82377951D01*
X103467268Y-82377534D01*
X103460527Y-82373055D01*
X103272141Y-82269060D01*
X103264749Y-82265738D01*
X103061920Y-82193912D01*
X103054081Y-82191841D01*
X102984589Y-82179463D01*
X102930616Y-82150644D01*
X102903890Y-82095605D01*
X102914619Y-82035367D01*
X102958706Y-81992941D01*
X102975327Y-81986644D01*
X103019867Y-81974208D01*
X103091725Y-81954145D01*
X103096038Y-81951966D01*
X103096044Y-81951964D01*
X103271289Y-81863441D01*
X103271291Y-81863440D01*
X103275610Y-81861258D01*
X103310943Y-81833653D01*
X103434135Y-81737406D01*
X103434139Y-81737402D01*
X103437951Y-81734424D01*
X103572564Y-81578472D01*
X103591231Y-81545613D01*
X103671934Y-81403550D01*
X103671935Y-81403547D01*
X103674323Y-81399344D01*
X103687882Y-81358586D01*
X103737824Y-81208454D01*
X103737824Y-81208452D01*
X103739351Y-81203863D01*
X103765171Y-80999474D01*
X103765583Y-80970000D01*
X103763667Y-80950454D01*
X103745952Y-80769780D01*
X103745951Y-80769776D01*
X103745480Y-80764970D01*
X103685935Y-80567749D01*
X103589218Y-80385849D01*
X103459011Y-80226200D01*
X103423567Y-80196878D01*
X103304002Y-80097965D01*
X103304000Y-80097964D01*
X103300275Y-80094882D01*
X103119055Y-79996897D01*
X103055855Y-79977333D01*
X102926875Y-79937407D01*
X102926871Y-79937406D01*
X102922254Y-79935977D01*
X102917446Y-79935472D01*
X102917443Y-79935471D01*
X102722185Y-79914949D01*
X102722183Y-79914949D01*
X102717369Y-79914443D01*
X102657354Y-79919905D01*
X102517022Y-79932675D01*
X102517017Y-79932676D01*
X102512203Y-79933114D01*
X102314572Y-79991280D01*
X102310288Y-79993519D01*
X102310287Y-79993520D01*
X102299428Y-79999197D01*
X102132002Y-80086726D01*
X102128231Y-80089758D01*
X101975220Y-80212781D01*
X101975217Y-80212783D01*
X101971447Y-80215815D01*
X101968333Y-80219526D01*
X101968332Y-80219527D01*
X101959585Y-80229952D01*
X101839024Y-80373630D01*
X101836689Y-80377878D01*
X101836688Y-80377879D01*
X101829955Y-80390126D01*
X101739776Y-80554162D01*
X101677484Y-80750532D01*
X101676944Y-80755344D01*
X101676944Y-80755345D01*
X101661567Y-80892439D01*
X101654520Y-80955262D01*
X101224138Y-80955262D01*
X101223667Y-80950454D01*
X101205952Y-80769780D01*
X101205951Y-80769776D01*
X101205480Y-80764970D01*
X101145935Y-80567749D01*
X101049218Y-80385849D01*
X100919011Y-80226200D01*
X100883567Y-80196878D01*
X100764002Y-80097965D01*
X100764000Y-80097964D01*
X100760275Y-80094882D01*
X100579055Y-79996897D01*
X100515855Y-79977333D01*
X100386875Y-79937407D01*
X100386871Y-79937406D01*
X100382254Y-79935977D01*
X100377446Y-79935472D01*
X100377443Y-79935471D01*
X100182185Y-79914949D01*
X100182183Y-79914949D01*
X100177369Y-79914443D01*
X100117354Y-79919905D01*
X99977022Y-79932675D01*
X99977017Y-79932676D01*
X99972203Y-79933114D01*
X99774572Y-79991280D01*
X99770288Y-79993519D01*
X99770287Y-79993520D01*
X99759428Y-79999197D01*
X99592002Y-80086726D01*
X99588231Y-80089758D01*
X99482023Y-80175151D01*
X99424825Y-80196878D01*
X99365780Y-80180836D01*
X99327441Y-80133151D01*
X99320989Y-80097996D01*
X99320989Y-79301195D01*
X99339896Y-79243004D01*
X99389396Y-79207040D01*
X99450582Y-79207040D01*
X99484153Y-79225803D01*
X99563876Y-79293653D01*
X99563881Y-79293656D01*
X99567564Y-79296791D01*
X99571787Y-79299151D01*
X99571791Y-79299154D01*
X99611342Y-79321258D01*
X99747398Y-79397297D01*
X99751996Y-79398791D01*
X99938724Y-79459463D01*
X99938726Y-79459464D01*
X99943329Y-79460959D01*
X100147894Y-79485351D01*
X100152716Y-79484980D01*
X100152719Y-79484980D01*
X100220541Y-79479761D01*
X100353300Y-79469546D01*
X100551725Y-79414145D01*
X100556038Y-79411966D01*
X100556044Y-79411964D01*
X100731289Y-79323441D01*
X100731291Y-79323440D01*
X100735610Y-79321258D01*
X100770943Y-79293653D01*
X100894135Y-79197406D01*
X100894139Y-79197402D01*
X100897951Y-79194424D01*
X101032564Y-79038472D01*
X101051231Y-79005613D01*
X101131934Y-78863550D01*
X101131935Y-78863547D01*
X101134323Y-78859344D01*
X101147882Y-78818586D01*
X101197824Y-78668454D01*
X101197824Y-78668452D01*
X101199351Y-78663863D01*
X101225171Y-78459474D01*
X101225583Y-78430000D01*
X101224138Y-78415262D01*
X101654520Y-78415262D01*
X101671759Y-78620553D01*
X101728544Y-78818586D01*
X101822712Y-79001818D01*
X101950677Y-79163270D01*
X101954357Y-79166402D01*
X101954359Y-79166404D01*
X102024153Y-79225803D01*
X102107564Y-79296791D01*
X102111787Y-79299151D01*
X102111791Y-79299154D01*
X102151342Y-79321258D01*
X102287398Y-79397297D01*
X102291996Y-79398791D01*
X102478724Y-79459463D01*
X102478726Y-79459464D01*
X102483329Y-79460959D01*
X102687894Y-79485351D01*
X102692716Y-79484980D01*
X102692719Y-79484980D01*
X102760541Y-79479761D01*
X102893300Y-79469546D01*
X103091725Y-79414145D01*
X103096038Y-79411966D01*
X103096044Y-79411964D01*
X103271289Y-79323441D01*
X103271291Y-79323440D01*
X103275610Y-79321258D01*
X103310943Y-79293653D01*
X103434135Y-79197406D01*
X103434139Y-79197402D01*
X103437951Y-79194424D01*
X103572564Y-79038472D01*
X103591231Y-79005613D01*
X103671934Y-78863550D01*
X103671935Y-78863547D01*
X103674323Y-78859344D01*
X103687882Y-78818586D01*
X103737824Y-78668454D01*
X103737824Y-78668452D01*
X103739351Y-78663863D01*
X103765171Y-78459474D01*
X103765583Y-78430000D01*
X103745480Y-78224970D01*
X103685935Y-78027749D01*
X103589218Y-77845849D01*
X103459011Y-77686200D01*
X103423567Y-77656878D01*
X103304002Y-77557965D01*
X103304000Y-77557964D01*
X103300275Y-77554882D01*
X103119055Y-77456897D01*
X103065038Y-77440176D01*
X102982061Y-77414490D01*
X102932063Y-77379220D01*
X102912346Y-77321299D01*
X102930439Y-77262850D01*
X102979432Y-77226199D01*
X102990752Y-77223081D01*
X102997202Y-77221710D01*
X103203304Y-77159876D01*
X103210852Y-77156918D01*
X103404090Y-77062252D01*
X103411045Y-77058105D01*
X103461229Y-77022309D01*
X103469163Y-77011587D01*
X103469170Y-77010724D01*
X103465554Y-77004764D01*
X102721086Y-76260296D01*
X102709203Y-76254242D01*
X102704172Y-76255038D01*
X101955011Y-77004199D01*
X101949387Y-77015238D01*
X101956207Y-77022462D01*
X102117713Y-77116838D01*
X102125008Y-77120334D01*
X102326038Y-77197099D01*
X102333808Y-77199357D01*
X102437991Y-77220553D01*
X102491244Y-77250682D01*
X102516618Y-77306359D01*
X102504419Y-77366316D01*
X102459309Y-77407652D01*
X102446206Y-77412538D01*
X102314572Y-77451280D01*
X102310288Y-77453519D01*
X102310287Y-77453520D01*
X102299428Y-77459197D01*
X102132002Y-77546726D01*
X102128231Y-77549758D01*
X101975220Y-77672781D01*
X101975217Y-77672783D01*
X101971447Y-77675815D01*
X101968333Y-77679526D01*
X101968332Y-77679527D01*
X101959585Y-77689952D01*
X101839024Y-77833630D01*
X101836689Y-77837878D01*
X101836688Y-77837879D01*
X101829955Y-77850126D01*
X101739776Y-78014162D01*
X101677484Y-78210532D01*
X101676944Y-78215344D01*
X101676944Y-78215345D01*
X101675865Y-78224970D01*
X101654520Y-78415262D01*
X101224138Y-78415262D01*
X101205480Y-78224970D01*
X101145935Y-78027749D01*
X101049218Y-77845849D01*
X100919011Y-77686200D01*
X100883567Y-77656878D01*
X100764002Y-77557965D01*
X100764000Y-77557964D01*
X100760275Y-77554882D01*
X100579055Y-77456897D01*
X100525038Y-77440176D01*
X100442061Y-77414490D01*
X100392063Y-77379220D01*
X100372346Y-77321299D01*
X100390439Y-77262850D01*
X100439432Y-77226199D01*
X100450752Y-77223081D01*
X100457202Y-77221710D01*
X100663304Y-77159876D01*
X100670852Y-77156918D01*
X100864090Y-77062252D01*
X100871045Y-77058105D01*
X100921229Y-77022309D01*
X100929163Y-77011587D01*
X100929170Y-77010724D01*
X100925554Y-77004764D01*
X99880794Y-75960004D01*
X99853017Y-75905487D01*
X99855344Y-75890797D01*
X100534242Y-75890797D01*
X100535038Y-75895828D01*
X101282200Y-76642990D01*
X101294083Y-76649044D01*
X101295028Y-76648895D01*
X101300201Y-76644453D01*
X101335649Y-76595121D01*
X101339822Y-76588176D01*
X101351990Y-76563557D01*
X101394723Y-76519767D01*
X101455033Y-76509458D01*
X101509885Y-76536568D01*
X101525153Y-76555694D01*
X101577732Y-76641496D01*
X101587419Y-76649769D01*
X101595605Y-76645185D01*
X102339704Y-75901086D01*
X102344946Y-75890797D01*
X103074242Y-75890797D01*
X103075038Y-75895828D01*
X103822200Y-76642990D01*
X103834083Y-76649044D01*
X103835028Y-76648895D01*
X103840201Y-76644453D01*
X103875649Y-76595121D01*
X103879822Y-76588176D01*
X103975164Y-76395268D01*
X103978144Y-76387744D01*
X104040700Y-76181847D01*
X104042410Y-76173935D01*
X104070682Y-75959184D01*
X104071092Y-75953920D01*
X104072589Y-75892641D01*
X104072438Y-75887371D01*
X104054690Y-75671489D01*
X104053368Y-75663504D01*
X104000946Y-75454809D01*
X103998333Y-75447133D01*
X103912530Y-75249798D01*
X103908710Y-75242672D01*
X103841740Y-75139153D01*
X103831549Y-75130871D01*
X103823975Y-75135235D01*
X103080296Y-75878914D01*
X103074242Y-75890797D01*
X102344946Y-75890797D01*
X102345758Y-75889203D01*
X102344962Y-75884172D01*
X101598123Y-75137333D01*
X101586240Y-75131279D01*
X101585941Y-75131326D01*
X101580015Y-75136542D01*
X101527466Y-75213575D01*
X101525026Y-75217871D01*
X101479845Y-75259131D01*
X101419042Y-75265954D01*
X101365840Y-75235734D01*
X101355822Y-75222749D01*
X101301743Y-75139155D01*
X101291549Y-75130871D01*
X101283975Y-75135235D01*
X100540296Y-75878914D01*
X100534242Y-75890797D01*
X99855344Y-75890797D01*
X99862588Y-75845055D01*
X99880794Y-75819996D01*
X100925115Y-74775675D01*
X100931169Y-74763792D01*
X100930830Y-74761652D01*
X100927796Y-74757951D01*
X100927268Y-74757534D01*
X100920527Y-74753055D01*
X100732141Y-74649060D01*
X100724749Y-74645738D01*
X100521920Y-74573912D01*
X100514081Y-74571841D01*
X100444589Y-74559463D01*
X100390616Y-74530644D01*
X100363890Y-74475605D01*
X100374619Y-74415367D01*
X100418706Y-74372941D01*
X100435327Y-74366644D01*
X100479867Y-74354208D01*
X100551725Y-74334145D01*
X100556038Y-74331966D01*
X100556044Y-74331964D01*
X100731289Y-74243441D01*
X100731291Y-74243440D01*
X100735610Y-74241258D01*
X100770943Y-74213653D01*
X100894135Y-74117406D01*
X100894139Y-74117402D01*
X100897951Y-74114424D01*
X100923511Y-74084812D01*
X100975847Y-74053116D01*
X100998454Y-74050500D01*
X101877665Y-74050500D01*
X101935856Y-74069407D01*
X101948182Y-74080122D01*
X101950677Y-74083270D01*
X101954364Y-74086407D01*
X101954365Y-74086409D01*
X101987283Y-74114424D01*
X102107564Y-74216791D01*
X102111787Y-74219151D01*
X102111791Y-74219154D01*
X102151342Y-74241258D01*
X102287398Y-74317297D01*
X102441944Y-74367512D01*
X102491444Y-74403476D01*
X102510351Y-74461667D01*
X102491444Y-74519858D01*
X102441944Y-74555822D01*
X102426327Y-74559528D01*
X102398226Y-74563828D01*
X102390341Y-74565707D01*
X102185807Y-74632558D01*
X102178350Y-74635693D01*
X101987482Y-74735053D01*
X101980623Y-74739372D01*
X101957726Y-74756564D01*
X101950058Y-74767475D01*
X101950082Y-74768994D01*
X101953193Y-74773983D01*
X102698914Y-75519704D01*
X102710797Y-75525758D01*
X102715828Y-75524962D01*
X103465115Y-74775675D01*
X103471169Y-74763792D01*
X103470830Y-74761652D01*
X103467796Y-74757951D01*
X103467268Y-74757534D01*
X103460527Y-74753055D01*
X103272141Y-74649060D01*
X103264749Y-74645738D01*
X103061920Y-74573912D01*
X103054081Y-74571841D01*
X102984589Y-74559463D01*
X102930616Y-74530644D01*
X102903890Y-74475605D01*
X102914619Y-74415367D01*
X102958706Y-74372941D01*
X102975327Y-74366644D01*
X103019867Y-74354208D01*
X103091725Y-74334145D01*
X103096038Y-74331966D01*
X103096044Y-74331964D01*
X103271289Y-74243441D01*
X103271291Y-74243440D01*
X103275610Y-74241258D01*
X103310943Y-74213653D01*
X103434135Y-74117406D01*
X103434139Y-74117402D01*
X103437951Y-74114424D01*
X103572564Y-73958472D01*
X103674323Y-73779344D01*
X103739351Y-73583863D01*
X103765171Y-73379474D01*
X103765583Y-73350000D01*
X103745480Y-73144970D01*
X103685935Y-72947749D01*
X103589218Y-72765849D01*
X103459011Y-72606200D01*
X103300275Y-72474882D01*
X103119055Y-72376897D01*
X103065038Y-72360176D01*
X102982061Y-72334490D01*
X102932063Y-72299220D01*
X102912346Y-72241299D01*
X102930439Y-72182850D01*
X102979432Y-72146199D01*
X102990752Y-72143081D01*
X102997202Y-72141710D01*
X103203304Y-72079876D01*
X103210852Y-72076918D01*
X103404090Y-71982252D01*
X103411045Y-71978105D01*
X103461229Y-71942309D01*
X103469163Y-71931587D01*
X103469170Y-71930724D01*
X103465554Y-71924764D01*
X102721086Y-71180296D01*
X102709203Y-71174242D01*
X102704172Y-71175038D01*
X101955011Y-71924199D01*
X101949387Y-71935238D01*
X101956207Y-71942462D01*
X102117713Y-72036838D01*
X102125008Y-72040334D01*
X102326038Y-72117099D01*
X102333808Y-72119357D01*
X102437991Y-72140553D01*
X102491244Y-72170682D01*
X102516618Y-72226359D01*
X102504419Y-72286316D01*
X102459309Y-72327652D01*
X102446206Y-72332538D01*
X102314572Y-72371280D01*
X102310288Y-72373519D01*
X102310287Y-72373520D01*
X102299428Y-72379197D01*
X102132002Y-72466726D01*
X102128231Y-72469758D01*
X101975220Y-72592781D01*
X101975217Y-72592783D01*
X101971447Y-72595815D01*
X101956073Y-72614137D01*
X101904187Y-72646559D01*
X101880236Y-72649500D01*
X101001334Y-72649500D01*
X100943143Y-72630593D01*
X100924618Y-72613075D01*
X100919011Y-72606200D01*
X100760275Y-72474882D01*
X100579055Y-72376897D01*
X100525038Y-72360176D01*
X100442061Y-72334490D01*
X100392063Y-72299220D01*
X100372346Y-72241299D01*
X100390439Y-72182850D01*
X100439432Y-72146199D01*
X100450752Y-72143081D01*
X100457202Y-72141710D01*
X100663304Y-72079876D01*
X100670852Y-72076918D01*
X100864090Y-71982252D01*
X100871045Y-71978105D01*
X100921229Y-71942309D01*
X100929163Y-71931587D01*
X100929170Y-71930724D01*
X100925554Y-71924764D01*
X100181086Y-71180296D01*
X100169203Y-71174242D01*
X100164172Y-71175038D01*
X99415011Y-71924199D01*
X99409387Y-71935238D01*
X99416207Y-71942462D01*
X99577713Y-72036838D01*
X99585008Y-72040334D01*
X99786038Y-72117099D01*
X99793808Y-72119357D01*
X99897991Y-72140553D01*
X99951244Y-72170682D01*
X99976618Y-72226359D01*
X99964419Y-72286316D01*
X99919309Y-72327652D01*
X99906206Y-72332538D01*
X99774572Y-72371280D01*
X99770288Y-72373519D01*
X99770287Y-72373520D01*
X99759428Y-72379197D01*
X99592002Y-72466726D01*
X99588231Y-72469758D01*
X99435220Y-72592781D01*
X99435217Y-72592783D01*
X99431447Y-72595815D01*
X99428333Y-72599526D01*
X99428332Y-72599527D01*
X99388868Y-72646559D01*
X99299024Y-72753630D01*
X99296689Y-72757878D01*
X99296688Y-72757879D01*
X99289955Y-72770126D01*
X99199776Y-72934162D01*
X99137484Y-73130532D01*
X99136944Y-73135344D01*
X99136944Y-73135345D01*
X99135865Y-73144970D01*
X99114520Y-73335262D01*
X99114925Y-73340082D01*
X99116838Y-73362866D01*
X99102866Y-73422435D01*
X99088189Y-73441154D01*
X98144754Y-74384589D01*
X98139830Y-74389188D01*
X98096093Y-74427342D01*
X98062174Y-74475605D01*
X98059392Y-74479563D01*
X98056301Y-74483725D01*
X98027969Y-74519858D01*
X98016905Y-74533968D01*
X98014447Y-74539411D01*
X98014447Y-74539412D01*
X98013122Y-74542346D01*
X98003887Y-74558539D01*
X97998602Y-74566058D01*
X97996435Y-74571617D01*
X97996433Y-74571620D01*
X97975411Y-74625538D01*
X97973403Y-74630314D01*
X97966439Y-74645738D01*
X97947134Y-74688495D01*
X97946047Y-74694362D01*
X97945458Y-74697537D01*
X97940356Y-74715449D01*
X97937013Y-74724024D01*
X97930437Y-74773983D01*
X97928681Y-74787319D01*
X97927873Y-74792425D01*
X97916237Y-74855203D01*
X97916581Y-74861165D01*
X97919825Y-74917435D01*
X97919989Y-74923133D01*
X97919989Y-89552760D01*
X97919760Y-89559494D01*
X97915811Y-89617419D01*
X97916836Y-89623290D01*
X97916836Y-89623295D01*
X97926787Y-89680309D01*
X97927544Y-89685436D01*
X97932006Y-89722309D01*
X97935213Y-89748809D01*
X97937322Y-89754390D01*
X97938467Y-89757421D01*
X97943381Y-89775384D01*
X97944962Y-89784443D01*
X97947362Y-89789910D01*
X97970619Y-89842893D01*
X97972577Y-89847691D01*
X97991247Y-89897099D01*
X97995144Y-89907412D01*
X97998522Y-89912327D01*
X97998526Y-89912335D01*
X98000354Y-89914994D01*
X98009412Y-89931267D01*
X98013110Y-89939691D01*
X98016741Y-89944423D01*
X98016744Y-89944428D01*
X98051976Y-89990343D01*
X98055022Y-89994535D01*
X98063149Y-90006359D01*
X98091177Y-90047140D01*
X98095630Y-90051107D01*
X98095633Y-90051111D01*
X98137715Y-90088604D01*
X98141861Y-90092517D01*
X99086106Y-91036762D01*
X99113883Y-91091279D01*
X99115092Y-91108152D01*
X99115060Y-91110449D01*
X99114520Y-91115262D01*
X99114925Y-91120084D01*
X99116838Y-91142866D01*
X99102866Y-91202435D01*
X99088189Y-91221154D01*
X98144754Y-92164589D01*
X98139830Y-92169188D01*
X98096093Y-92207342D01*
X98062174Y-92255605D01*
X98059392Y-92259563D01*
X98056301Y-92263725D01*
X98027969Y-92299858D01*
X98016905Y-92313968D01*
X98014447Y-92319411D01*
X98014447Y-92319412D01*
X98013122Y-92322346D01*
X98003887Y-92338539D01*
X97998602Y-92346058D01*
X97996435Y-92351617D01*
X97996433Y-92351620D01*
X97975411Y-92405538D01*
X97973403Y-92410314D01*
X97966439Y-92425738D01*
X97947134Y-92468495D01*
X97946047Y-92474362D01*
X97945458Y-92477537D01*
X97940356Y-92495449D01*
X97937013Y-92504024D01*
X97930437Y-92553983D01*
X97928681Y-92567319D01*
X97927873Y-92572425D01*
X97916237Y-92635203D01*
X97916581Y-92641165D01*
X97919825Y-92697435D01*
X97919989Y-92703133D01*
X97919989Y-114952760D01*
X97919760Y-114959494D01*
X97915811Y-115017419D01*
X91910500Y-115017419D01*
X91910500Y-70780759D01*
X98807987Y-70780759D01*
X98820374Y-70995596D01*
X98821499Y-71003602D01*
X98868807Y-71213524D01*
X98871231Y-71221258D01*
X98952183Y-71420620D01*
X98955840Y-71427860D01*
X99037732Y-71561496D01*
X99047419Y-71569769D01*
X99055605Y-71565185D01*
X99799704Y-70821086D01*
X99804946Y-70810797D01*
X100534242Y-70810797D01*
X100535038Y-70815828D01*
X101282200Y-71562990D01*
X101294083Y-71569044D01*
X101295028Y-71568895D01*
X101300201Y-71564453D01*
X101335649Y-71515121D01*
X101339822Y-71508176D01*
X101351990Y-71483557D01*
X101394723Y-71439767D01*
X101455033Y-71429458D01*
X101509885Y-71456568D01*
X101525153Y-71475694D01*
X101577732Y-71561496D01*
X101587419Y-71569769D01*
X101595605Y-71565185D01*
X102339704Y-70821086D01*
X102344946Y-70810797D01*
X103074242Y-70810797D01*
X103075038Y-70815828D01*
X103822200Y-71562990D01*
X103834083Y-71569044D01*
X103835028Y-71568895D01*
X103840201Y-71564453D01*
X103875649Y-71515121D01*
X103879822Y-71508176D01*
X103975164Y-71315268D01*
X103978144Y-71307744D01*
X104040700Y-71101847D01*
X104042410Y-71093935D01*
X104070682Y-70879184D01*
X104071092Y-70873920D01*
X104072589Y-70812641D01*
X104072438Y-70807371D01*
X104054690Y-70591489D01*
X104053368Y-70583504D01*
X104000946Y-70374809D01*
X103998333Y-70367133D01*
X103912530Y-70169798D01*
X103908710Y-70162672D01*
X103841740Y-70059153D01*
X103831549Y-70050871D01*
X103823975Y-70055235D01*
X103080296Y-70798914D01*
X103074242Y-70810797D01*
X102344946Y-70810797D01*
X102345758Y-70809203D01*
X102344962Y-70804172D01*
X101598123Y-70057333D01*
X101586240Y-70051279D01*
X101585941Y-70051326D01*
X101580015Y-70056542D01*
X101527466Y-70133575D01*
X101525026Y-70137871D01*
X101479845Y-70179131D01*
X101419042Y-70185954D01*
X101365840Y-70155734D01*
X101355822Y-70142749D01*
X101301743Y-70059155D01*
X101291549Y-70050871D01*
X101283975Y-70055235D01*
X100540296Y-70798914D01*
X100534242Y-70810797D01*
X99804946Y-70810797D01*
X99805758Y-70809203D01*
X99804962Y-70804172D01*
X99058123Y-70057333D01*
X99046240Y-70051279D01*
X99045941Y-70051326D01*
X99040015Y-70056542D01*
X98987466Y-70133575D01*
X98983468Y-70140613D01*
X98892871Y-70335790D01*
X98890073Y-70343394D01*
X98832570Y-70550740D01*
X98831049Y-70558714D01*
X98808185Y-70772668D01*
X98807987Y-70780759D01*
X91910500Y-70780759D01*
X91910500Y-68255262D01*
X99114520Y-68255262D01*
X99131759Y-68460553D01*
X99188544Y-68658586D01*
X99282712Y-68841818D01*
X99410677Y-69003270D01*
X99414357Y-69006402D01*
X99414359Y-69006404D01*
X99527017Y-69102283D01*
X99567564Y-69136791D01*
X99571787Y-69139151D01*
X99571791Y-69139154D01*
X99611342Y-69161258D01*
X99747398Y-69237297D01*
X99901944Y-69287512D01*
X99951444Y-69323476D01*
X99970351Y-69381667D01*
X99951444Y-69439858D01*
X99901944Y-69475822D01*
X99886327Y-69479528D01*
X99858226Y-69483828D01*
X99850341Y-69485707D01*
X99645807Y-69552558D01*
X99638350Y-69555693D01*
X99447482Y-69655053D01*
X99440623Y-69659372D01*
X99417726Y-69676564D01*
X99410058Y-69687475D01*
X99410082Y-69688994D01*
X99413193Y-69693983D01*
X100158914Y-70439704D01*
X100170797Y-70445758D01*
X100175828Y-70444962D01*
X100925115Y-69695675D01*
X100931169Y-69683792D01*
X100930830Y-69681652D01*
X100927796Y-69677951D01*
X100927268Y-69677534D01*
X100920527Y-69673055D01*
X100732141Y-69569060D01*
X100724749Y-69565738D01*
X100521920Y-69493912D01*
X100514081Y-69491841D01*
X100444589Y-69479463D01*
X100390616Y-69450644D01*
X100363890Y-69395605D01*
X100374619Y-69335367D01*
X100418706Y-69292941D01*
X100435327Y-69286644D01*
X100479867Y-69274208D01*
X100551725Y-69254145D01*
X100556038Y-69251966D01*
X100556044Y-69251964D01*
X100731289Y-69163441D01*
X100731291Y-69163440D01*
X100735610Y-69161258D01*
X100770943Y-69133653D01*
X100894135Y-69037406D01*
X100894139Y-69037402D01*
X100897951Y-69034424D01*
X100923511Y-69004812D01*
X100975847Y-68973116D01*
X100998454Y-68970500D01*
X101877665Y-68970500D01*
X101935856Y-68989407D01*
X101948182Y-69000122D01*
X101950677Y-69003270D01*
X101954364Y-69006407D01*
X101954365Y-69006409D01*
X101987283Y-69034424D01*
X102107564Y-69136791D01*
X102111787Y-69139151D01*
X102111791Y-69139154D01*
X102151342Y-69161258D01*
X102287398Y-69237297D01*
X102441944Y-69287512D01*
X102491444Y-69323476D01*
X102510351Y-69381667D01*
X102491444Y-69439858D01*
X102441944Y-69475822D01*
X102426327Y-69479528D01*
X102398226Y-69483828D01*
X102390341Y-69485707D01*
X102185807Y-69552558D01*
X102178350Y-69555693D01*
X101987482Y-69655053D01*
X101980623Y-69659372D01*
X101957726Y-69676564D01*
X101950058Y-69687475D01*
X101950082Y-69688994D01*
X101953193Y-69693983D01*
X102698914Y-70439704D01*
X102710797Y-70445758D01*
X102715828Y-70444962D01*
X103465115Y-69695675D01*
X103471169Y-69683792D01*
X103470830Y-69681652D01*
X103467796Y-69677951D01*
X103467268Y-69677534D01*
X103460527Y-69673055D01*
X103272141Y-69569060D01*
X103264749Y-69565738D01*
X103061920Y-69493912D01*
X103054081Y-69491841D01*
X102984589Y-69479463D01*
X102930616Y-69450644D01*
X102903890Y-69395605D01*
X102914619Y-69335367D01*
X102958706Y-69292941D01*
X102975327Y-69286644D01*
X103019867Y-69274208D01*
X103091725Y-69254145D01*
X103096038Y-69251966D01*
X103096044Y-69251964D01*
X103271289Y-69163441D01*
X103271291Y-69163440D01*
X103275610Y-69161258D01*
X103310943Y-69133653D01*
X103434135Y-69037406D01*
X103434139Y-69037402D01*
X103437951Y-69034424D01*
X103572564Y-68878472D01*
X103591231Y-68845613D01*
X103671934Y-68703550D01*
X103671935Y-68703547D01*
X103674323Y-68699344D01*
X103687882Y-68658586D01*
X103737824Y-68508454D01*
X103737824Y-68508452D01*
X103739351Y-68503863D01*
X103765171Y-68299474D01*
X103765583Y-68270000D01*
X103745480Y-68064970D01*
X103685935Y-67867749D01*
X103589218Y-67685849D01*
X103459011Y-67526200D01*
X103300275Y-67394882D01*
X103119055Y-67296897D01*
X103055855Y-67277333D01*
X102926875Y-67237407D01*
X102926871Y-67237406D01*
X102922254Y-67235977D01*
X102917446Y-67235472D01*
X102917443Y-67235471D01*
X102722185Y-67214949D01*
X102722183Y-67214949D01*
X102717369Y-67214443D01*
X102657354Y-67219905D01*
X102517022Y-67232675D01*
X102517017Y-67232676D01*
X102512203Y-67233114D01*
X102314572Y-67291280D01*
X102310288Y-67293519D01*
X102310287Y-67293520D01*
X102299428Y-67299197D01*
X102132002Y-67386726D01*
X102128231Y-67389758D01*
X101975220Y-67512781D01*
X101975217Y-67512783D01*
X101971447Y-67515815D01*
X101956073Y-67534137D01*
X101904187Y-67566559D01*
X101880236Y-67569500D01*
X101001334Y-67569500D01*
X100943143Y-67550593D01*
X100924618Y-67533075D01*
X100919011Y-67526200D01*
X100760275Y-67394882D01*
X100579055Y-67296897D01*
X100515855Y-67277333D01*
X100386875Y-67237407D01*
X100386871Y-67237406D01*
X100382254Y-67235977D01*
X100377446Y-67235472D01*
X100377443Y-67235471D01*
X100182185Y-67214949D01*
X100182183Y-67214949D01*
X100177369Y-67214443D01*
X100117354Y-67219905D01*
X99977022Y-67232675D01*
X99977017Y-67232676D01*
X99972203Y-67233114D01*
X99774572Y-67291280D01*
X99770288Y-67293519D01*
X99770287Y-67293520D01*
X99759428Y-67299197D01*
X99592002Y-67386726D01*
X99588231Y-67389758D01*
X99435220Y-67512781D01*
X99435217Y-67512783D01*
X99431447Y-67515815D01*
X99428333Y-67519526D01*
X99428332Y-67519527D01*
X99388868Y-67566559D01*
X99299024Y-67673630D01*
X99296689Y-67677878D01*
X99296688Y-67677879D01*
X99289955Y-67690126D01*
X99199776Y-67854162D01*
X99137484Y-68050532D01*
X99136944Y-68055344D01*
X99136944Y-68055345D01*
X99135865Y-68064970D01*
X99114520Y-68255262D01*
X91910500Y-68255262D01*
X91910500Y-64637095D01*
X99840028Y-64637095D01*
X99840368Y-64640657D01*
X99840368Y-64640664D01*
X99857922Y-64824648D01*
X99865534Y-64904431D01*
X99929364Y-65165285D01*
X100030182Y-65414192D01*
X100165875Y-65645938D01*
X100168110Y-65648733D01*
X100168113Y-65648737D01*
X100222296Y-65716489D01*
X100333601Y-65855669D01*
X100529846Y-66038991D01*
X100750499Y-66192064D01*
X100872066Y-66252542D01*
X100987723Y-66310081D01*
X100987728Y-66310083D01*
X100990938Y-66311680D01*
X100994349Y-66312798D01*
X100994351Y-66312799D01*
X101242721Y-66394219D01*
X101242724Y-66394220D01*
X101246126Y-66395335D01*
X101510717Y-66441276D01*
X101559761Y-66443717D01*
X101594335Y-66445439D01*
X101594348Y-66445439D01*
X101595567Y-66445500D01*
X101763223Y-66445500D01*
X101962846Y-66431016D01*
X102225080Y-66373120D01*
X102228429Y-66371851D01*
X102228433Y-66371850D01*
X102330087Y-66333337D01*
X102476211Y-66277975D01*
X102630879Y-66192064D01*
X102707837Y-66149318D01*
X102707841Y-66149315D01*
X102710976Y-66147574D01*
X102850575Y-66041036D01*
X102921607Y-65986826D01*
X102921609Y-65986825D01*
X102924458Y-65984650D01*
X103112185Y-65792614D01*
X103270225Y-65575491D01*
X103395265Y-65337828D01*
X103484688Y-65084603D01*
X103520904Y-64900861D01*
X103535925Y-64824648D01*
X103536620Y-64821122D01*
X103549972Y-64552905D01*
X103549632Y-64549343D01*
X103549632Y-64549336D01*
X103524807Y-64289139D01*
X103524806Y-64289134D01*
X103524466Y-64285569D01*
X103460636Y-64024715D01*
X103359818Y-63775808D01*
X103347502Y-63754773D01*
X103225936Y-63547155D01*
X103224125Y-63544062D01*
X103193514Y-63505784D01*
X103058634Y-63337126D01*
X103056399Y-63334331D01*
X102860154Y-63151009D01*
X102639501Y-62997936D01*
X102466812Y-62912025D01*
X102402277Y-62879919D01*
X102402272Y-62879917D01*
X102399062Y-62878320D01*
X102215515Y-62818150D01*
X102147279Y-62795781D01*
X102147276Y-62795780D01*
X102143874Y-62794665D01*
X101879283Y-62748724D01*
X101830239Y-62746283D01*
X101795665Y-62744561D01*
X101795652Y-62744561D01*
X101794433Y-62744500D01*
X101626777Y-62744500D01*
X101427154Y-62758984D01*
X101164920Y-62816880D01*
X101161571Y-62818149D01*
X101161567Y-62818150D01*
X101059913Y-62856663D01*
X100913789Y-62912025D01*
X100783411Y-62984444D01*
X100682163Y-63040682D01*
X100682159Y-63040685D01*
X100679024Y-63042426D01*
X100676174Y-63044601D01*
X100676171Y-63044603D01*
X100468393Y-63203174D01*
X100465542Y-63205350D01*
X100277815Y-63397386D01*
X100119775Y-63614509D01*
X99994735Y-63852172D01*
X99905312Y-64105397D01*
X99904618Y-64108919D01*
X99904617Y-64108922D01*
X99859479Y-64337934D01*
X99853380Y-64368878D01*
X99840028Y-64637095D01*
X91910500Y-64637095D01*
X91910500Y-54759500D01*
X91929407Y-54701309D01*
X91978907Y-54665345D01*
X92009500Y-54660500D01*
X100788055Y-54660500D01*
X100846246Y-54679407D01*
G37*
%TD.AperFunction*%
%TD*%
M02*
