%TF.GenerationSoftware,KiCad,Pcbnew,(6.0.5)*%
%TF.CreationDate,2022-12-11T20:22:43+11:00*%
%TF.ProjectId,Battery Board,42617474-6572-4792-9042-6f6172642e6b,1*%
%TF.SameCoordinates,Original*%
%TF.FileFunction,Soldermask,Bot*%
%TF.FilePolarity,Negative*%
%FSLAX46Y46*%
G04 Gerber Fmt 4.6, Leading zero omitted, Abs format (unit mm)*
G04 Created by KiCad (PCBNEW (6.0.5)) date 2022-12-11 20:22:43*
%MOMM*%
%LPD*%
G01*
G04 APERTURE LIST*
%ADD10C,2.000000*%
%ADD11C,1.700000*%
%ADD12C,3.200000*%
%ADD13C,2.400000*%
G04 APERTURE END LIST*
D10*
%TO.C,R8*%
X130650000Y-133400000D03*
X130650000Y-51400000D03*
X88650000Y-92400000D03*
X173650000Y-92400000D03*
D11*
X100170000Y-68270000D03*
X100170000Y-70810000D03*
X100170000Y-73350000D03*
X100170000Y-75890000D03*
X100170000Y-78430000D03*
X100170000Y-80970000D03*
X100170000Y-83510000D03*
X100170000Y-86050000D03*
X100170000Y-88590000D03*
X100170000Y-91130000D03*
X100170000Y-93670000D03*
X100170000Y-96210000D03*
X100170000Y-98750000D03*
X100170000Y-101290000D03*
X100170000Y-103830000D03*
X100170000Y-106370000D03*
X100170000Y-108910000D03*
X100170000Y-111450000D03*
X100170000Y-113990000D03*
X100170000Y-116530000D03*
X102710000Y-116530000D03*
X102710000Y-113990000D03*
X102710000Y-111450000D03*
X102710000Y-108910000D03*
X102710000Y-106370000D03*
X102710000Y-103830000D03*
X102710000Y-101290000D03*
X102710000Y-98750000D03*
X102710000Y-96210000D03*
X102710000Y-93670000D03*
X102710000Y-91130000D03*
X102710000Y-88590000D03*
X102710000Y-86050000D03*
X102710000Y-83510000D03*
X102710000Y-80970000D03*
X102710000Y-78430000D03*
X102710000Y-75890000D03*
X102710000Y-73350000D03*
X102710000Y-70810000D03*
X102710000Y-68270000D03*
%TD*%
D12*
%TO.C,BT1*%
X140300000Y-64595000D03*
X159605000Y-64595000D03*
X101695000Y-64595000D03*
X101695000Y-120205000D03*
X140300000Y-120205000D03*
X159605000Y-120205000D03*
X121000000Y-120205000D03*
X121000000Y-64595000D03*
D13*
X101700000Y-128850000D03*
X101700000Y-55950000D03*
X121000000Y-128850000D03*
X121000000Y-55950000D03*
X140300000Y-128850000D03*
X140300000Y-55950000D03*
X159600000Y-128850000D03*
X159600000Y-55950000D03*
%TD*%
M02*
