%TF.GenerationSoftware,KiCad,Pcbnew,(6.0.5)*%
%TF.CreationDate,2022-12-15T19:20:58+11:00*%
%TF.ProjectId,Battery Board,42617474-6572-4792-9042-6f6172642e6b,1*%
%TF.SameCoordinates,Original*%
%TF.FileFunction,Legend,Top*%
%TF.FilePolarity,Positive*%
%FSLAX46Y46*%
G04 Gerber Fmt 4.6, Leading zero omitted, Abs format (unit mm)*
G04 Created by KiCad (PCBNEW (6.0.5)) date 2022-12-15 19:20:58*
%MOMM*%
%LPD*%
G01*
G04 APERTURE LIST*
%ADD10C,0.150000*%
%ADD11C,0.120000*%
%ADD12C,0.200000*%
%ADD13C,0.127000*%
G04 APERTURE END LIST*
D10*
X151233333Y-134104761D02*
X151376190Y-134152380D01*
X151614285Y-134152380D01*
X151709523Y-134104761D01*
X151757142Y-134057142D01*
X151804761Y-133961904D01*
X151804761Y-133866666D01*
X151757142Y-133771428D01*
X151709523Y-133723809D01*
X151614285Y-133676190D01*
X151423809Y-133628571D01*
X151328571Y-133580952D01*
X151280952Y-133533333D01*
X151233333Y-133438095D01*
X151233333Y-133342857D01*
X151280952Y-133247619D01*
X151328571Y-133200000D01*
X151423809Y-133152380D01*
X151661904Y-133152380D01*
X151804761Y-133200000D01*
X152661904Y-134152380D02*
X152661904Y-133628571D01*
X152614285Y-133533333D01*
X152519047Y-133485714D01*
X152328571Y-133485714D01*
X152233333Y-133533333D01*
X152661904Y-134104761D02*
X152566666Y-134152380D01*
X152328571Y-134152380D01*
X152233333Y-134104761D01*
X152185714Y-134009523D01*
X152185714Y-133914285D01*
X152233333Y-133819047D01*
X152328571Y-133771428D01*
X152566666Y-133771428D01*
X152661904Y-133723809D01*
X153138095Y-134152380D02*
X153138095Y-133485714D01*
X153138095Y-133580952D02*
X153185714Y-133533333D01*
X153280952Y-133485714D01*
X153423809Y-133485714D01*
X153519047Y-133533333D01*
X153566666Y-133628571D01*
X153566666Y-134152380D01*
X153566666Y-133628571D02*
X153614285Y-133533333D01*
X153709523Y-133485714D01*
X153852380Y-133485714D01*
X153947619Y-133533333D01*
X153995238Y-133628571D01*
X153995238Y-134152380D01*
X155804761Y-134057142D02*
X155757142Y-134104761D01*
X155614285Y-134152380D01*
X155519047Y-134152380D01*
X155376190Y-134104761D01*
X155280952Y-134009523D01*
X155233333Y-133914285D01*
X155185714Y-133723809D01*
X155185714Y-133580952D01*
X155233333Y-133390476D01*
X155280952Y-133295238D01*
X155376190Y-133200000D01*
X155519047Y-133152380D01*
X155614285Y-133152380D01*
X155757142Y-133200000D01*
X155804761Y-133247619D01*
X156233333Y-134152380D02*
X156233333Y-133152380D01*
X156661904Y-134152380D02*
X156661904Y-133628571D01*
X156614285Y-133533333D01*
X156519047Y-133485714D01*
X156376190Y-133485714D01*
X156280952Y-133533333D01*
X156233333Y-133580952D01*
X157566666Y-134152380D02*
X157566666Y-133628571D01*
X157519047Y-133533333D01*
X157423809Y-133485714D01*
X157233333Y-133485714D01*
X157138095Y-133533333D01*
X157566666Y-134104761D02*
X157471428Y-134152380D01*
X157233333Y-134152380D01*
X157138095Y-134104761D01*
X157090476Y-134009523D01*
X157090476Y-133914285D01*
X157138095Y-133819047D01*
X157233333Y-133771428D01*
X157471428Y-133771428D01*
X157566666Y-133723809D01*
X158042857Y-133485714D02*
X158042857Y-134485714D01*
X158042857Y-133533333D02*
X158138095Y-133485714D01*
X158328571Y-133485714D01*
X158423809Y-133533333D01*
X158471428Y-133580952D01*
X158519047Y-133676190D01*
X158519047Y-133961904D01*
X158471428Y-134057142D01*
X158423809Y-134104761D01*
X158328571Y-134152380D01*
X158138095Y-134152380D01*
X158042857Y-134104761D01*
X158947619Y-134152380D02*
X158947619Y-133485714D01*
X158947619Y-133580952D02*
X158995238Y-133533333D01*
X159090476Y-133485714D01*
X159233333Y-133485714D01*
X159328571Y-133533333D01*
X159376190Y-133628571D01*
X159376190Y-134152380D01*
X159376190Y-133628571D02*
X159423809Y-133533333D01*
X159519047Y-133485714D01*
X159661904Y-133485714D01*
X159757142Y-133533333D01*
X159804761Y-133628571D01*
X159804761Y-134152380D01*
X160709523Y-134152380D02*
X160709523Y-133628571D01*
X160661904Y-133533333D01*
X160566666Y-133485714D01*
X160376190Y-133485714D01*
X160280952Y-133533333D01*
X160709523Y-134104761D02*
X160614285Y-134152380D01*
X160376190Y-134152380D01*
X160280952Y-134104761D01*
X160233333Y-134009523D01*
X160233333Y-133914285D01*
X160280952Y-133819047D01*
X160376190Y-133771428D01*
X160614285Y-133771428D01*
X160709523Y-133723809D01*
X161185714Y-133485714D02*
X161185714Y-134152380D01*
X161185714Y-133580952D02*
X161233333Y-133533333D01*
X161328571Y-133485714D01*
X161471428Y-133485714D01*
X161566666Y-133533333D01*
X161614285Y-133628571D01*
X161614285Y-134152380D01*
X162852380Y-134057142D02*
X162900000Y-134104761D01*
X162852380Y-134152380D01*
X162804761Y-134104761D01*
X162852380Y-134057142D01*
X162852380Y-134152380D01*
X162852380Y-133533333D02*
X162900000Y-133580952D01*
X162852380Y-133628571D01*
X162804761Y-133580952D01*
X162852380Y-133533333D01*
X162852380Y-133628571D01*
X163233333Y-134533333D02*
X163280952Y-134485714D01*
X163376190Y-134342857D01*
X163423809Y-134247619D01*
X163471428Y-134104761D01*
X163519047Y-133866666D01*
X163519047Y-133676190D01*
X163471428Y-133438095D01*
X163423809Y-133295238D01*
X163376190Y-133200000D01*
X163280952Y-133057142D01*
X163233333Y-133009523D01*
X153433333Y-51404761D02*
X153576190Y-51452380D01*
X153814285Y-51452380D01*
X153909523Y-51404761D01*
X153957142Y-51357142D01*
X154004761Y-51261904D01*
X154004761Y-51166666D01*
X153957142Y-51071428D01*
X153909523Y-51023809D01*
X153814285Y-50976190D01*
X153623809Y-50928571D01*
X153528571Y-50880952D01*
X153480952Y-50833333D01*
X153433333Y-50738095D01*
X153433333Y-50642857D01*
X153480952Y-50547619D01*
X153528571Y-50500000D01*
X153623809Y-50452380D01*
X153861904Y-50452380D01*
X154004761Y-50500000D01*
X154861904Y-51452380D02*
X154861904Y-50928571D01*
X154814285Y-50833333D01*
X154719047Y-50785714D01*
X154528571Y-50785714D01*
X154433333Y-50833333D01*
X154861904Y-51404761D02*
X154766666Y-51452380D01*
X154528571Y-51452380D01*
X154433333Y-51404761D01*
X154385714Y-51309523D01*
X154385714Y-51214285D01*
X154433333Y-51119047D01*
X154528571Y-51071428D01*
X154766666Y-51071428D01*
X154861904Y-51023809D01*
X155338095Y-51452380D02*
X155338095Y-50785714D01*
X155338095Y-50880952D02*
X155385714Y-50833333D01*
X155480952Y-50785714D01*
X155623809Y-50785714D01*
X155719047Y-50833333D01*
X155766666Y-50928571D01*
X155766666Y-51452380D01*
X155766666Y-50928571D02*
X155814285Y-50833333D01*
X155909523Y-50785714D01*
X156052380Y-50785714D01*
X156147619Y-50833333D01*
X156195238Y-50928571D01*
X156195238Y-51452380D01*
X158004761Y-51357142D02*
X157957142Y-51404761D01*
X157814285Y-51452380D01*
X157719047Y-51452380D01*
X157576190Y-51404761D01*
X157480952Y-51309523D01*
X157433333Y-51214285D01*
X157385714Y-51023809D01*
X157385714Y-50880952D01*
X157433333Y-50690476D01*
X157480952Y-50595238D01*
X157576190Y-50500000D01*
X157719047Y-50452380D01*
X157814285Y-50452380D01*
X157957142Y-50500000D01*
X158004761Y-50547619D01*
X158433333Y-51452380D02*
X158433333Y-50452380D01*
X158861904Y-51452380D02*
X158861904Y-50928571D01*
X158814285Y-50833333D01*
X158719047Y-50785714D01*
X158576190Y-50785714D01*
X158480952Y-50833333D01*
X158433333Y-50880952D01*
X159766666Y-51452380D02*
X159766666Y-50928571D01*
X159719047Y-50833333D01*
X159623809Y-50785714D01*
X159433333Y-50785714D01*
X159338095Y-50833333D01*
X159766666Y-51404761D02*
X159671428Y-51452380D01*
X159433333Y-51452380D01*
X159338095Y-51404761D01*
X159290476Y-51309523D01*
X159290476Y-51214285D01*
X159338095Y-51119047D01*
X159433333Y-51071428D01*
X159671428Y-51071428D01*
X159766666Y-51023809D01*
X160242857Y-50785714D02*
X160242857Y-51785714D01*
X160242857Y-50833333D02*
X160338095Y-50785714D01*
X160528571Y-50785714D01*
X160623809Y-50833333D01*
X160671428Y-50880952D01*
X160719047Y-50976190D01*
X160719047Y-51261904D01*
X160671428Y-51357142D01*
X160623809Y-51404761D01*
X160528571Y-51452380D01*
X160338095Y-51452380D01*
X160242857Y-51404761D01*
X161147619Y-51452380D02*
X161147619Y-50785714D01*
X161147619Y-50880952D02*
X161195238Y-50833333D01*
X161290476Y-50785714D01*
X161433333Y-50785714D01*
X161528571Y-50833333D01*
X161576190Y-50928571D01*
X161576190Y-51452380D01*
X161576190Y-50928571D02*
X161623809Y-50833333D01*
X161719047Y-50785714D01*
X161861904Y-50785714D01*
X161957142Y-50833333D01*
X162004761Y-50928571D01*
X162004761Y-51452380D01*
X162909523Y-51452380D02*
X162909523Y-50928571D01*
X162861904Y-50833333D01*
X162766666Y-50785714D01*
X162576190Y-50785714D01*
X162480952Y-50833333D01*
X162909523Y-51404761D02*
X162814285Y-51452380D01*
X162576190Y-51452380D01*
X162480952Y-51404761D01*
X162433333Y-51309523D01*
X162433333Y-51214285D01*
X162480952Y-51119047D01*
X162576190Y-51071428D01*
X162814285Y-51071428D01*
X162909523Y-51023809D01*
X163385714Y-50785714D02*
X163385714Y-51452380D01*
X163385714Y-50880952D02*
X163433333Y-50833333D01*
X163528571Y-50785714D01*
X163671428Y-50785714D01*
X163766666Y-50833333D01*
X163814285Y-50928571D01*
X163814285Y-51452380D01*
X165052380Y-51357142D02*
X165100000Y-51404761D01*
X165052380Y-51452380D01*
X165004761Y-51404761D01*
X165052380Y-51357142D01*
X165052380Y-51452380D01*
X165052380Y-50833333D02*
X165100000Y-50880952D01*
X165052380Y-50928571D01*
X165004761Y-50880952D01*
X165052380Y-50833333D01*
X165052380Y-50928571D01*
X165433333Y-51833333D02*
X165480952Y-51785714D01*
X165576190Y-51642857D01*
X165623809Y-51547619D01*
X165671428Y-51404761D01*
X165719047Y-51166666D01*
X165719047Y-50976190D01*
X165671428Y-50738095D01*
X165623809Y-50595238D01*
X165576190Y-50500000D01*
X165480952Y-50357142D01*
X165433333Y-50309523D01*
X102766666Y-51452380D02*
X102433333Y-50976190D01*
X102195238Y-51452380D02*
X102195238Y-50452380D01*
X102576190Y-50452380D01*
X102671428Y-50500000D01*
X102719047Y-50547619D01*
X102766666Y-50642857D01*
X102766666Y-50785714D01*
X102719047Y-50880952D01*
X102671428Y-50928571D01*
X102576190Y-50976190D01*
X102195238Y-50976190D01*
X103338095Y-51452380D02*
X103242857Y-51404761D01*
X103195238Y-51357142D01*
X103147619Y-51261904D01*
X103147619Y-50976190D01*
X103195238Y-50880952D01*
X103242857Y-50833333D01*
X103338095Y-50785714D01*
X103480952Y-50785714D01*
X103576190Y-50833333D01*
X103623809Y-50880952D01*
X103671428Y-50976190D01*
X103671428Y-51261904D01*
X103623809Y-51357142D01*
X103576190Y-51404761D01*
X103480952Y-51452380D01*
X103338095Y-51452380D01*
X104528571Y-51404761D02*
X104433333Y-51452380D01*
X104242857Y-51452380D01*
X104147619Y-51404761D01*
X104100000Y-51357142D01*
X104052380Y-51261904D01*
X104052380Y-50976190D01*
X104100000Y-50880952D01*
X104147619Y-50833333D01*
X104242857Y-50785714D01*
X104433333Y-50785714D01*
X104528571Y-50833333D01*
X104957142Y-51452380D02*
X104957142Y-50452380D01*
X105052380Y-51071428D02*
X105338095Y-51452380D01*
X105338095Y-50785714D02*
X104957142Y-51166666D01*
X106147619Y-51404761D02*
X106052380Y-51452380D01*
X105861904Y-51452380D01*
X105766666Y-51404761D01*
X105719047Y-51309523D01*
X105719047Y-50928571D01*
X105766666Y-50833333D01*
X105861904Y-50785714D01*
X106052380Y-50785714D01*
X106147619Y-50833333D01*
X106195238Y-50928571D01*
X106195238Y-51023809D01*
X105719047Y-51119047D01*
X106480952Y-50785714D02*
X106861904Y-50785714D01*
X106623809Y-50452380D02*
X106623809Y-51309523D01*
X106671428Y-51404761D01*
X106766666Y-51452380D01*
X106861904Y-51452380D01*
X107957142Y-51452380D02*
X107957142Y-50452380D01*
X108338095Y-50452380D01*
X108433333Y-50500000D01*
X108480952Y-50547619D01*
X108528571Y-50642857D01*
X108528571Y-50785714D01*
X108480952Y-50880952D01*
X108433333Y-50928571D01*
X108338095Y-50976190D01*
X107957142Y-50976190D01*
X109100000Y-51452380D02*
X109004761Y-51404761D01*
X108957142Y-51357142D01*
X108909523Y-51261904D01*
X108909523Y-50976190D01*
X108957142Y-50880952D01*
X109004761Y-50833333D01*
X109100000Y-50785714D01*
X109242857Y-50785714D01*
X109338095Y-50833333D01*
X109385714Y-50880952D01*
X109433333Y-50976190D01*
X109433333Y-51261904D01*
X109385714Y-51357142D01*
X109338095Y-51404761D01*
X109242857Y-51452380D01*
X109100000Y-51452380D01*
X109766666Y-50785714D02*
X109957142Y-51452380D01*
X110147619Y-50976190D01*
X110338095Y-51452380D01*
X110528571Y-50785714D01*
X111290476Y-51404761D02*
X111195238Y-51452380D01*
X111004761Y-51452380D01*
X110909523Y-51404761D01*
X110861904Y-51309523D01*
X110861904Y-50928571D01*
X110909523Y-50833333D01*
X111004761Y-50785714D01*
X111195238Y-50785714D01*
X111290476Y-50833333D01*
X111338095Y-50928571D01*
X111338095Y-51023809D01*
X110861904Y-51119047D01*
X111766666Y-51452380D02*
X111766666Y-50785714D01*
X111766666Y-50976190D02*
X111814285Y-50880952D01*
X111861904Y-50833333D01*
X111957142Y-50785714D01*
X112052380Y-50785714D01*
X113480952Y-50928571D02*
X113623809Y-50976190D01*
X113671428Y-51023809D01*
X113719047Y-51119047D01*
X113719047Y-51261904D01*
X113671428Y-51357142D01*
X113623809Y-51404761D01*
X113528571Y-51452380D01*
X113147619Y-51452380D01*
X113147619Y-50452380D01*
X113480952Y-50452380D01*
X113576190Y-50500000D01*
X113623809Y-50547619D01*
X113671428Y-50642857D01*
X113671428Y-50738095D01*
X113623809Y-50833333D01*
X113576190Y-50880952D01*
X113480952Y-50928571D01*
X113147619Y-50928571D01*
X114290476Y-51452380D02*
X114195238Y-51404761D01*
X114147619Y-51357142D01*
X114100000Y-51261904D01*
X114100000Y-50976190D01*
X114147619Y-50880952D01*
X114195238Y-50833333D01*
X114290476Y-50785714D01*
X114433333Y-50785714D01*
X114528571Y-50833333D01*
X114576190Y-50880952D01*
X114623809Y-50976190D01*
X114623809Y-51261904D01*
X114576190Y-51357142D01*
X114528571Y-51404761D01*
X114433333Y-51452380D01*
X114290476Y-51452380D01*
X115480952Y-51452380D02*
X115480952Y-50928571D01*
X115433333Y-50833333D01*
X115338095Y-50785714D01*
X115147619Y-50785714D01*
X115052380Y-50833333D01*
X115480952Y-51404761D02*
X115385714Y-51452380D01*
X115147619Y-51452380D01*
X115052380Y-51404761D01*
X115004761Y-51309523D01*
X115004761Y-51214285D01*
X115052380Y-51119047D01*
X115147619Y-51071428D01*
X115385714Y-51071428D01*
X115480952Y-51023809D01*
X115957142Y-51452380D02*
X115957142Y-50785714D01*
X115957142Y-50976190D02*
X116004761Y-50880952D01*
X116052380Y-50833333D01*
X116147619Y-50785714D01*
X116242857Y-50785714D01*
X117004761Y-51452380D02*
X117004761Y-50452380D01*
X117004761Y-51404761D02*
X116909523Y-51452380D01*
X116719047Y-51452380D01*
X116623809Y-51404761D01*
X116576190Y-51357142D01*
X116528571Y-51261904D01*
X116528571Y-50976190D01*
X116576190Y-50880952D01*
X116623809Y-50833333D01*
X116719047Y-50785714D01*
X116909523Y-50785714D01*
X117004761Y-50833333D01*
X100566666Y-134152380D02*
X100233333Y-133676190D01*
X99995238Y-134152380D02*
X99995238Y-133152380D01*
X100376190Y-133152380D01*
X100471428Y-133200000D01*
X100519047Y-133247619D01*
X100566666Y-133342857D01*
X100566666Y-133485714D01*
X100519047Y-133580952D01*
X100471428Y-133628571D01*
X100376190Y-133676190D01*
X99995238Y-133676190D01*
X101138095Y-134152380D02*
X101042857Y-134104761D01*
X100995238Y-134057142D01*
X100947619Y-133961904D01*
X100947619Y-133676190D01*
X100995238Y-133580952D01*
X101042857Y-133533333D01*
X101138095Y-133485714D01*
X101280952Y-133485714D01*
X101376190Y-133533333D01*
X101423809Y-133580952D01*
X101471428Y-133676190D01*
X101471428Y-133961904D01*
X101423809Y-134057142D01*
X101376190Y-134104761D01*
X101280952Y-134152380D01*
X101138095Y-134152380D01*
X102328571Y-134104761D02*
X102233333Y-134152380D01*
X102042857Y-134152380D01*
X101947619Y-134104761D01*
X101900000Y-134057142D01*
X101852380Y-133961904D01*
X101852380Y-133676190D01*
X101900000Y-133580952D01*
X101947619Y-133533333D01*
X102042857Y-133485714D01*
X102233333Y-133485714D01*
X102328571Y-133533333D01*
X102757142Y-134152380D02*
X102757142Y-133152380D01*
X102852380Y-133771428D02*
X103138095Y-134152380D01*
X103138095Y-133485714D02*
X102757142Y-133866666D01*
X103947619Y-134104761D02*
X103852380Y-134152380D01*
X103661904Y-134152380D01*
X103566666Y-134104761D01*
X103519047Y-134009523D01*
X103519047Y-133628571D01*
X103566666Y-133533333D01*
X103661904Y-133485714D01*
X103852380Y-133485714D01*
X103947619Y-133533333D01*
X103995238Y-133628571D01*
X103995238Y-133723809D01*
X103519047Y-133819047D01*
X104280952Y-133485714D02*
X104661904Y-133485714D01*
X104423809Y-133152380D02*
X104423809Y-134009523D01*
X104471428Y-134104761D01*
X104566666Y-134152380D01*
X104661904Y-134152380D01*
X105757142Y-134152380D02*
X105757142Y-133152380D01*
X106138095Y-133152380D01*
X106233333Y-133200000D01*
X106280952Y-133247619D01*
X106328571Y-133342857D01*
X106328571Y-133485714D01*
X106280952Y-133580952D01*
X106233333Y-133628571D01*
X106138095Y-133676190D01*
X105757142Y-133676190D01*
X106900000Y-134152380D02*
X106804761Y-134104761D01*
X106757142Y-134057142D01*
X106709523Y-133961904D01*
X106709523Y-133676190D01*
X106757142Y-133580952D01*
X106804761Y-133533333D01*
X106900000Y-133485714D01*
X107042857Y-133485714D01*
X107138095Y-133533333D01*
X107185714Y-133580952D01*
X107233333Y-133676190D01*
X107233333Y-133961904D01*
X107185714Y-134057142D01*
X107138095Y-134104761D01*
X107042857Y-134152380D01*
X106900000Y-134152380D01*
X107566666Y-133485714D02*
X107757142Y-134152380D01*
X107947619Y-133676190D01*
X108138095Y-134152380D01*
X108328571Y-133485714D01*
X109090476Y-134104761D02*
X108995238Y-134152380D01*
X108804761Y-134152380D01*
X108709523Y-134104761D01*
X108661904Y-134009523D01*
X108661904Y-133628571D01*
X108709523Y-133533333D01*
X108804761Y-133485714D01*
X108995238Y-133485714D01*
X109090476Y-133533333D01*
X109138095Y-133628571D01*
X109138095Y-133723809D01*
X108661904Y-133819047D01*
X109566666Y-134152380D02*
X109566666Y-133485714D01*
X109566666Y-133676190D02*
X109614285Y-133580952D01*
X109661904Y-133533333D01*
X109757142Y-133485714D01*
X109852380Y-133485714D01*
X111280952Y-133628571D02*
X111423809Y-133676190D01*
X111471428Y-133723809D01*
X111519047Y-133819047D01*
X111519047Y-133961904D01*
X111471428Y-134057142D01*
X111423809Y-134104761D01*
X111328571Y-134152380D01*
X110947619Y-134152380D01*
X110947619Y-133152380D01*
X111280952Y-133152380D01*
X111376190Y-133200000D01*
X111423809Y-133247619D01*
X111471428Y-133342857D01*
X111471428Y-133438095D01*
X111423809Y-133533333D01*
X111376190Y-133580952D01*
X111280952Y-133628571D01*
X110947619Y-133628571D01*
X112090476Y-134152380D02*
X111995238Y-134104761D01*
X111947619Y-134057142D01*
X111900000Y-133961904D01*
X111900000Y-133676190D01*
X111947619Y-133580952D01*
X111995238Y-133533333D01*
X112090476Y-133485714D01*
X112233333Y-133485714D01*
X112328571Y-133533333D01*
X112376190Y-133580952D01*
X112423809Y-133676190D01*
X112423809Y-133961904D01*
X112376190Y-134057142D01*
X112328571Y-134104761D01*
X112233333Y-134152380D01*
X112090476Y-134152380D01*
X113280952Y-134152380D02*
X113280952Y-133628571D01*
X113233333Y-133533333D01*
X113138095Y-133485714D01*
X112947619Y-133485714D01*
X112852380Y-133533333D01*
X113280952Y-134104761D02*
X113185714Y-134152380D01*
X112947619Y-134152380D01*
X112852380Y-134104761D01*
X112804761Y-134009523D01*
X112804761Y-133914285D01*
X112852380Y-133819047D01*
X112947619Y-133771428D01*
X113185714Y-133771428D01*
X113280952Y-133723809D01*
X113757142Y-134152380D02*
X113757142Y-133485714D01*
X113757142Y-133676190D02*
X113804761Y-133580952D01*
X113852380Y-133533333D01*
X113947619Y-133485714D01*
X114042857Y-133485714D01*
X114804761Y-134152380D02*
X114804761Y-133152380D01*
X114804761Y-134104761D02*
X114709523Y-134152380D01*
X114519047Y-134152380D01*
X114423809Y-134104761D01*
X114376190Y-134057142D01*
X114328571Y-133961904D01*
X114328571Y-133676190D01*
X114376190Y-133580952D01*
X114423809Y-133533333D01*
X114519047Y-133485714D01*
X114709523Y-133485714D01*
X114804761Y-133533333D01*
%TO.C,C5*%
X130833333Y-58357142D02*
X130785714Y-58404761D01*
X130642857Y-58452380D01*
X130547619Y-58452380D01*
X130404761Y-58404761D01*
X130309523Y-58309523D01*
X130261904Y-58214285D01*
X130214285Y-58023809D01*
X130214285Y-57880952D01*
X130261904Y-57690476D01*
X130309523Y-57595238D01*
X130404761Y-57500000D01*
X130547619Y-57452380D01*
X130642857Y-57452380D01*
X130785714Y-57500000D01*
X130833333Y-57547619D01*
X131738095Y-57452380D02*
X131261904Y-57452380D01*
X131214285Y-57928571D01*
X131261904Y-57880952D01*
X131357142Y-57833333D01*
X131595238Y-57833333D01*
X131690476Y-57880952D01*
X131738095Y-57928571D01*
X131785714Y-58023809D01*
X131785714Y-58261904D01*
X131738095Y-58357142D01*
X131690476Y-58404761D01*
X131595238Y-58452380D01*
X131357142Y-58452380D01*
X131261904Y-58404761D01*
X131214285Y-58357142D01*
%TO.C,R_{SENSE}1*%
X142871428Y-89547619D02*
X143204761Y-90023809D01*
X143442857Y-89547619D02*
X143442857Y-90547619D01*
X143061904Y-90547619D01*
X142966666Y-90500000D01*
X142919047Y-90452380D01*
X142871428Y-90357142D01*
X142871428Y-90214285D01*
X142919047Y-90119047D01*
X142966666Y-90071428D01*
X143061904Y-90023809D01*
X143442857Y-90023809D01*
X142528571Y-89476190D02*
X142414285Y-89438095D01*
X142223809Y-89438095D01*
X142147619Y-89476190D01*
X142109523Y-89514285D01*
X142071428Y-89590476D01*
X142071428Y-89666666D01*
X142109523Y-89742857D01*
X142147619Y-89780952D01*
X142223809Y-89819047D01*
X142376190Y-89857142D01*
X142452380Y-89895238D01*
X142490476Y-89933333D01*
X142528571Y-90009523D01*
X142528571Y-90085714D01*
X142490476Y-90161904D01*
X142452380Y-90200000D01*
X142376190Y-90238095D01*
X142185714Y-90238095D01*
X142071428Y-90200000D01*
X141728571Y-89857142D02*
X141461904Y-89857142D01*
X141347619Y-89438095D02*
X141728571Y-89438095D01*
X141728571Y-90238095D01*
X141347619Y-90238095D01*
X141004761Y-89438095D02*
X141004761Y-90238095D01*
X140547619Y-89438095D01*
X140547619Y-90238095D01*
X140204761Y-89476190D02*
X140090476Y-89438095D01*
X139900000Y-89438095D01*
X139823809Y-89476190D01*
X139785714Y-89514285D01*
X139747619Y-89590476D01*
X139747619Y-89666666D01*
X139785714Y-89742857D01*
X139823809Y-89780952D01*
X139900000Y-89819047D01*
X140052380Y-89857142D01*
X140128571Y-89895238D01*
X140166666Y-89933333D01*
X140204761Y-90009523D01*
X140204761Y-90085714D01*
X140166666Y-90161904D01*
X140128571Y-90200000D01*
X140052380Y-90238095D01*
X139861904Y-90238095D01*
X139747619Y-90200000D01*
X139404761Y-89857142D02*
X139138095Y-89857142D01*
X139023809Y-89438095D02*
X139404761Y-89438095D01*
X139404761Y-90238095D01*
X139023809Y-90238095D01*
X138109523Y-89547619D02*
X138680952Y-89547619D01*
X138395238Y-89547619D02*
X138395238Y-90547619D01*
X138490476Y-90404761D01*
X138585714Y-90309523D01*
X138680952Y-90261904D01*
%TO.C,L1*%
X130866666Y-113447619D02*
X131342857Y-113447619D01*
X131342857Y-114447619D01*
X130009523Y-113447619D02*
X130580952Y-113447619D01*
X130295238Y-113447619D02*
X130295238Y-114447619D01*
X130390476Y-114304761D01*
X130485714Y-114209523D01*
X130580952Y-114161904D01*
%TO.C,C6*%
X150833333Y-58357142D02*
X150785714Y-58404761D01*
X150642857Y-58452380D01*
X150547619Y-58452380D01*
X150404761Y-58404761D01*
X150309523Y-58309523D01*
X150261904Y-58214285D01*
X150214285Y-58023809D01*
X150214285Y-57880952D01*
X150261904Y-57690476D01*
X150309523Y-57595238D01*
X150404761Y-57500000D01*
X150547619Y-57452380D01*
X150642857Y-57452380D01*
X150785714Y-57500000D01*
X150833333Y-57547619D01*
X151690476Y-57452380D02*
X151500000Y-57452380D01*
X151404761Y-57500000D01*
X151357142Y-57547619D01*
X151261904Y-57690476D01*
X151214285Y-57880952D01*
X151214285Y-58261904D01*
X151261904Y-58357142D01*
X151309523Y-58404761D01*
X151404761Y-58452380D01*
X151595238Y-58452380D01*
X151690476Y-58404761D01*
X151738095Y-58357142D01*
X151785714Y-58261904D01*
X151785714Y-58023809D01*
X151738095Y-57928571D01*
X151690476Y-57880952D01*
X151595238Y-57833333D01*
X151404761Y-57833333D01*
X151309523Y-57880952D01*
X151261904Y-57928571D01*
X151214285Y-58023809D01*
%TO.C,C_{IN}1*%
X138377542Y-105357142D02*
X138329923Y-105404761D01*
X138187066Y-105452380D01*
X138091828Y-105452380D01*
X137948971Y-105404761D01*
X137853733Y-105309523D01*
X137806113Y-105214285D01*
X137758494Y-105023809D01*
X137758494Y-104880952D01*
X137806113Y-104690476D01*
X137853733Y-104595238D01*
X137948971Y-104500000D01*
X138091828Y-104452380D01*
X138187066Y-104452380D01*
X138329923Y-104500000D01*
X138377542Y-104547619D01*
X138758494Y-105561904D02*
X138758494Y-104761904D01*
X139139447Y-105561904D02*
X139139447Y-104761904D01*
X139596590Y-105561904D01*
X139596590Y-104761904D01*
X140548971Y-105452380D02*
X139977542Y-105452380D01*
X140263256Y-105452380D02*
X140263256Y-104452380D01*
X140168018Y-104595238D01*
X140072780Y-104690476D01*
X139977542Y-104738095D01*
%TO.C,U1*%
X148438095Y-87252380D02*
X148438095Y-88061904D01*
X148485714Y-88157142D01*
X148533333Y-88204761D01*
X148628571Y-88252380D01*
X148819047Y-88252380D01*
X148914285Y-88204761D01*
X148961904Y-88157142D01*
X149009523Y-88061904D01*
X149009523Y-87252380D01*
X150009523Y-88252380D02*
X149438095Y-88252380D01*
X149723809Y-88252380D02*
X149723809Y-87252380D01*
X149628571Y-87395238D01*
X149533333Y-87490476D01*
X149438095Y-87538095D01*
%TO.C,C_{5OUT1}1*%
X127327142Y-93971428D02*
X127374761Y-94019047D01*
X127422380Y-94161904D01*
X127422380Y-94257142D01*
X127374761Y-94400000D01*
X127279523Y-94495238D01*
X127184285Y-94542857D01*
X126993809Y-94590476D01*
X126850952Y-94590476D01*
X126660476Y-94542857D01*
X126565238Y-94495238D01*
X126470000Y-94400000D01*
X126422380Y-94257142D01*
X126422380Y-94161904D01*
X126470000Y-94019047D01*
X126517619Y-93971428D01*
X126731904Y-93209523D02*
X126731904Y-93590476D01*
X127112857Y-93628571D01*
X127074761Y-93590476D01*
X127036666Y-93514285D01*
X127036666Y-93323809D01*
X127074761Y-93247619D01*
X127112857Y-93209523D01*
X127189047Y-93171428D01*
X127379523Y-93171428D01*
X127455714Y-93209523D01*
X127493809Y-93247619D01*
X127531904Y-93323809D01*
X127531904Y-93514285D01*
X127493809Y-93590476D01*
X127455714Y-93628571D01*
X126731904Y-92676190D02*
X126731904Y-92523809D01*
X126770000Y-92447619D01*
X126846190Y-92371428D01*
X126998571Y-92333333D01*
X127265238Y-92333333D01*
X127417619Y-92371428D01*
X127493809Y-92447619D01*
X127531904Y-92523809D01*
X127531904Y-92676190D01*
X127493809Y-92752380D01*
X127417619Y-92828571D01*
X127265238Y-92866666D01*
X126998571Y-92866666D01*
X126846190Y-92828571D01*
X126770000Y-92752380D01*
X126731904Y-92676190D01*
X126731904Y-91990476D02*
X127379523Y-91990476D01*
X127455714Y-91952380D01*
X127493809Y-91914285D01*
X127531904Y-91838095D01*
X127531904Y-91685714D01*
X127493809Y-91609523D01*
X127455714Y-91571428D01*
X127379523Y-91533333D01*
X126731904Y-91533333D01*
X126731904Y-91266666D02*
X126731904Y-90809523D01*
X127531904Y-91038095D02*
X126731904Y-91038095D01*
X127531904Y-90123809D02*
X127531904Y-90580952D01*
X127531904Y-90352380D02*
X126731904Y-90352380D01*
X126846190Y-90428571D01*
X126922380Y-90504761D01*
X126960476Y-90580952D01*
X127422380Y-89209523D02*
X127422380Y-89780952D01*
X127422380Y-89495238D02*
X126422380Y-89495238D01*
X126565238Y-89590476D01*
X126660476Y-89685714D01*
X126708095Y-89780952D01*
%TO.C,REG_{5}1*%
X131000000Y-94952380D02*
X130666666Y-94476190D01*
X130428571Y-94952380D02*
X130428571Y-93952380D01*
X130809523Y-93952380D01*
X130904761Y-94000000D01*
X130952380Y-94047619D01*
X131000000Y-94142857D01*
X131000000Y-94285714D01*
X130952380Y-94380952D01*
X130904761Y-94428571D01*
X130809523Y-94476190D01*
X130428571Y-94476190D01*
X131428571Y-94428571D02*
X131761904Y-94428571D01*
X131904761Y-94952380D02*
X131428571Y-94952380D01*
X131428571Y-93952380D01*
X131904761Y-93952380D01*
X132857142Y-94000000D02*
X132761904Y-93952380D01*
X132619047Y-93952380D01*
X132476190Y-94000000D01*
X132380952Y-94095238D01*
X132333333Y-94190476D01*
X132285714Y-94380952D01*
X132285714Y-94523809D01*
X132333333Y-94714285D01*
X132380952Y-94809523D01*
X132476190Y-94904761D01*
X132619047Y-94952380D01*
X132714285Y-94952380D01*
X132857142Y-94904761D01*
X132904761Y-94857142D01*
X132904761Y-94523809D01*
X132714285Y-94523809D01*
X133666666Y-94261904D02*
X133285714Y-94261904D01*
X133247619Y-94642857D01*
X133285714Y-94604761D01*
X133361904Y-94566666D01*
X133552380Y-94566666D01*
X133628571Y-94604761D01*
X133666666Y-94642857D01*
X133704761Y-94719047D01*
X133704761Y-94909523D01*
X133666666Y-94985714D01*
X133628571Y-95023809D01*
X133552380Y-95061904D01*
X133361904Y-95061904D01*
X133285714Y-95023809D01*
X133247619Y-94985714D01*
X134619047Y-94952380D02*
X134047619Y-94952380D01*
X134333333Y-94952380D02*
X134333333Y-93952380D01*
X134238095Y-94095238D01*
X134142857Y-94190476D01*
X134047619Y-94238095D01*
%TO.C,D1*%
X158889523Y-94272380D02*
X158249523Y-94272380D01*
X158249523Y-94120000D01*
X158280000Y-94028571D01*
X158340952Y-93967619D01*
X158401904Y-93937142D01*
X158523809Y-93906666D01*
X158615238Y-93906666D01*
X158737142Y-93937142D01*
X158798095Y-93967619D01*
X158859047Y-94028571D01*
X158889523Y-94120000D01*
X158889523Y-94272380D01*
X158889523Y-93297142D02*
X158889523Y-93662857D01*
X158889523Y-93480000D02*
X158249523Y-93480000D01*
X158340952Y-93540952D01*
X158401904Y-93601904D01*
X158432380Y-93662857D01*
%TO.C,D2*%
X128752380Y-106538095D02*
X127752380Y-106538095D01*
X127752380Y-106300000D01*
X127800000Y-106157142D01*
X127895238Y-106061904D01*
X127990476Y-106014285D01*
X128180952Y-105966666D01*
X128323809Y-105966666D01*
X128514285Y-106014285D01*
X128609523Y-106061904D01*
X128704761Y-106157142D01*
X128752380Y-106300000D01*
X128752380Y-106538095D01*
X127847619Y-105585714D02*
X127800000Y-105538095D01*
X127752380Y-105442857D01*
X127752380Y-105204761D01*
X127800000Y-105109523D01*
X127847619Y-105061904D01*
X127942857Y-105014285D01*
X128038095Y-105014285D01*
X128180952Y-105061904D01*
X128752380Y-105633333D01*
X128752380Y-105014285D01*
%TO.C,R7*%
X149482380Y-96142666D02*
X149006190Y-96476000D01*
X149482380Y-96714095D02*
X148482380Y-96714095D01*
X148482380Y-96333142D01*
X148530000Y-96237904D01*
X148577619Y-96190285D01*
X148672857Y-96142666D01*
X148815714Y-96142666D01*
X148910952Y-96190285D01*
X148958571Y-96237904D01*
X149006190Y-96333142D01*
X149006190Y-96714095D01*
X148482380Y-95809333D02*
X148482380Y-95142666D01*
X149482380Y-95571238D01*
%TO.C,C1*%
X149127333Y-94557142D02*
X149079714Y-94604761D01*
X148936857Y-94652380D01*
X148841619Y-94652380D01*
X148698761Y-94604761D01*
X148603523Y-94509523D01*
X148555904Y-94414285D01*
X148508285Y-94223809D01*
X148508285Y-94080952D01*
X148555904Y-93890476D01*
X148603523Y-93795238D01*
X148698761Y-93700000D01*
X148841619Y-93652380D01*
X148936857Y-93652380D01*
X149079714Y-93700000D01*
X149127333Y-93747619D01*
X150079714Y-94652380D02*
X149508285Y-94652380D01*
X149794000Y-94652380D02*
X149794000Y-93652380D01*
X149698761Y-93795238D01*
X149603523Y-93890476D01*
X149508285Y-93938095D01*
%TO.C,C_{5OUT2}1*%
X124527142Y-93971428D02*
X124574761Y-94019047D01*
X124622380Y-94161904D01*
X124622380Y-94257142D01*
X124574761Y-94400000D01*
X124479523Y-94495238D01*
X124384285Y-94542857D01*
X124193809Y-94590476D01*
X124050952Y-94590476D01*
X123860476Y-94542857D01*
X123765238Y-94495238D01*
X123670000Y-94400000D01*
X123622380Y-94257142D01*
X123622380Y-94161904D01*
X123670000Y-94019047D01*
X123717619Y-93971428D01*
X123931904Y-93209523D02*
X123931904Y-93590476D01*
X124312857Y-93628571D01*
X124274761Y-93590476D01*
X124236666Y-93514285D01*
X124236666Y-93323809D01*
X124274761Y-93247619D01*
X124312857Y-93209523D01*
X124389047Y-93171428D01*
X124579523Y-93171428D01*
X124655714Y-93209523D01*
X124693809Y-93247619D01*
X124731904Y-93323809D01*
X124731904Y-93514285D01*
X124693809Y-93590476D01*
X124655714Y-93628571D01*
X123931904Y-92676190D02*
X123931904Y-92523809D01*
X123970000Y-92447619D01*
X124046190Y-92371428D01*
X124198571Y-92333333D01*
X124465238Y-92333333D01*
X124617619Y-92371428D01*
X124693809Y-92447619D01*
X124731904Y-92523809D01*
X124731904Y-92676190D01*
X124693809Y-92752380D01*
X124617619Y-92828571D01*
X124465238Y-92866666D01*
X124198571Y-92866666D01*
X124046190Y-92828571D01*
X123970000Y-92752380D01*
X123931904Y-92676190D01*
X123931904Y-91990476D02*
X124579523Y-91990476D01*
X124655714Y-91952380D01*
X124693809Y-91914285D01*
X124731904Y-91838095D01*
X124731904Y-91685714D01*
X124693809Y-91609523D01*
X124655714Y-91571428D01*
X124579523Y-91533333D01*
X123931904Y-91533333D01*
X123931904Y-91266666D02*
X123931904Y-90809523D01*
X124731904Y-91038095D02*
X123931904Y-91038095D01*
X124008095Y-90580952D02*
X123970000Y-90542857D01*
X123931904Y-90466666D01*
X123931904Y-90276190D01*
X123970000Y-90200000D01*
X124008095Y-90161904D01*
X124084285Y-90123809D01*
X124160476Y-90123809D01*
X124274761Y-90161904D01*
X124731904Y-90619047D01*
X124731904Y-90123809D01*
X124622380Y-89209523D02*
X124622380Y-89780952D01*
X124622380Y-89495238D02*
X123622380Y-89495238D01*
X123765238Y-89590476D01*
X123860476Y-89685714D01*
X123908095Y-89780952D01*
%TO.C,R1*%
X160133333Y-85052380D02*
X159800000Y-84576190D01*
X159561904Y-85052380D02*
X159561904Y-84052380D01*
X159942857Y-84052380D01*
X160038095Y-84100000D01*
X160085714Y-84147619D01*
X160133333Y-84242857D01*
X160133333Y-84385714D01*
X160085714Y-84480952D01*
X160038095Y-84528571D01*
X159942857Y-84576190D01*
X159561904Y-84576190D01*
X161085714Y-85052380D02*
X160514285Y-85052380D01*
X160800000Y-85052380D02*
X160800000Y-84052380D01*
X160704761Y-84195238D01*
X160609523Y-84290476D01*
X160514285Y-84338095D01*
%TO.C,C_{3.3OUT}1*%
X114957142Y-87361904D02*
X115004761Y-87409523D01*
X115052380Y-87552380D01*
X115052380Y-87647619D01*
X115004761Y-87790476D01*
X114909523Y-87885714D01*
X114814285Y-87933333D01*
X114623809Y-87980952D01*
X114480952Y-87980952D01*
X114290476Y-87933333D01*
X114195238Y-87885714D01*
X114100000Y-87790476D01*
X114052380Y-87647619D01*
X114052380Y-87552380D01*
X114100000Y-87409523D01*
X114147619Y-87361904D01*
X114361904Y-87057142D02*
X114361904Y-86561904D01*
X114666666Y-86828571D01*
X114666666Y-86714285D01*
X114704761Y-86638095D01*
X114742857Y-86600000D01*
X114819047Y-86561904D01*
X115009523Y-86561904D01*
X115085714Y-86600000D01*
X115123809Y-86638095D01*
X115161904Y-86714285D01*
X115161904Y-86942857D01*
X115123809Y-87019047D01*
X115085714Y-87057142D01*
X115085714Y-86219047D02*
X115123809Y-86180952D01*
X115161904Y-86219047D01*
X115123809Y-86257142D01*
X115085714Y-86219047D01*
X115161904Y-86219047D01*
X114361904Y-85914285D02*
X114361904Y-85419047D01*
X114666666Y-85685714D01*
X114666666Y-85571428D01*
X114704761Y-85495238D01*
X114742857Y-85457142D01*
X114819047Y-85419047D01*
X115009523Y-85419047D01*
X115085714Y-85457142D01*
X115123809Y-85495238D01*
X115161904Y-85571428D01*
X115161904Y-85800000D01*
X115123809Y-85876190D01*
X115085714Y-85914285D01*
X114361904Y-84923809D02*
X114361904Y-84771428D01*
X114400000Y-84695238D01*
X114476190Y-84619047D01*
X114628571Y-84580952D01*
X114895238Y-84580952D01*
X115047619Y-84619047D01*
X115123809Y-84695238D01*
X115161904Y-84771428D01*
X115161904Y-84923809D01*
X115123809Y-85000000D01*
X115047619Y-85076190D01*
X114895238Y-85114285D01*
X114628571Y-85114285D01*
X114476190Y-85076190D01*
X114400000Y-85000000D01*
X114361904Y-84923809D01*
X114361904Y-84238095D02*
X115009523Y-84238095D01*
X115085714Y-84200000D01*
X115123809Y-84161904D01*
X115161904Y-84085714D01*
X115161904Y-83933333D01*
X115123809Y-83857142D01*
X115085714Y-83819047D01*
X115009523Y-83780952D01*
X114361904Y-83780952D01*
X114361904Y-83514285D02*
X114361904Y-83057142D01*
X115161904Y-83285714D02*
X114361904Y-83285714D01*
X115052380Y-82219047D02*
X115052380Y-82790476D01*
X115052380Y-82504761D02*
X114052380Y-82504761D01*
X114195238Y-82600000D01*
X114290476Y-82695238D01*
X114338095Y-82790476D01*
%TO.C,F_{5V}1*%
X120844921Y-90928571D02*
X120511587Y-90928571D01*
X120511587Y-91452380D02*
X120511587Y-90452380D01*
X120987778Y-90452380D01*
X121702064Y-90761904D02*
X121321111Y-90761904D01*
X121283016Y-91142857D01*
X121321111Y-91104761D01*
X121397302Y-91066666D01*
X121587778Y-91066666D01*
X121663968Y-91104761D01*
X121702064Y-91142857D01*
X121740159Y-91219047D01*
X121740159Y-91409523D01*
X121702064Y-91485714D01*
X121663968Y-91523809D01*
X121587778Y-91561904D01*
X121397302Y-91561904D01*
X121321111Y-91523809D01*
X121283016Y-91485714D01*
X121968730Y-90761904D02*
X122235397Y-91561904D01*
X122502064Y-90761904D01*
X123340159Y-91452380D02*
X122768730Y-91452380D01*
X123054444Y-91452380D02*
X123054444Y-90452380D01*
X122959206Y-90595238D01*
X122863968Y-90690476D01*
X122768730Y-90738095D01*
%TO.C,R3*%
X160333333Y-90152380D02*
X160000000Y-89676190D01*
X159761904Y-90152380D02*
X159761904Y-89152380D01*
X160142857Y-89152380D01*
X160238095Y-89200000D01*
X160285714Y-89247619D01*
X160333333Y-89342857D01*
X160333333Y-89485714D01*
X160285714Y-89580952D01*
X160238095Y-89628571D01*
X160142857Y-89676190D01*
X159761904Y-89676190D01*
X160666666Y-89152380D02*
X161285714Y-89152380D01*
X160952380Y-89533333D01*
X161095238Y-89533333D01*
X161190476Y-89580952D01*
X161238095Y-89628571D01*
X161285714Y-89723809D01*
X161285714Y-89961904D01*
X161238095Y-90057142D01*
X161190476Y-90104761D01*
X161095238Y-90152380D01*
X160809523Y-90152380D01*
X160714285Y-90104761D01*
X160666666Y-90057142D01*
%TO.C,R4*%
X154052380Y-92566666D02*
X153576190Y-92900000D01*
X154052380Y-93138095D02*
X153052380Y-93138095D01*
X153052380Y-92757142D01*
X153100000Y-92661904D01*
X153147619Y-92614285D01*
X153242857Y-92566666D01*
X153385714Y-92566666D01*
X153480952Y-92614285D01*
X153528571Y-92661904D01*
X153576190Y-92757142D01*
X153576190Y-93138095D01*
X153385714Y-91709523D02*
X154052380Y-91709523D01*
X153004761Y-91947619D02*
X153719047Y-92185714D01*
X153719047Y-91566666D01*
%TO.C,Q1*%
X143104761Y-97793619D02*
X143009523Y-97746000D01*
X142914285Y-97650761D01*
X142771428Y-97507904D01*
X142676190Y-97460285D01*
X142580952Y-97460285D01*
X142628571Y-97698380D02*
X142533333Y-97650761D01*
X142438095Y-97555523D01*
X142390476Y-97365047D01*
X142390476Y-97031714D01*
X142438095Y-96841238D01*
X142533333Y-96746000D01*
X142628571Y-96698380D01*
X142819047Y-96698380D01*
X142914285Y-96746000D01*
X143009523Y-96841238D01*
X143057142Y-97031714D01*
X143057142Y-97365047D01*
X143009523Y-97555523D01*
X142914285Y-97650761D01*
X142819047Y-97698380D01*
X142628571Y-97698380D01*
X144009523Y-97698380D02*
X143438095Y-97698380D01*
X143723809Y-97698380D02*
X143723809Y-96698380D01*
X143628571Y-96841238D01*
X143533333Y-96936476D01*
X143438095Y-96984095D01*
%TO.C,R5*%
X146833333Y-80952380D02*
X146500000Y-80476190D01*
X146261904Y-80952380D02*
X146261904Y-79952380D01*
X146642857Y-79952380D01*
X146738095Y-80000000D01*
X146785714Y-80047619D01*
X146833333Y-80142857D01*
X146833333Y-80285714D01*
X146785714Y-80380952D01*
X146738095Y-80428571D01*
X146642857Y-80476190D01*
X146261904Y-80476190D01*
X147738095Y-79952380D02*
X147261904Y-79952380D01*
X147214285Y-80428571D01*
X147261904Y-80380952D01*
X147357142Y-80333333D01*
X147595238Y-80333333D01*
X147690476Y-80380952D01*
X147738095Y-80428571D01*
X147785714Y-80523809D01*
X147785714Y-80761904D01*
X147738095Y-80857142D01*
X147690476Y-80904761D01*
X147595238Y-80952380D01*
X147357142Y-80952380D01*
X147261904Y-80904761D01*
X147214285Y-80857142D01*
%TO.C,C2*%
X153857142Y-82666666D02*
X153904761Y-82714285D01*
X153952380Y-82857142D01*
X153952380Y-82952380D01*
X153904761Y-83095238D01*
X153809523Y-83190476D01*
X153714285Y-83238095D01*
X153523809Y-83285714D01*
X153380952Y-83285714D01*
X153190476Y-83238095D01*
X153095238Y-83190476D01*
X153000000Y-83095238D01*
X152952380Y-82952380D01*
X152952380Y-82857142D01*
X153000000Y-82714285D01*
X153047619Y-82666666D01*
X153047619Y-82285714D02*
X153000000Y-82238095D01*
X152952380Y-82142857D01*
X152952380Y-81904761D01*
X153000000Y-81809523D01*
X153047619Y-81761904D01*
X153142857Y-81714285D01*
X153238095Y-81714285D01*
X153380952Y-81761904D01*
X153952380Y-82333333D01*
X153952380Y-81714285D01*
%TO.C,Q2*%
X147404761Y-103747619D02*
X147309523Y-103700000D01*
X147214285Y-103604761D01*
X147071428Y-103461904D01*
X146976190Y-103414285D01*
X146880952Y-103414285D01*
X146928571Y-103652380D02*
X146833333Y-103604761D01*
X146738095Y-103509523D01*
X146690476Y-103319047D01*
X146690476Y-102985714D01*
X146738095Y-102795238D01*
X146833333Y-102700000D01*
X146928571Y-102652380D01*
X147119047Y-102652380D01*
X147214285Y-102700000D01*
X147309523Y-102795238D01*
X147357142Y-102985714D01*
X147357142Y-103319047D01*
X147309523Y-103509523D01*
X147214285Y-103604761D01*
X147119047Y-103652380D01*
X146928571Y-103652380D01*
X147738095Y-102747619D02*
X147785714Y-102700000D01*
X147880952Y-102652380D01*
X148119047Y-102652380D01*
X148214285Y-102700000D01*
X148261904Y-102747619D01*
X148309523Y-102842857D01*
X148309523Y-102938095D01*
X148261904Y-103080952D01*
X147690476Y-103652380D01*
X148309523Y-103652380D01*
%TO.C,C4*%
X110333333Y-58357142D02*
X110285714Y-58404761D01*
X110142857Y-58452380D01*
X110047619Y-58452380D01*
X109904761Y-58404761D01*
X109809523Y-58309523D01*
X109761904Y-58214285D01*
X109714285Y-58023809D01*
X109714285Y-57880952D01*
X109761904Y-57690476D01*
X109809523Y-57595238D01*
X109904761Y-57500000D01*
X110047619Y-57452380D01*
X110142857Y-57452380D01*
X110285714Y-57500000D01*
X110333333Y-57547619D01*
X111190476Y-57785714D02*
X111190476Y-58452380D01*
X110952380Y-57404761D02*
X110714285Y-58119047D01*
X111333333Y-58119047D01*
%TO.C,C_{BST}1*%
X134849142Y-104227880D02*
X134896761Y-104275500D01*
X134944380Y-104418357D01*
X134944380Y-104513595D01*
X134896761Y-104656452D01*
X134801523Y-104751690D01*
X134706285Y-104799309D01*
X134515809Y-104846928D01*
X134372952Y-104846928D01*
X134182476Y-104799309D01*
X134087238Y-104751690D01*
X133992000Y-104656452D01*
X133944380Y-104513595D01*
X133944380Y-104418357D01*
X133992000Y-104275500D01*
X134039619Y-104227880D01*
X134634857Y-103580261D02*
X134672952Y-103465976D01*
X134711047Y-103427880D01*
X134787238Y-103389785D01*
X134901523Y-103389785D01*
X134977714Y-103427880D01*
X135015809Y-103465976D01*
X135053904Y-103542166D01*
X135053904Y-103846928D01*
X134253904Y-103846928D01*
X134253904Y-103580261D01*
X134292000Y-103504071D01*
X134330095Y-103465976D01*
X134406285Y-103427880D01*
X134482476Y-103427880D01*
X134558666Y-103465976D01*
X134596761Y-103504071D01*
X134634857Y-103580261D01*
X134634857Y-103846928D01*
X135015809Y-103085023D02*
X135053904Y-102970738D01*
X135053904Y-102780261D01*
X135015809Y-102704071D01*
X134977714Y-102665976D01*
X134901523Y-102627880D01*
X134825333Y-102627880D01*
X134749142Y-102665976D01*
X134711047Y-102704071D01*
X134672952Y-102780261D01*
X134634857Y-102932642D01*
X134596761Y-103008833D01*
X134558666Y-103046928D01*
X134482476Y-103085023D01*
X134406285Y-103085023D01*
X134330095Y-103046928D01*
X134292000Y-103008833D01*
X134253904Y-102932642D01*
X134253904Y-102742166D01*
X134292000Y-102627880D01*
X134253904Y-102399309D02*
X134253904Y-101942166D01*
X135053904Y-102170738D02*
X134253904Y-102170738D01*
X134944380Y-101104071D02*
X134944380Y-101675500D01*
X134944380Y-101389785D02*
X133944380Y-101389785D01*
X134087238Y-101485023D01*
X134182476Y-101580261D01*
X134230095Y-101675500D01*
%TO.C,C3*%
X111833333Y-127357142D02*
X111785714Y-127404761D01*
X111642857Y-127452380D01*
X111547619Y-127452380D01*
X111404761Y-127404761D01*
X111309523Y-127309523D01*
X111261904Y-127214285D01*
X111214285Y-127023809D01*
X111214285Y-126880952D01*
X111261904Y-126690476D01*
X111309523Y-126595238D01*
X111404761Y-126500000D01*
X111547619Y-126452380D01*
X111642857Y-126452380D01*
X111785714Y-126500000D01*
X111833333Y-126547619D01*
X112166666Y-126452380D02*
X112785714Y-126452380D01*
X112452380Y-126833333D01*
X112595238Y-126833333D01*
X112690476Y-126880952D01*
X112738095Y-126928571D01*
X112785714Y-127023809D01*
X112785714Y-127261904D01*
X112738095Y-127357142D01*
X112690476Y-127404761D01*
X112595238Y-127452380D01*
X112309523Y-127452380D01*
X112214285Y-127404761D01*
X112166666Y-127357142D01*
%TO.C,R2*%
X160233333Y-87552380D02*
X159900000Y-87076190D01*
X159661904Y-87552380D02*
X159661904Y-86552380D01*
X160042857Y-86552380D01*
X160138095Y-86600000D01*
X160185714Y-86647619D01*
X160233333Y-86742857D01*
X160233333Y-86885714D01*
X160185714Y-86980952D01*
X160138095Y-87028571D01*
X160042857Y-87076190D01*
X159661904Y-87076190D01*
X160614285Y-86647619D02*
X160661904Y-86600000D01*
X160757142Y-86552380D01*
X160995238Y-86552380D01*
X161090476Y-86600000D01*
X161138095Y-86647619D01*
X161185714Y-86742857D01*
X161185714Y-86838095D01*
X161138095Y-86980952D01*
X160566666Y-87552380D01*
X161185714Y-87552380D01*
%TO.C,F_{VPP}1*%
X142428571Y-103476190D02*
X142428571Y-103809523D01*
X142952380Y-103809523D02*
X141952380Y-103809523D01*
X141952380Y-103333333D01*
X142261904Y-103114285D02*
X143061904Y-102847619D01*
X142261904Y-102580952D01*
X143061904Y-102314285D02*
X142261904Y-102314285D01*
X142261904Y-102009523D01*
X142300000Y-101933333D01*
X142338095Y-101895238D01*
X142414285Y-101857142D01*
X142528571Y-101857142D01*
X142604761Y-101895238D01*
X142642857Y-101933333D01*
X142680952Y-102009523D01*
X142680952Y-102314285D01*
X143061904Y-101514285D02*
X142261904Y-101514285D01*
X142261904Y-101209523D01*
X142300000Y-101133333D01*
X142338095Y-101095238D01*
X142414285Y-101057142D01*
X142528571Y-101057142D01*
X142604761Y-101095238D01*
X142642857Y-101133333D01*
X142680952Y-101209523D01*
X142680952Y-101514285D01*
X142952380Y-100142857D02*
X142952380Y-100714285D01*
X142952380Y-100428571D02*
X141952380Y-100428571D01*
X142095238Y-100523809D01*
X142190476Y-100619047D01*
X142238095Y-100714285D01*
%TO.C,R6*%
X149433333Y-84052380D02*
X149100000Y-83576190D01*
X148861904Y-84052380D02*
X148861904Y-83052380D01*
X149242857Y-83052380D01*
X149338095Y-83100000D01*
X149385714Y-83147619D01*
X149433333Y-83242857D01*
X149433333Y-83385714D01*
X149385714Y-83480952D01*
X149338095Y-83528571D01*
X149242857Y-83576190D01*
X148861904Y-83576190D01*
X150290476Y-83052380D02*
X150100000Y-83052380D01*
X150004761Y-83100000D01*
X149957142Y-83147619D01*
X149861904Y-83290476D01*
X149814285Y-83480952D01*
X149814285Y-83861904D01*
X149861904Y-83957142D01*
X149909523Y-84004761D01*
X150004761Y-84052380D01*
X150195238Y-84052380D01*
X150290476Y-84004761D01*
X150338095Y-83957142D01*
X150385714Y-83861904D01*
X150385714Y-83623809D01*
X150338095Y-83528571D01*
X150290476Y-83480952D01*
X150195238Y-83433333D01*
X150004761Y-83433333D01*
X149909523Y-83480952D01*
X149861904Y-83528571D01*
X149814285Y-83623809D01*
%TO.C,R_{PON}1*%
X136095238Y-94452380D02*
X135761904Y-93976190D01*
X135523809Y-94452380D02*
X135523809Y-93452380D01*
X135904761Y-93452380D01*
X136000000Y-93500000D01*
X136047619Y-93547619D01*
X136095238Y-93642857D01*
X136095238Y-93785714D01*
X136047619Y-93880952D01*
X136000000Y-93928571D01*
X135904761Y-93976190D01*
X135523809Y-93976190D01*
X136476190Y-94561904D02*
X136476190Y-93761904D01*
X136780952Y-93761904D01*
X136857142Y-93800000D01*
X136895238Y-93838095D01*
X136933333Y-93914285D01*
X136933333Y-94028571D01*
X136895238Y-94104761D01*
X136857142Y-94142857D01*
X136780952Y-94180952D01*
X136476190Y-94180952D01*
X137428571Y-93761904D02*
X137580952Y-93761904D01*
X137657142Y-93800000D01*
X137733333Y-93876190D01*
X137771428Y-94028571D01*
X137771428Y-94295238D01*
X137733333Y-94447619D01*
X137657142Y-94523809D01*
X137580952Y-94561904D01*
X137428571Y-94561904D01*
X137352380Y-94523809D01*
X137276190Y-94447619D01*
X137238095Y-94295238D01*
X137238095Y-94028571D01*
X137276190Y-93876190D01*
X137352380Y-93800000D01*
X137428571Y-93761904D01*
X138114285Y-94561904D02*
X138114285Y-93761904D01*
X138571428Y-94561904D01*
X138571428Y-93761904D01*
X139523809Y-94452380D02*
X138952380Y-94452380D01*
X139238095Y-94452380D02*
X139238095Y-93452380D01*
X139142857Y-93595238D01*
X139047619Y-93690476D01*
X138952380Y-93738095D01*
%TO.C,G\u002A\u002A\u002A*%
G36*
X88531676Y-81210774D02*
G01*
X88614863Y-81231680D01*
X88725435Y-81274163D01*
X88826930Y-81330466D01*
X88919288Y-81400516D01*
X89002449Y-81484238D01*
X89076353Y-81581559D01*
X89140939Y-81692404D01*
X89196145Y-81816700D01*
X89241913Y-81954372D01*
X89259393Y-82020588D01*
X89274347Y-82085038D01*
X89287266Y-82148530D01*
X89298282Y-82212778D01*
X89307525Y-82279500D01*
X89315129Y-82350412D01*
X89321225Y-82427231D01*
X89325944Y-82511673D01*
X89329420Y-82605456D01*
X89331782Y-82710295D01*
X89333164Y-82827907D01*
X89333697Y-82960008D01*
X89333713Y-82988277D01*
X89333747Y-83398921D01*
X89385507Y-83391917D01*
X89477528Y-83373039D01*
X89558667Y-83342468D01*
X89630413Y-83299525D01*
X89679685Y-83258091D01*
X89735142Y-83195493D01*
X89780666Y-83123204D01*
X89817016Y-83039687D01*
X89844951Y-82943405D01*
X89852596Y-82907844D01*
X89859894Y-82857747D01*
X89864887Y-82795427D01*
X89867573Y-82725066D01*
X89867953Y-82650843D01*
X89866027Y-82576939D01*
X89861794Y-82507533D01*
X89855254Y-82446807D01*
X89852622Y-82429575D01*
X89824650Y-82294486D01*
X89786775Y-82162329D01*
X89740158Y-82036189D01*
X89685961Y-81919152D01*
X89625347Y-81814302D01*
X89615101Y-81798821D01*
X89575589Y-81740266D01*
X90392843Y-81331738D01*
X90422571Y-81379107D01*
X90492850Y-81502964D01*
X90557298Y-81640711D01*
X90615300Y-81790518D01*
X90666243Y-81950553D01*
X90709511Y-82118987D01*
X90744491Y-82293989D01*
X90758024Y-82378871D01*
X90775897Y-82528987D01*
X90786805Y-82685176D01*
X90790804Y-82843843D01*
X90787954Y-83001389D01*
X90778311Y-83154219D01*
X90761935Y-83298735D01*
X90741248Y-83419894D01*
X90700995Y-83584297D01*
X90649520Y-83736678D01*
X90586891Y-83876958D01*
X90513178Y-84005063D01*
X90428448Y-84120916D01*
X90332771Y-84224440D01*
X90226216Y-84315559D01*
X90108852Y-84394198D01*
X89980747Y-84460279D01*
X89841971Y-84513726D01*
X89722987Y-84547416D01*
X89694035Y-84554462D01*
X89667796Y-84560816D01*
X89643318Y-84566516D01*
X89619644Y-84571600D01*
X89595819Y-84576105D01*
X89570890Y-84580069D01*
X89543902Y-84583531D01*
X89513899Y-84586527D01*
X89479928Y-84589095D01*
X89441033Y-84591273D01*
X89396259Y-84593100D01*
X89344652Y-84594612D01*
X89285258Y-84595848D01*
X89217121Y-84596844D01*
X89139287Y-84597640D01*
X89050801Y-84598272D01*
X88950708Y-84598779D01*
X88838054Y-84599198D01*
X88711883Y-84599567D01*
X88571242Y-84599924D01*
X88415175Y-84600306D01*
X88383421Y-84600385D01*
X87304728Y-84603095D01*
X87304728Y-83484480D01*
X87522123Y-83484478D01*
X87739518Y-83484477D01*
X87676330Y-83443991D01*
X87582975Y-83374482D01*
X87500730Y-83292785D01*
X87429704Y-83199094D01*
X87370008Y-83093606D01*
X87321751Y-82976516D01*
X87285044Y-82848019D01*
X87273037Y-82781050D01*
X88011450Y-82781050D01*
X88012824Y-82846327D01*
X88017994Y-82910477D01*
X88026741Y-82967805D01*
X88033418Y-82995859D01*
X88059196Y-83072384D01*
X88091053Y-83137811D01*
X88131980Y-83197312D01*
X88182375Y-83253454D01*
X88218604Y-83288658D01*
X88249639Y-83314962D01*
X88280774Y-83336289D01*
X88317300Y-83356560D01*
X88330431Y-83363187D01*
X88407879Y-83401662D01*
X88704337Y-83401662D01*
X88704193Y-83118014D01*
X88703820Y-83017919D01*
X88702739Y-82932604D01*
X88700844Y-82860297D01*
X88698029Y-82799224D01*
X88694187Y-82747613D01*
X88689213Y-82703693D01*
X88683000Y-82665689D01*
X88675442Y-82631829D01*
X88674941Y-82629884D01*
X88647973Y-82550746D01*
X88611632Y-82485191D01*
X88565977Y-82433275D01*
X88511069Y-82395051D01*
X88446968Y-82370577D01*
X88382170Y-82360398D01*
X88307712Y-82362805D01*
X88239511Y-82380144D01*
X88178411Y-82411691D01*
X88125255Y-82456723D01*
X88080888Y-82514518D01*
X88046152Y-82584353D01*
X88021890Y-82665507D01*
X88020959Y-82669890D01*
X88014089Y-82720340D01*
X88011450Y-82781050D01*
X87273037Y-82781050D01*
X87259996Y-82708310D01*
X87259369Y-82703504D01*
X87255310Y-82661813D01*
X87252055Y-82608322D01*
X87249674Y-82547242D01*
X87248238Y-82482782D01*
X87247817Y-82419153D01*
X87248480Y-82360565D01*
X87250298Y-82311228D01*
X87252378Y-82283632D01*
X87275098Y-82125619D01*
X87309692Y-81978879D01*
X87356121Y-81843505D01*
X87414347Y-81719587D01*
X87484332Y-81607219D01*
X87566039Y-81506491D01*
X87579648Y-81492032D01*
X87670124Y-81407539D01*
X87765414Y-81338076D01*
X87867546Y-81282343D01*
X87971406Y-81241378D01*
X88076930Y-81213506D01*
X88189799Y-81196449D01*
X88305933Y-81190266D01*
X88382170Y-81193410D01*
X88421252Y-81195021D01*
X88531676Y-81210774D01*
G37*
G36*
X90733355Y-70655038D02*
G01*
X89795452Y-70658594D01*
X89645260Y-70659163D01*
X89510637Y-70659699D01*
X89390587Y-70660251D01*
X89284115Y-70660867D01*
X89190225Y-70661594D01*
X89107924Y-70662481D01*
X89036215Y-70663574D01*
X88974104Y-70664923D01*
X88920596Y-70666574D01*
X88874695Y-70668575D01*
X88835406Y-70670976D01*
X88801735Y-70673822D01*
X88772686Y-70677162D01*
X88747265Y-70681044D01*
X88724475Y-70685516D01*
X88703323Y-70690625D01*
X88682812Y-70696420D01*
X88661948Y-70702948D01*
X88639737Y-70710257D01*
X88626078Y-70714795D01*
X88537382Y-70751478D01*
X88461589Y-70798504D01*
X88398532Y-70856045D01*
X88348039Y-70924276D01*
X88309943Y-71003368D01*
X88293457Y-71054297D01*
X88285465Y-71096029D01*
X88280318Y-71149064D01*
X88278028Y-71208384D01*
X88278605Y-71268972D01*
X88282062Y-71325813D01*
X88288408Y-71373889D01*
X88292699Y-71393185D01*
X88325316Y-71487319D01*
X88369903Y-71570897D01*
X88426765Y-71644172D01*
X88496207Y-71707397D01*
X88578535Y-71760826D01*
X88674055Y-71804713D01*
X88783073Y-71839310D01*
X88849014Y-71854495D01*
X88861056Y-71856646D01*
X88875491Y-71858574D01*
X88893284Y-71860295D01*
X88915396Y-71861825D01*
X88942791Y-71863182D01*
X88976431Y-71864381D01*
X89017278Y-71865438D01*
X89066296Y-71866371D01*
X89124447Y-71867196D01*
X89192694Y-71867929D01*
X89272000Y-71868586D01*
X89363327Y-71869185D01*
X89467637Y-71869741D01*
X89585895Y-71870272D01*
X89719061Y-71870793D01*
X89824438Y-71871170D01*
X90733355Y-71874333D01*
X90733355Y-73074372D01*
X87304728Y-73074372D01*
X87304728Y-71931496D01*
X87661939Y-71931496D01*
X87603229Y-71867313D01*
X87511432Y-71756420D01*
X87433819Y-71639514D01*
X87369700Y-71515179D01*
X87318382Y-71381996D01*
X87279176Y-71238551D01*
X87266481Y-71176651D01*
X87260470Y-71133461D01*
X87255758Y-71077466D01*
X87252396Y-71012377D01*
X87250437Y-70941906D01*
X87249929Y-70869765D01*
X87250925Y-70799664D01*
X87253476Y-70735315D01*
X87257632Y-70680429D01*
X87259444Y-70664395D01*
X87286507Y-70507526D01*
X87326896Y-70360312D01*
X87380328Y-70223067D01*
X87446517Y-70096103D01*
X87525179Y-69979735D01*
X87616028Y-69874275D01*
X87718781Y-69780038D01*
X87833152Y-69697336D01*
X87958858Y-69626483D01*
X88095613Y-69567793D01*
X88243132Y-69521579D01*
X88312421Y-69505051D01*
X88341275Y-69498759D01*
X88367460Y-69493086D01*
X88391931Y-69487998D01*
X88415646Y-69483461D01*
X88439563Y-69479441D01*
X88464638Y-69475903D01*
X88491828Y-69472813D01*
X88522091Y-69470138D01*
X88556384Y-69467842D01*
X88595664Y-69465893D01*
X88640887Y-69464255D01*
X88693012Y-69462895D01*
X88752995Y-69461779D01*
X88821794Y-69460872D01*
X88900365Y-69460140D01*
X88989665Y-69459550D01*
X89090653Y-69459066D01*
X89204284Y-69458655D01*
X89331517Y-69458283D01*
X89473307Y-69457916D01*
X89630613Y-69457519D01*
X89646381Y-69457479D01*
X90733355Y-69454685D01*
X90733355Y-70655038D01*
G37*
G36*
X87303674Y-57104115D02*
G01*
X87325345Y-57122181D01*
X87358385Y-57148805D01*
X87355717Y-57544178D01*
X87355162Y-57647524D01*
X87355028Y-57735014D01*
X87355358Y-57807353D01*
X87356193Y-57865243D01*
X87357575Y-57909389D01*
X87359545Y-57940493D01*
X87362146Y-57959260D01*
X87365418Y-57966393D01*
X87369404Y-57962595D01*
X87374145Y-57948571D01*
X87378576Y-57930157D01*
X87385944Y-57897402D01*
X87395919Y-57854276D01*
X87408008Y-57802809D01*
X87421716Y-57745035D01*
X87436552Y-57682985D01*
X87452023Y-57618689D01*
X87467634Y-57554180D01*
X87482893Y-57491489D01*
X87497307Y-57432648D01*
X87510383Y-57379689D01*
X87521627Y-57334642D01*
X87530547Y-57299540D01*
X87536649Y-57276414D01*
X87539441Y-57267295D01*
X87539475Y-57267252D01*
X87549156Y-57268684D01*
X87569095Y-57279732D01*
X87597343Y-57298816D01*
X87631954Y-57324352D01*
X87670981Y-57354760D01*
X87712476Y-57388457D01*
X87754491Y-57423863D01*
X87795081Y-57459394D01*
X87832298Y-57493470D01*
X87864194Y-57524509D01*
X87888822Y-57550929D01*
X87889110Y-57551264D01*
X87948933Y-57624347D01*
X87996657Y-57691458D01*
X88033882Y-57755932D01*
X88062210Y-57821107D01*
X88083239Y-57890321D01*
X88098571Y-57966911D01*
X88103085Y-57997522D01*
X88107997Y-58033888D01*
X88112186Y-58065718D01*
X88115874Y-58095245D01*
X88119285Y-58124700D01*
X88122642Y-58156313D01*
X88126168Y-58192317D01*
X88130086Y-58234943D01*
X88134621Y-58286422D01*
X88139995Y-58348987D01*
X88146431Y-58424869D01*
X88149574Y-58462067D01*
X88162356Y-58606537D01*
X88175107Y-58735853D01*
X88188073Y-58851424D01*
X88201501Y-58954656D01*
X88215637Y-59046958D01*
X88230728Y-59129737D01*
X88247020Y-59204400D01*
X88264761Y-59272356D01*
X88284197Y-59335012D01*
X88305574Y-59393776D01*
X88318301Y-59425071D01*
X88355055Y-59504529D01*
X88392008Y-59568318D01*
X88430037Y-59617316D01*
X88470016Y-59652402D01*
X88512823Y-59674457D01*
X88559331Y-59684361D01*
X88577181Y-59685120D01*
X88619303Y-59680603D01*
X88662018Y-59666133D01*
X88707281Y-59640612D01*
X88757049Y-59602945D01*
X88811357Y-59553881D01*
X88855603Y-59509634D01*
X88898019Y-59463251D01*
X88939376Y-59413492D01*
X88980444Y-59359117D01*
X89021996Y-59298883D01*
X89064803Y-59231551D01*
X89109635Y-59155880D01*
X89157264Y-59070628D01*
X89208461Y-58974555D01*
X89263998Y-58866419D01*
X89324645Y-58744980D01*
X89364304Y-58664199D01*
X89416978Y-58557112D01*
X89463568Y-58464147D01*
X89504650Y-58384263D01*
X89540802Y-58316417D01*
X89572602Y-58259566D01*
X89600626Y-58212670D01*
X89625452Y-58174686D01*
X89647657Y-58144571D01*
X89660915Y-58128772D01*
X89727733Y-58064184D01*
X89809391Y-58003338D01*
X89904392Y-57947248D01*
X89988921Y-57906515D01*
X90018588Y-57894176D01*
X90054743Y-57880198D01*
X90094270Y-57865655D01*
X90134055Y-57851620D01*
X90170985Y-57839168D01*
X90201944Y-57829374D01*
X90223818Y-57823310D01*
X90233494Y-57822052D01*
X90233599Y-57822132D01*
X90232252Y-57830685D01*
X90226687Y-57853129D01*
X90217470Y-57887499D01*
X90205168Y-57931831D01*
X90190347Y-57984157D01*
X90173574Y-58042514D01*
X90155416Y-58104934D01*
X90136440Y-58169454D01*
X90117211Y-58234107D01*
X90098298Y-58296928D01*
X90080266Y-58355952D01*
X90071818Y-58383232D01*
X89986770Y-58648139D01*
X89898857Y-58905901D01*
X89808552Y-59155366D01*
X89716329Y-59395379D01*
X89622660Y-59624788D01*
X89528018Y-59842437D01*
X89432878Y-60047175D01*
X89337710Y-60237847D01*
X89242990Y-60413299D01*
X89229847Y-60436485D01*
X89181534Y-60518524D01*
X89128553Y-60603795D01*
X89072799Y-60689532D01*
X89016170Y-60772970D01*
X88960564Y-60851341D01*
X88907876Y-60921881D01*
X88860004Y-60981821D01*
X88839158Y-61006171D01*
X88807858Y-61041687D01*
X88683632Y-61020444D01*
X88518534Y-60987957D01*
X88347689Y-60946375D01*
X88175393Y-60897034D01*
X88005942Y-60841271D01*
X87843630Y-60780421D01*
X87692756Y-60715819D01*
X87670064Y-60705271D01*
X87588771Y-60667033D01*
X87562568Y-60603520D01*
X87551292Y-60575347D01*
X87535757Y-60535360D01*
X87517395Y-60487300D01*
X87497634Y-60434909D01*
X87478172Y-60382654D01*
X87419978Y-60225301D01*
X87424891Y-60312259D01*
X87428279Y-60359811D01*
X87433278Y-60414979D01*
X87439057Y-60469001D01*
X87442065Y-60493502D01*
X87446589Y-60531115D01*
X87449649Y-60562323D01*
X87450956Y-60583704D01*
X87450360Y-60591755D01*
X87441640Y-60589585D01*
X87421020Y-60579714D01*
X87390567Y-60563348D01*
X87352347Y-60541690D01*
X87308427Y-60515945D01*
X87260873Y-60487317D01*
X87211752Y-60457010D01*
X87163131Y-60426228D01*
X87134953Y-60407964D01*
X86918919Y-60256840D01*
X86714577Y-60093983D01*
X86521915Y-59919382D01*
X86340922Y-59733028D01*
X86171590Y-59534910D01*
X86013906Y-59325018D01*
X85928102Y-59198369D01*
X85874518Y-59114371D01*
X85847345Y-59069406D01*
X86766693Y-59069406D01*
X86775759Y-59158132D01*
X86782399Y-59187816D01*
X86808366Y-59267273D01*
X86844159Y-59337323D01*
X86892332Y-59402402D01*
X86927518Y-59440189D01*
X86997968Y-59500911D01*
X87073758Y-59546643D01*
X87157235Y-59578684D01*
X87194866Y-59588308D01*
X87277757Y-59598804D01*
X87364423Y-59595267D01*
X87451011Y-59578366D01*
X87533666Y-59548769D01*
X87588652Y-59519931D01*
X87633470Y-59487819D01*
X87680078Y-59446173D01*
X87723437Y-59400047D01*
X87758508Y-59354493D01*
X87767019Y-59341091D01*
X87807402Y-59257688D01*
X87832690Y-59169419D01*
X87842825Y-59078372D01*
X87837746Y-58986632D01*
X87817393Y-58896286D01*
X87782252Y-58810485D01*
X87734398Y-58734236D01*
X87675257Y-58668714D01*
X87606668Y-58614544D01*
X87530468Y-58572350D01*
X87448497Y-58542756D01*
X87362593Y-58526386D01*
X87274594Y-58523865D01*
X87186339Y-58535816D01*
X87099665Y-58562863D01*
X87079114Y-58571757D01*
X87000569Y-58616421D01*
X86931815Y-58673038D01*
X86873759Y-58739722D01*
X86827311Y-58814588D01*
X86793378Y-58895748D01*
X86772869Y-58981316D01*
X86766693Y-59069406D01*
X85847345Y-59069406D01*
X85826051Y-59034168D01*
X85780056Y-58953075D01*
X85733885Y-58866409D01*
X85684893Y-58769485D01*
X85678551Y-58756641D01*
X85575490Y-58531056D01*
X85487239Y-58302254D01*
X85413349Y-58068679D01*
X85353370Y-57828776D01*
X85306851Y-57580990D01*
X85278840Y-57374402D01*
X85274895Y-57330027D01*
X85271407Y-57272079D01*
X85268420Y-57203544D01*
X85265978Y-57127407D01*
X85264125Y-57046656D01*
X85262905Y-56964274D01*
X85262361Y-56883248D01*
X85262537Y-56806563D01*
X85263477Y-56737206D01*
X85265225Y-56678161D01*
X85267824Y-56632415D01*
X85267936Y-56631040D01*
X85297285Y-56369910D01*
X85342161Y-56111852D01*
X85402248Y-55858140D01*
X85477230Y-55610049D01*
X85566792Y-55368850D01*
X85600109Y-55289561D01*
X85710096Y-55056076D01*
X85833891Y-54831238D01*
X85970892Y-54615529D01*
X86120498Y-54409429D01*
X86282105Y-54213421D01*
X86455112Y-54027986D01*
X86638917Y-53853606D01*
X86832916Y-53690761D01*
X87036509Y-53539933D01*
X87249093Y-53401604D01*
X87470066Y-53276255D01*
X87698825Y-53164367D01*
X87934768Y-53066423D01*
X88177294Y-52982903D01*
X88425799Y-52914289D01*
X88625195Y-52871083D01*
X88666872Y-52863422D01*
X88702875Y-52857355D01*
X88730009Y-52853381D01*
X88745076Y-52851996D01*
X88746786Y-52852167D01*
X88745109Y-52859342D01*
X88734835Y-52877131D01*
X88717542Y-52903079D01*
X88694807Y-52934730D01*
X88687317Y-52944763D01*
X88570552Y-53109517D01*
X88456583Y-53289482D01*
X88345851Y-53483478D01*
X88238796Y-53690319D01*
X88135858Y-53908825D01*
X88037476Y-54137811D01*
X87944092Y-54376095D01*
X87856144Y-54622495D01*
X87774073Y-54875827D01*
X87698319Y-55134909D01*
X87629321Y-55398558D01*
X87567521Y-55665590D01*
X87513357Y-55934824D01*
X87467269Y-56205077D01*
X87462193Y-56238245D01*
X87443957Y-56358915D01*
X87386925Y-56381104D01*
X87359968Y-56390489D01*
X87332639Y-56397219D01*
X87302559Y-56401335D01*
X87267346Y-56402874D01*
X87224621Y-56401874D01*
X87172003Y-56398374D01*
X87107112Y-56392413D01*
X87050689Y-56386536D01*
X86988715Y-56380474D01*
X86916797Y-56374400D01*
X86841546Y-56368815D01*
X86769571Y-56364220D01*
X86725008Y-56361875D01*
X86657290Y-56358653D01*
X86601608Y-56355763D01*
X86553860Y-56352877D01*
X86509943Y-56349667D01*
X86465752Y-56345806D01*
X86417185Y-56340967D01*
X86360137Y-56334821D01*
X86294959Y-56327542D01*
X86184048Y-56317156D01*
X86087955Y-56312740D01*
X86006020Y-56314368D01*
X85937582Y-56322116D01*
X85881979Y-56336059D01*
X85838551Y-56356273D01*
X85806637Y-56382833D01*
X85806238Y-56383285D01*
X85784979Y-56418168D01*
X85779859Y-56455417D01*
X85790748Y-56494292D01*
X85817516Y-56534050D01*
X85836113Y-56553369D01*
X85863994Y-56577128D01*
X85895857Y-56598813D01*
X85933556Y-56619185D01*
X85978944Y-56639005D01*
X86033876Y-56659035D01*
X86100206Y-56680035D01*
X86179790Y-56702768D01*
X86238486Y-56718565D01*
X86295593Y-56734301D01*
X86363175Y-56753957D01*
X86436076Y-56775970D01*
X86509143Y-56798777D01*
X86577221Y-56820816D01*
X86592501Y-56825903D01*
X86656874Y-56847055D01*
X86725883Y-56869012D01*
X86794821Y-56890328D01*
X86858983Y-56909551D01*
X86913660Y-56925235D01*
X86927910Y-56929141D01*
X87001583Y-56949291D01*
X87061229Y-56966319D01*
X87108913Y-56981031D01*
X87146698Y-56994236D01*
X87176648Y-57006740D01*
X87200827Y-57019352D01*
X87221300Y-57032877D01*
X87240130Y-57048125D01*
X87246410Y-57053741D01*
X87274594Y-57078924D01*
X87274745Y-57079059D01*
X87303674Y-57104115D01*
G37*
G36*
X90609130Y-85505216D02*
G01*
X91503554Y-85505216D01*
X91503554Y-86706064D01*
X90609130Y-86706064D01*
X90609130Y-87492826D01*
X89706423Y-87492826D01*
X89706423Y-86705368D01*
X89091507Y-86708188D01*
X88972957Y-86708728D01*
X88869744Y-86709240D01*
X88780640Y-86709807D01*
X88704420Y-86710513D01*
X88639855Y-86711440D01*
X88585720Y-86712670D01*
X88540787Y-86714288D01*
X88503830Y-86716374D01*
X88473623Y-86719013D01*
X88448937Y-86722287D01*
X88428548Y-86726278D01*
X88411227Y-86731070D01*
X88395749Y-86736746D01*
X88380885Y-86743387D01*
X88365411Y-86751078D01*
X88351604Y-86758124D01*
X88309802Y-86786001D01*
X88268808Y-86824903D01*
X88233224Y-86869731D01*
X88207655Y-86915388D01*
X88206010Y-86919346D01*
X88198003Y-86941176D01*
X88192580Y-86962335D01*
X88189270Y-86986806D01*
X88187600Y-87018571D01*
X88187098Y-87061610D01*
X88187108Y-87078741D01*
X88188687Y-87145113D01*
X88193841Y-87200244D01*
X88203697Y-87249272D01*
X88219384Y-87297339D01*
X88242031Y-87349584D01*
X88250365Y-87366870D01*
X88264731Y-87397037D01*
X88275333Y-87421019D01*
X88280707Y-87435412D01*
X88280940Y-87437985D01*
X88272762Y-87441121D01*
X88250404Y-87449235D01*
X88215309Y-87461813D01*
X88168925Y-87478340D01*
X88112696Y-87498304D01*
X88048069Y-87521190D01*
X87976488Y-87546486D01*
X87899400Y-87573676D01*
X87860501Y-87587379D01*
X87765363Y-87620778D01*
X87684734Y-87648850D01*
X87617558Y-87671930D01*
X87562781Y-87690357D01*
X87519347Y-87704468D01*
X87486201Y-87714602D01*
X87462288Y-87721095D01*
X87446552Y-87724286D01*
X87437938Y-87724511D01*
X87435709Y-87723307D01*
X87428625Y-87711121D01*
X87416362Y-87688422D01*
X87401213Y-87659478D01*
X87396430Y-87650179D01*
X87347377Y-87538485D01*
X87307934Y-87414062D01*
X87278271Y-87277788D01*
X87258558Y-87130545D01*
X87248963Y-86973212D01*
X87248081Y-86880031D01*
X87248641Y-86827915D01*
X87249402Y-86779684D01*
X87250298Y-86738486D01*
X87251259Y-86707467D01*
X87252216Y-86689776D01*
X87252242Y-86689501D01*
X87266423Y-86575478D01*
X87286029Y-86464695D01*
X87310121Y-86361889D01*
X87330864Y-86291979D01*
X87382396Y-86159478D01*
X87445578Y-86038647D01*
X87520204Y-85929682D01*
X87606068Y-85832776D01*
X87702964Y-85748123D01*
X87810687Y-85675918D01*
X87929030Y-85616354D01*
X88057788Y-85569624D01*
X88113715Y-85554177D01*
X88147742Y-85545717D01*
X88179419Y-85538291D01*
X88210035Y-85531831D01*
X88240877Y-85526271D01*
X88273236Y-85521542D01*
X88308399Y-85517578D01*
X88347655Y-85514312D01*
X88392294Y-85511676D01*
X88443603Y-85509604D01*
X88502872Y-85508027D01*
X88571389Y-85506879D01*
X88650443Y-85506092D01*
X88741323Y-85505600D01*
X88845317Y-85505336D01*
X88963715Y-85505231D01*
X89052593Y-85505216D01*
X89706423Y-85505216D01*
X89706423Y-85000032D01*
X90609130Y-85000032D01*
X90609130Y-85505216D01*
G37*
G36*
X92000457Y-64295761D02*
G01*
X90441834Y-64295761D01*
X90485165Y-64343173D01*
X90566665Y-64444261D01*
X90635639Y-64555568D01*
X90692202Y-64677359D01*
X90736470Y-64809899D01*
X90768555Y-64953452D01*
X90779453Y-65024754D01*
X90785067Y-65083186D01*
X90788455Y-65153205D01*
X90789686Y-65230441D01*
X90788831Y-65310524D01*
X90785959Y-65389085D01*
X90781140Y-65461755D01*
X90774445Y-65524165D01*
X90771085Y-65546299D01*
X90735052Y-65711936D01*
X90684852Y-65869412D01*
X90621015Y-66018206D01*
X90544071Y-66157798D01*
X90454549Y-66287665D01*
X90352979Y-66407287D01*
X90239890Y-66516141D01*
X90115813Y-66613708D01*
X89981278Y-66699464D01*
X89836813Y-66772890D01*
X89682949Y-66833463D01*
X89520215Y-66880663D01*
X89387578Y-66907841D01*
X89243452Y-66926451D01*
X89092405Y-66935216D01*
X88938629Y-66934284D01*
X88786314Y-66923806D01*
X88639652Y-66903932D01*
X88509069Y-66876407D01*
X88350620Y-66828654D01*
X88198594Y-66767683D01*
X88054861Y-66694415D01*
X87921291Y-66609772D01*
X87834332Y-66543833D01*
X87787991Y-66503251D01*
X87736201Y-66453401D01*
X87683041Y-66398563D01*
X87632591Y-66343016D01*
X87588932Y-66291040D01*
X87570273Y-66266852D01*
X87480750Y-66132303D01*
X87404893Y-65988950D01*
X87343165Y-65837987D01*
X87296029Y-65680609D01*
X87263946Y-65518011D01*
X87255615Y-65453456D01*
X87252081Y-65408850D01*
X87249657Y-65352222D01*
X87248341Y-65287988D01*
X87248128Y-65220566D01*
X87249016Y-65154372D01*
X87251003Y-65093822D01*
X87254086Y-65043333D01*
X87255888Y-65024551D01*
X87257100Y-65016869D01*
X88208888Y-65016869D01*
X88211306Y-65076272D01*
X88216798Y-65127732D01*
X88219831Y-65144636D01*
X88249658Y-65249595D01*
X88293084Y-65345390D01*
X88349552Y-65431456D01*
X88418502Y-65507229D01*
X88499379Y-65572141D01*
X88591622Y-65625629D01*
X88694675Y-65667127D01*
X88751686Y-65683611D01*
X88871074Y-65707168D01*
X88989771Y-65717617D01*
X89106234Y-65715357D01*
X89218919Y-65700785D01*
X89326283Y-65674300D01*
X89426783Y-65636298D01*
X89518876Y-65587180D01*
X89601019Y-65527341D01*
X89671670Y-65457180D01*
X89683077Y-65443448D01*
X89739554Y-65360441D01*
X89782746Y-65269294D01*
X89812466Y-65172010D01*
X89828526Y-65070588D01*
X89830740Y-64967029D01*
X89818919Y-64863332D01*
X89792878Y-64761499D01*
X89755505Y-64669756D01*
X89735940Y-64631092D01*
X89718263Y-64600584D01*
X89699176Y-64573723D01*
X89675377Y-64546002D01*
X89643566Y-64512914D01*
X89632647Y-64501946D01*
X89597778Y-64467747D01*
X89569550Y-64442382D01*
X89543353Y-64422526D01*
X89514579Y-64404857D01*
X89478619Y-64386050D01*
X89457719Y-64375772D01*
X89341796Y-64328340D01*
X89221262Y-64296689D01*
X89095926Y-64280794D01*
X88965599Y-64280627D01*
X88856570Y-64291956D01*
X88739590Y-64316338D01*
X88632582Y-64352990D01*
X88536107Y-64401420D01*
X88450728Y-64461134D01*
X88377007Y-64531638D01*
X88315506Y-64612439D01*
X88266787Y-64703045D01*
X88231413Y-64802960D01*
X88220037Y-64850635D01*
X88213258Y-64898087D01*
X88209540Y-64955486D01*
X88208888Y-65016869D01*
X87257100Y-65016869D01*
X87279178Y-64876931D01*
X87314696Y-64740294D01*
X87362600Y-64614281D01*
X87423046Y-64498534D01*
X87496190Y-64392695D01*
X87568466Y-64310254D01*
X87638994Y-64237789D01*
X87304728Y-64237789D01*
X87304728Y-63094913D01*
X92000457Y-63094913D01*
X92000457Y-64295761D01*
G37*
G36*
X87608785Y-77659318D02*
G01*
X87631334Y-77667810D01*
X87665593Y-77681525D01*
X87709844Y-77699724D01*
X87762369Y-77721664D01*
X87821451Y-77746605D01*
X87885372Y-77773804D01*
X87952415Y-77802522D01*
X88020862Y-77832015D01*
X88088996Y-77861544D01*
X88155098Y-77890367D01*
X88217452Y-77917742D01*
X88274340Y-77942928D01*
X88324044Y-77965184D01*
X88364847Y-77983768D01*
X88395031Y-77997939D01*
X88412879Y-78006956D01*
X88416887Y-78009518D01*
X88416037Y-78019107D01*
X88408075Y-78039086D01*
X88394569Y-78065740D01*
X88388868Y-78075879D01*
X88329797Y-78190338D01*
X88276433Y-78317714D01*
X88229390Y-78455164D01*
X88189282Y-78599843D01*
X88156723Y-78748909D01*
X88132326Y-78899518D01*
X88116707Y-79048825D01*
X88110477Y-79193988D01*
X88114252Y-79332163D01*
X88115098Y-79344084D01*
X88124931Y-79441470D01*
X88138970Y-79523625D01*
X88157649Y-79591443D01*
X88181401Y-79645821D01*
X88210660Y-79687654D01*
X88245861Y-79717838D01*
X88287436Y-79737270D01*
X88308068Y-79742689D01*
X88336100Y-79747660D01*
X88356199Y-79747376D01*
X88376431Y-79740864D01*
X88394642Y-79732253D01*
X88419124Y-79717829D01*
X88441093Y-79699406D01*
X88460920Y-79675805D01*
X88478973Y-79645845D01*
X88495623Y-79608346D01*
X88511239Y-79562131D01*
X88526192Y-79506017D01*
X88540850Y-79438827D01*
X88555583Y-79359380D01*
X88570762Y-79266497D01*
X88586755Y-79158998D01*
X88596901Y-79086957D01*
X88610349Y-78991398D01*
X88622363Y-78909686D01*
X88633407Y-78839215D01*
X88643942Y-78777376D01*
X88654432Y-78721563D01*
X88665338Y-78669168D01*
X88677122Y-78617584D01*
X88688033Y-78572995D01*
X88730489Y-78426114D01*
X88780616Y-78293769D01*
X88838637Y-78175702D01*
X88904774Y-78071653D01*
X88979249Y-77981363D01*
X89062287Y-77904575D01*
X89154108Y-77841029D01*
X89254937Y-77790466D01*
X89364995Y-77752630D01*
X89402643Y-77743063D01*
X89432531Y-77736638D01*
X89461398Y-77731939D01*
X89492667Y-77728717D01*
X89529760Y-77726722D01*
X89576100Y-77725702D01*
X89635108Y-77725410D01*
X89644311Y-77725412D01*
X89702565Y-77725614D01*
X89747610Y-77726319D01*
X89782797Y-77727822D01*
X89811478Y-77730419D01*
X89837007Y-77734405D01*
X89862734Y-77740075D01*
X89889232Y-77746970D01*
X90013652Y-77788827D01*
X90129353Y-77844693D01*
X90236246Y-77914437D01*
X90334239Y-77997931D01*
X90423244Y-78095043D01*
X90503168Y-78205644D01*
X90573922Y-78329604D01*
X90635415Y-78466793D01*
X90687557Y-78617080D01*
X90730257Y-78780335D01*
X90763425Y-78956429D01*
X90772150Y-79016498D01*
X90777652Y-79069347D01*
X90781961Y-79135624D01*
X90785077Y-79212236D01*
X90787003Y-79296092D01*
X90787740Y-79384099D01*
X90787289Y-79473165D01*
X90785652Y-79560198D01*
X90782830Y-79642104D01*
X90778826Y-79715793D01*
X90773640Y-79778171D01*
X90771762Y-79794978D01*
X90745211Y-79980411D01*
X90711653Y-80155122D01*
X90671370Y-80318026D01*
X90624645Y-80468039D01*
X90571759Y-80604078D01*
X90546907Y-80658609D01*
X90502194Y-80752042D01*
X90474915Y-80740593D01*
X90460491Y-80734382D01*
X90433455Y-80722589D01*
X90395529Y-80705974D01*
X90348430Y-80685293D01*
X90293879Y-80661306D01*
X90233594Y-80634771D01*
X90169296Y-80606446D01*
X90102703Y-80577091D01*
X90035536Y-80547463D01*
X89969512Y-80518321D01*
X89906352Y-80490423D01*
X89847775Y-80464528D01*
X89795501Y-80441395D01*
X89751248Y-80421781D01*
X89716737Y-80406446D01*
X89693686Y-80396147D01*
X89683816Y-80391643D01*
X89683577Y-80391513D01*
X89686209Y-80383850D01*
X89694886Y-80363929D01*
X89708412Y-80334387D01*
X89725590Y-80297862D01*
X89734746Y-80278696D01*
X89805027Y-80115333D01*
X89859422Y-79950511D01*
X89898313Y-79782556D01*
X89922079Y-79609793D01*
X89931101Y-79430548D01*
X89931203Y-79414020D01*
X89928566Y-79294582D01*
X89919895Y-79190196D01*
X89905059Y-79100438D01*
X89883922Y-79024884D01*
X89856353Y-78963109D01*
X89822218Y-78914688D01*
X89781384Y-78879197D01*
X89759477Y-78866684D01*
X89712128Y-78851042D01*
X89667579Y-78851493D01*
X89626220Y-78867744D01*
X89588440Y-78899500D01*
X89554629Y-78946467D01*
X89525179Y-79008352D01*
X89508819Y-79055582D01*
X89499334Y-79089122D01*
X89489876Y-79128102D01*
X89480128Y-79174234D01*
X89469777Y-79229225D01*
X89458508Y-79294785D01*
X89446006Y-79372625D01*
X89431956Y-79464452D01*
X89425272Y-79509259D01*
X89401087Y-79663468D01*
X89376367Y-79802430D01*
X89350709Y-79927461D01*
X89323712Y-80039879D01*
X89294971Y-80141000D01*
X89264085Y-80232140D01*
X89230650Y-80314615D01*
X89194264Y-80389742D01*
X89154524Y-80458837D01*
X89117937Y-80513625D01*
X89042531Y-80606185D01*
X88958064Y-80684883D01*
X88864523Y-80749729D01*
X88761892Y-80800730D01*
X88650157Y-80837896D01*
X88540658Y-80859685D01*
X88491132Y-80864487D01*
X88432032Y-80866710D01*
X88367638Y-80866519D01*
X88302228Y-80864081D01*
X88240081Y-80859561D01*
X88185477Y-80853126D01*
X88142694Y-80844942D01*
X88139540Y-80844117D01*
X88017644Y-80803155D01*
X87904400Y-80748217D01*
X87799722Y-80679227D01*
X87703526Y-80596113D01*
X87615725Y-80498798D01*
X87536236Y-80387210D01*
X87464972Y-80261273D01*
X87459532Y-80250391D01*
X87402994Y-80123291D01*
X87355260Y-79987590D01*
X87315839Y-79841546D01*
X87284241Y-79683421D01*
X87266857Y-79567231D01*
X87262627Y-79525477D01*
X87258901Y-79470225D01*
X87255732Y-79404537D01*
X87253171Y-79331473D01*
X87251270Y-79254092D01*
X87250081Y-79175456D01*
X87249656Y-79098624D01*
X87250047Y-79026658D01*
X87251305Y-78962616D01*
X87253483Y-78909560D01*
X87255277Y-78883990D01*
X87282109Y-78649035D01*
X87320883Y-78424910D01*
X87371763Y-78210799D01*
X87430566Y-78018552D01*
X87446849Y-77973597D01*
X87466356Y-77924213D01*
X87487955Y-77872818D01*
X87510516Y-77821831D01*
X87532909Y-77773668D01*
X87554004Y-77730749D01*
X87572670Y-77695491D01*
X87587777Y-77670314D01*
X87598195Y-77657635D01*
X87599663Y-77656793D01*
X87608785Y-77659318D01*
G37*
G36*
X89617209Y-73735770D02*
G01*
X89769395Y-73796312D01*
X89913647Y-73870935D01*
X90049380Y-73959212D01*
X90176006Y-74060712D01*
X90292940Y-74175008D01*
X90399596Y-74301669D01*
X90495387Y-74440266D01*
X90579727Y-74590371D01*
X90588558Y-74608133D01*
X90652279Y-74751388D01*
X90703151Y-74896217D01*
X90741771Y-75045155D01*
X90768734Y-75200735D01*
X90784636Y-75365490D01*
X90788870Y-75460520D01*
X90790279Y-75571756D01*
X90787646Y-75671910D01*
X90780580Y-75766054D01*
X90768685Y-75859263D01*
X90751568Y-75956610D01*
X90749621Y-75966435D01*
X90707716Y-76137656D01*
X90652540Y-76299802D01*
X90584550Y-76452393D01*
X90504201Y-76594949D01*
X90411949Y-76726991D01*
X90308250Y-76848039D01*
X90193559Y-76957614D01*
X90068332Y-77055236D01*
X89933026Y-77140426D01*
X89788095Y-77212703D01*
X89633997Y-77271588D01*
X89471185Y-77316603D01*
X89465170Y-77317958D01*
X89359185Y-77338812D01*
X89256040Y-77352881D01*
X89150511Y-77360617D01*
X89037372Y-77362477D01*
X88969351Y-77361140D01*
X88914790Y-77359286D01*
X88862990Y-77357179D01*
X88817310Y-77354984D01*
X88781106Y-77352862D01*
X88757735Y-77350976D01*
X88756097Y-77350791D01*
X88712618Y-77345626D01*
X88712618Y-74853823D01*
X88693985Y-74859432D01*
X88663140Y-74870943D01*
X88623390Y-74888886D01*
X88579742Y-74910704D01*
X88537202Y-74933838D01*
X88500777Y-74955733D01*
X88486167Y-74965597D01*
X88435223Y-75006852D01*
X88383797Y-75056865D01*
X88337875Y-75109535D01*
X88315895Y-75139223D01*
X88265898Y-75225892D01*
X88225866Y-75323578D01*
X88195963Y-75429945D01*
X88176352Y-75542656D01*
X88167198Y-75659375D01*
X88168665Y-75777767D01*
X88180916Y-75895496D01*
X88204116Y-76010225D01*
X88238428Y-76119618D01*
X88245754Y-76138453D01*
X88278967Y-76210637D01*
X88321624Y-76287110D01*
X88370165Y-76361901D01*
X88413787Y-76420182D01*
X88435194Y-76447199D01*
X88451902Y-76469194D01*
X88461668Y-76483166D01*
X88463266Y-76486436D01*
X88457356Y-76492865D01*
X88440804Y-76509427D01*
X88414957Y-76534826D01*
X88381165Y-76567768D01*
X88340774Y-76606957D01*
X88295132Y-76651098D01*
X88245588Y-76698897D01*
X88193488Y-76749057D01*
X88140182Y-76800286D01*
X88087017Y-76851286D01*
X88035340Y-76900763D01*
X87986500Y-76947423D01*
X87941845Y-76989969D01*
X87902721Y-77027107D01*
X87870478Y-77057543D01*
X87846463Y-77079980D01*
X87832024Y-77093124D01*
X87830205Y-77094691D01*
X87801205Y-77119086D01*
X87746842Y-77065705D01*
X87645004Y-76954262D01*
X87553661Y-76830509D01*
X87473299Y-76695336D01*
X87404407Y-76549632D01*
X87347469Y-76394284D01*
X87313600Y-76274767D01*
X87300674Y-76216775D01*
X87287723Y-76147259D01*
X87275539Y-76071235D01*
X87264915Y-75993724D01*
X87256645Y-75919742D01*
X87255425Y-75906716D01*
X87252912Y-75868510D01*
X87250918Y-75817596D01*
X87249468Y-75757825D01*
X87248589Y-75693045D01*
X87248305Y-75627106D01*
X87248642Y-75563857D01*
X87249626Y-75507147D01*
X87251281Y-75460826D01*
X87252356Y-75442941D01*
X87273053Y-75256260D01*
X87307420Y-75074785D01*
X87355030Y-74899661D01*
X87377787Y-74836532D01*
X89350310Y-74836532D01*
X89350310Y-76236293D01*
X89414493Y-76219922D01*
X89470290Y-76202514D01*
X89531011Y-76178328D01*
X89590176Y-76150257D01*
X89641304Y-76121195D01*
X89653339Y-76113245D01*
X89695718Y-76079714D01*
X89740653Y-76036860D01*
X89782976Y-75990011D01*
X89817517Y-75944496D01*
X89818654Y-75942793D01*
X89865861Y-75857284D01*
X89900916Y-75762353D01*
X89923275Y-75660392D01*
X89932395Y-75553796D01*
X89929000Y-75457685D01*
X89911293Y-75349023D01*
X89879314Y-75248217D01*
X89833685Y-75156057D01*
X89775025Y-75073330D01*
X89703956Y-75000825D01*
X89621098Y-74939330D01*
X89527073Y-74889632D01*
X89462113Y-74864646D01*
X89429747Y-74854590D01*
X89398495Y-74846112D01*
X89381366Y-74842284D01*
X89350310Y-74836532D01*
X87377787Y-74836532D01*
X87415456Y-74732034D01*
X87488269Y-74573053D01*
X87573042Y-74423861D01*
X87669348Y-74285608D01*
X87697214Y-74250375D01*
X87805326Y-74130221D01*
X87923966Y-74022383D01*
X88052219Y-73927200D01*
X88189173Y-73845011D01*
X88333912Y-73776155D01*
X88485524Y-73720972D01*
X88643095Y-73679801D01*
X88805709Y-73652980D01*
X88972455Y-73640850D01*
X89142417Y-73643750D01*
X89291381Y-73658650D01*
X89350310Y-73669667D01*
X89457676Y-73689740D01*
X89617209Y-73735770D01*
G37*
G36*
X90898231Y-53079140D02*
G01*
X90941676Y-53095703D01*
X90969384Y-53106657D01*
X91010919Y-53124165D01*
X91062862Y-53147208D01*
X91120868Y-53173791D01*
X91180590Y-53201921D01*
X91237683Y-53229603D01*
X91242680Y-53232072D01*
X91470918Y-53354146D01*
X91689789Y-53489570D01*
X91898835Y-53637730D01*
X92097599Y-53798011D01*
X92285620Y-53969798D01*
X92462442Y-54152477D01*
X92627604Y-54345434D01*
X92780648Y-54548055D01*
X92921116Y-54759724D01*
X93048550Y-54979827D01*
X93162490Y-55207750D01*
X93262478Y-55442879D01*
X93348055Y-55684599D01*
X93418764Y-55932295D01*
X93474144Y-56185353D01*
X93482814Y-56233518D01*
X93510293Y-56422652D01*
X93529039Y-56621166D01*
X93538946Y-56824572D01*
X93539910Y-57028384D01*
X93531825Y-57228115D01*
X93514587Y-57419279D01*
X93511224Y-57446788D01*
X93470085Y-57707344D01*
X93413514Y-57962686D01*
X93341829Y-58212258D01*
X93255351Y-58455506D01*
X93154398Y-58691878D01*
X93039290Y-58920817D01*
X92910346Y-59141772D01*
X92767886Y-59354186D01*
X92612229Y-59557507D01*
X92443695Y-59751180D01*
X92262603Y-59934651D01*
X92069272Y-60107367D01*
X91899721Y-60242171D01*
X91684305Y-60394331D01*
X91461329Y-60531992D01*
X91231348Y-60654905D01*
X90994915Y-60762819D01*
X90752585Y-60855483D01*
X90504910Y-60932646D01*
X90252445Y-60994057D01*
X90227604Y-60999191D01*
X90092494Y-61024673D01*
X89962732Y-61044758D01*
X89833404Y-61059987D01*
X89699591Y-61070902D01*
X89556378Y-61078046D01*
X89495240Y-61079972D01*
X89304761Y-61085097D01*
X89335515Y-61047555D01*
X89451323Y-60897329D01*
X89565514Y-60731658D01*
X89677573Y-60551627D01*
X89786981Y-60358316D01*
X89893224Y-60152809D01*
X89995785Y-59936189D01*
X90094147Y-59709538D01*
X90187795Y-59473938D01*
X90276211Y-59230474D01*
X90358879Y-58980226D01*
X90422967Y-58767423D01*
X90461843Y-58628221D01*
X90500316Y-58482348D01*
X90537417Y-58333843D01*
X90572181Y-58186740D01*
X90603638Y-58045077D01*
X90630823Y-57912890D01*
X90642572Y-57851277D01*
X90650618Y-57809546D01*
X90657130Y-57781379D01*
X90663095Y-57763970D01*
X90669502Y-57754512D01*
X90677338Y-57750201D01*
X90678257Y-57749939D01*
X90695548Y-57747744D01*
X90726527Y-57746235D01*
X90768333Y-57745389D01*
X90818104Y-57745182D01*
X90872980Y-57745590D01*
X90930101Y-57746589D01*
X90986605Y-57748156D01*
X91039631Y-57750267D01*
X91086319Y-57752897D01*
X91093610Y-57753408D01*
X91128075Y-57756218D01*
X91176411Y-57760609D01*
X91236026Y-57766321D01*
X91304331Y-57773099D01*
X91378735Y-57780684D01*
X91456647Y-57788818D01*
X91535477Y-57797243D01*
X91549104Y-57798721D01*
X91632727Y-57807783D01*
X91720081Y-57817201D01*
X91807772Y-57826614D01*
X91892404Y-57835657D01*
X91970583Y-57843969D01*
X92038912Y-57851186D01*
X92091556Y-57856692D01*
X92161613Y-57864099D01*
X92238928Y-57872497D01*
X92317831Y-57881256D01*
X92392653Y-57889746D01*
X92457725Y-57897334D01*
X92468373Y-57898605D01*
X92555521Y-57908929D01*
X92628174Y-57917206D01*
X92688257Y-57923564D01*
X92737697Y-57928133D01*
X92778417Y-57931042D01*
X92812344Y-57932418D01*
X92841402Y-57932392D01*
X92867518Y-57931091D01*
X92892615Y-57928644D01*
X92901291Y-57927570D01*
X92969994Y-57913654D01*
X93024483Y-57892340D01*
X93064529Y-57864917D01*
X93089903Y-57832672D01*
X93100375Y-57796894D01*
X93095715Y-57758870D01*
X93075695Y-57719889D01*
X93040083Y-57681237D01*
X92988652Y-57644204D01*
X92955089Y-57625768D01*
X92926667Y-57611985D01*
X92898623Y-57599635D01*
X92868624Y-57587968D01*
X92834335Y-57576231D01*
X92793422Y-57563673D01*
X92743551Y-57549543D01*
X92682389Y-57533088D01*
X92607600Y-57513558D01*
X92602490Y-57512236D01*
X92536959Y-57495140D01*
X92459736Y-57474742D01*
X92375085Y-57452184D01*
X92287270Y-57428608D01*
X92200556Y-57405157D01*
X92119207Y-57382971D01*
X92097257Y-57376945D01*
X92015981Y-57354655D01*
X91926097Y-57330110D01*
X91832331Y-57304594D01*
X91739415Y-57279391D01*
X91652075Y-57255786D01*
X91575040Y-57235063D01*
X91561526Y-57231442D01*
X91416111Y-57191349D01*
X91281336Y-57151840D01*
X91158421Y-57113307D01*
X91048586Y-57076143D01*
X90953052Y-57040740D01*
X90894849Y-57017006D01*
X90856715Y-57000550D01*
X90823633Y-56985966D01*
X90798851Y-56974708D01*
X90785615Y-56968229D01*
X90784854Y-56967777D01*
X90781011Y-56962254D01*
X90779015Y-56950253D01*
X90778894Y-56929521D01*
X90780677Y-56897808D01*
X90784391Y-56852860D01*
X90786566Y-56829150D01*
X90794278Y-56744873D01*
X90800729Y-56669543D01*
X90806028Y-56600480D01*
X90810286Y-56535002D01*
X90813612Y-56470429D01*
X90816117Y-56404080D01*
X90817910Y-56333273D01*
X90819102Y-56255328D01*
X90819802Y-56167564D01*
X90820121Y-56067299D01*
X90820172Y-56009912D01*
X90819866Y-55896915D01*
X90818896Y-55790289D01*
X90817309Y-55691149D01*
X90815147Y-55600610D01*
X90812455Y-55519787D01*
X90809278Y-55449796D01*
X90805661Y-55391751D01*
X90801646Y-55346767D01*
X90797279Y-55315959D01*
X90792604Y-55300443D01*
X90791933Y-55299561D01*
X90788108Y-55304099D01*
X90783024Y-55321715D01*
X90777566Y-55349065D01*
X90775523Y-55361674D01*
X90767090Y-55414547D01*
X90756367Y-55477850D01*
X90743635Y-55550169D01*
X90729176Y-55630089D01*
X90713270Y-55716194D01*
X90696198Y-55807070D01*
X90678242Y-55901303D01*
X90659681Y-55997476D01*
X90640797Y-56094176D01*
X90621871Y-56189988D01*
X90603184Y-56283496D01*
X90585016Y-56373285D01*
X90567649Y-56457941D01*
X90551363Y-56536050D01*
X90536439Y-56606195D01*
X90523159Y-56666962D01*
X90511803Y-56716937D01*
X90502652Y-56754704D01*
X90495988Y-56778848D01*
X90492394Y-56787712D01*
X90482890Y-56786478D01*
X90463304Y-56775618D01*
X90435709Y-56756756D01*
X90402179Y-56731516D01*
X90364790Y-56701522D01*
X90325615Y-56668397D01*
X90286729Y-56633765D01*
X90250206Y-56599250D01*
X90244644Y-56593772D01*
X90174765Y-56520126D01*
X90117552Y-56449779D01*
X90070471Y-56379442D01*
X90045719Y-56335273D01*
X90032132Y-56308065D01*
X90020124Y-56280783D01*
X90009455Y-56251983D01*
X89999881Y-56220217D01*
X89991164Y-56184039D01*
X89983061Y-56142005D01*
X89975331Y-56092667D01*
X89967734Y-56034580D01*
X89960028Y-55966297D01*
X89951972Y-55886374D01*
X89943325Y-55793362D01*
X89933846Y-55685818D01*
X89930022Y-55641376D01*
X89916876Y-55494458D01*
X89903800Y-55362726D01*
X89890530Y-55244804D01*
X89876800Y-55139318D01*
X89862345Y-55044892D01*
X89846901Y-54960153D01*
X89830200Y-54883726D01*
X89811979Y-54814235D01*
X89791972Y-54750306D01*
X89769913Y-54690565D01*
X89745538Y-54633635D01*
X89728785Y-54598417D01*
X89692335Y-54532090D01*
X89655584Y-54481012D01*
X89628661Y-54454886D01*
X90463481Y-54454886D01*
X90463506Y-54526843D01*
X90472442Y-54575689D01*
X90490442Y-54630620D01*
X90515036Y-54677586D01*
X90549784Y-54722851D01*
X90566190Y-54740698D01*
X90622692Y-54788745D01*
X90686905Y-54823763D01*
X90756124Y-54844819D01*
X90827644Y-54850982D01*
X90873440Y-54846667D01*
X90946779Y-54826886D01*
X91011150Y-54794874D01*
X91065982Y-54752466D01*
X91110704Y-54701498D01*
X91144746Y-54643806D01*
X91167536Y-54581225D01*
X91178503Y-54515590D01*
X91177076Y-54448737D01*
X91162685Y-54382502D01*
X91134758Y-54318719D01*
X91092724Y-54259225D01*
X91065100Y-54230591D01*
X91034269Y-54205660D01*
X90996933Y-54180891D01*
X90967093Y-54164623D01*
X90941174Y-54152885D01*
X90919620Y-54145259D01*
X90897518Y-54140867D01*
X90869957Y-54138827D01*
X90832024Y-54138260D01*
X90819873Y-54138245D01*
X90779153Y-54138493D01*
X90750004Y-54139906D01*
X90727433Y-54143490D01*
X90706449Y-54150251D01*
X90682059Y-54161196D01*
X90665352Y-54169378D01*
X90601405Y-54209500D01*
X90548236Y-54260235D01*
X90506854Y-54319459D01*
X90478266Y-54385051D01*
X90463481Y-54454886D01*
X89628661Y-54454886D01*
X89617331Y-54443892D01*
X89576371Y-54419439D01*
X89554530Y-54411569D01*
X89507753Y-54403636D01*
X89460841Y-54407697D01*
X89412360Y-54424382D01*
X89360872Y-54454323D01*
X89304943Y-54498153D01*
X89257347Y-54542353D01*
X89218429Y-54581888D01*
X89181299Y-54622627D01*
X89145221Y-54665769D01*
X89109460Y-54712515D01*
X89073278Y-54764065D01*
X89035938Y-54821620D01*
X88996705Y-54886379D01*
X88954841Y-54959542D01*
X88909611Y-55042310D01*
X88860277Y-55135883D01*
X88806104Y-55241461D01*
X88746354Y-55360245D01*
X88707614Y-55438166D01*
X88671381Y-55510985D01*
X88635846Y-55581799D01*
X88602000Y-55648678D01*
X88570832Y-55709691D01*
X88543332Y-55762906D01*
X88520491Y-55806393D01*
X88503297Y-55838220D01*
X88495495Y-55851951D01*
X88441326Y-55930301D01*
X88375491Y-56001460D01*
X88297177Y-56065988D01*
X88205571Y-56124448D01*
X88099861Y-56177400D01*
X87979234Y-56225407D01*
X87931142Y-56241869D01*
X87890182Y-56255167D01*
X87854654Y-56266364D01*
X87827605Y-56274523D01*
X87812084Y-56278711D01*
X87809865Y-56279067D01*
X87805133Y-56277307D01*
X87803089Y-56270773D01*
X87804112Y-56257581D01*
X87808579Y-56235848D01*
X87816865Y-56203692D01*
X87829349Y-56159228D01*
X87843851Y-56109292D01*
X87947546Y-55764857D01*
X88052104Y-55436881D01*
X88157558Y-55125280D01*
X88263944Y-54829971D01*
X88371295Y-54550869D01*
X88479645Y-54287892D01*
X88589028Y-54040954D01*
X88699479Y-53809974D01*
X88811033Y-53594866D01*
X88923722Y-53395547D01*
X89005568Y-53261788D01*
X89045908Y-53200207D01*
X89091440Y-53134267D01*
X89139769Y-53067176D01*
X89188501Y-53002146D01*
X89235240Y-52942386D01*
X89277594Y-52891107D01*
X89305556Y-52859588D01*
X89362372Y-52798342D01*
X89540609Y-52803363D01*
X89739998Y-52813605D01*
X89933686Y-52833333D01*
X90128082Y-52863323D01*
X90274733Y-52892273D01*
X90358562Y-52910238D01*
X90404665Y-52990071D01*
X90445854Y-53065570D01*
X90487185Y-53149932D01*
X90529322Y-53244700D01*
X90572927Y-53351417D01*
X90618663Y-53471625D01*
X90656011Y-53575089D01*
X90708755Y-53724160D01*
X90703946Y-53628920D01*
X90695205Y-53506149D01*
X90681615Y-53382425D01*
X90663812Y-53262019D01*
X90642432Y-53149203D01*
X90618114Y-53048249D01*
X90616461Y-53042250D01*
X90608747Y-53012986D01*
X90603653Y-52990667D01*
X90602091Y-52979371D01*
X90602278Y-52978799D01*
X90611061Y-52980136D01*
X90632874Y-52986407D01*
X90665233Y-52996744D01*
X90705652Y-53010282D01*
X90751646Y-53026157D01*
X90800731Y-53043501D01*
X90819873Y-53050416D01*
X90850421Y-53061451D01*
X90898231Y-53079140D01*
G37*
G36*
X92000457Y-68693348D02*
G01*
X87304728Y-68693348D01*
X87304728Y-67492500D01*
X92000457Y-67492500D01*
X92000457Y-68693348D01*
G37*
G36*
X169701769Y-130520860D02*
G01*
X169658324Y-130504297D01*
X169630616Y-130493343D01*
X169589081Y-130475835D01*
X169537138Y-130452792D01*
X169479132Y-130426209D01*
X169419410Y-130398079D01*
X169362317Y-130370397D01*
X169357320Y-130367928D01*
X169129082Y-130245854D01*
X168910211Y-130110430D01*
X168701165Y-129962270D01*
X168502401Y-129801989D01*
X168314380Y-129630202D01*
X168137558Y-129447523D01*
X167972396Y-129254566D01*
X167843874Y-129084410D01*
X169421497Y-129084410D01*
X169422924Y-129151263D01*
X169437315Y-129217498D01*
X169465242Y-129281281D01*
X169507276Y-129340775D01*
X169534900Y-129369409D01*
X169565731Y-129394340D01*
X169603067Y-129419109D01*
X169632907Y-129435377D01*
X169658826Y-129447115D01*
X169680380Y-129454741D01*
X169702482Y-129459133D01*
X169730043Y-129461173D01*
X169767976Y-129461740D01*
X169780127Y-129461755D01*
X169820847Y-129461507D01*
X169849996Y-129460094D01*
X169872567Y-129456510D01*
X169893551Y-129449749D01*
X169917941Y-129438804D01*
X169934648Y-129430622D01*
X169998595Y-129390500D01*
X170051764Y-129339765D01*
X170093146Y-129280541D01*
X170121734Y-129214949D01*
X170136519Y-129145114D01*
X170136494Y-129073157D01*
X170127558Y-129024311D01*
X170109558Y-128969380D01*
X170084964Y-128922414D01*
X170050216Y-128877149D01*
X170033810Y-128859302D01*
X169977308Y-128811255D01*
X169913095Y-128776237D01*
X169843876Y-128755181D01*
X169772356Y-128749018D01*
X169726560Y-128753333D01*
X169653221Y-128773114D01*
X169588850Y-128805126D01*
X169534018Y-128847534D01*
X169489296Y-128898502D01*
X169455254Y-128956194D01*
X169432464Y-129018775D01*
X169421497Y-129084410D01*
X167843874Y-129084410D01*
X167819352Y-129051945D01*
X167678884Y-128840276D01*
X167551450Y-128620173D01*
X167437510Y-128392250D01*
X167337522Y-128157121D01*
X167251945Y-127915401D01*
X167181236Y-127667705D01*
X167125856Y-127414647D01*
X167117186Y-127366482D01*
X167089707Y-127177348D01*
X167070961Y-126978834D01*
X167061054Y-126775428D01*
X167060090Y-126571616D01*
X167068175Y-126371885D01*
X167085413Y-126180721D01*
X167088776Y-126153212D01*
X167129915Y-125892656D01*
X167186486Y-125637314D01*
X167258171Y-125387742D01*
X167344649Y-125144494D01*
X167445602Y-124908122D01*
X167560710Y-124679183D01*
X167689654Y-124458228D01*
X167832114Y-124245814D01*
X167987771Y-124042493D01*
X168156305Y-123848820D01*
X168337397Y-123665349D01*
X168530728Y-123492633D01*
X168700279Y-123357829D01*
X168915695Y-123205669D01*
X169138671Y-123068008D01*
X169368652Y-122945095D01*
X169605085Y-122837181D01*
X169847415Y-122744517D01*
X170095090Y-122667354D01*
X170347555Y-122605943D01*
X170372396Y-122600809D01*
X170507506Y-122575327D01*
X170637268Y-122555242D01*
X170766596Y-122540013D01*
X170900409Y-122529098D01*
X171043622Y-122521954D01*
X171104760Y-122520028D01*
X171295239Y-122514903D01*
X171264485Y-122552445D01*
X171148677Y-122702671D01*
X171034486Y-122868342D01*
X170922427Y-123048373D01*
X170813019Y-123241684D01*
X170706776Y-123447191D01*
X170604215Y-123663811D01*
X170505853Y-123890462D01*
X170412205Y-124126062D01*
X170323789Y-124369526D01*
X170241121Y-124619774D01*
X170177033Y-124832577D01*
X170138157Y-124971779D01*
X170099684Y-125117652D01*
X170062583Y-125266157D01*
X170027819Y-125413260D01*
X169996362Y-125554923D01*
X169969177Y-125687110D01*
X169957428Y-125748723D01*
X169949382Y-125790454D01*
X169942870Y-125818621D01*
X169936905Y-125836030D01*
X169930498Y-125845488D01*
X169922662Y-125849799D01*
X169921743Y-125850061D01*
X169904452Y-125852256D01*
X169873473Y-125853765D01*
X169831667Y-125854611D01*
X169781896Y-125854818D01*
X169727020Y-125854410D01*
X169669899Y-125853411D01*
X169613395Y-125851844D01*
X169560369Y-125849733D01*
X169513681Y-125847103D01*
X169506390Y-125846592D01*
X169471925Y-125843782D01*
X169423589Y-125839391D01*
X169363974Y-125833679D01*
X169295669Y-125826901D01*
X169221265Y-125819316D01*
X169143353Y-125811182D01*
X169064523Y-125802757D01*
X169050896Y-125801279D01*
X168967273Y-125792217D01*
X168879919Y-125782799D01*
X168792228Y-125773386D01*
X168707596Y-125764343D01*
X168629417Y-125756031D01*
X168561088Y-125748814D01*
X168508444Y-125743308D01*
X168438387Y-125735901D01*
X168361072Y-125727503D01*
X168282169Y-125718744D01*
X168207347Y-125710254D01*
X168142275Y-125702666D01*
X168131627Y-125701395D01*
X168044479Y-125691071D01*
X167971826Y-125682794D01*
X167911743Y-125676436D01*
X167862303Y-125671867D01*
X167821583Y-125668958D01*
X167787656Y-125667582D01*
X167758598Y-125667608D01*
X167732482Y-125668909D01*
X167707385Y-125671356D01*
X167698709Y-125672430D01*
X167630006Y-125686346D01*
X167575517Y-125707660D01*
X167535471Y-125735083D01*
X167510097Y-125767328D01*
X167499625Y-125803106D01*
X167504285Y-125841130D01*
X167524305Y-125880111D01*
X167559917Y-125918763D01*
X167611348Y-125955796D01*
X167644911Y-125974232D01*
X167673333Y-125988015D01*
X167701377Y-126000365D01*
X167731376Y-126012032D01*
X167765665Y-126023769D01*
X167806578Y-126036327D01*
X167856449Y-126050457D01*
X167917611Y-126066912D01*
X167992400Y-126086442D01*
X167997510Y-126087764D01*
X168063041Y-126104860D01*
X168140264Y-126125258D01*
X168224915Y-126147816D01*
X168312730Y-126171392D01*
X168399444Y-126194843D01*
X168480793Y-126217029D01*
X168502743Y-126223055D01*
X168584019Y-126245345D01*
X168673903Y-126269890D01*
X168767669Y-126295406D01*
X168860585Y-126320609D01*
X168947925Y-126344214D01*
X169024960Y-126364937D01*
X169038474Y-126368558D01*
X169183889Y-126408651D01*
X169318664Y-126448160D01*
X169441579Y-126486693D01*
X169551414Y-126523857D01*
X169646948Y-126559260D01*
X169705151Y-126582994D01*
X169743285Y-126599450D01*
X169776367Y-126614034D01*
X169801149Y-126625292D01*
X169814385Y-126631771D01*
X169815146Y-126632223D01*
X169818989Y-126637746D01*
X169820985Y-126649747D01*
X169821106Y-126670479D01*
X169819323Y-126702192D01*
X169815609Y-126747140D01*
X169813434Y-126770850D01*
X169805722Y-126855127D01*
X169799271Y-126930457D01*
X169793972Y-126999520D01*
X169789714Y-127064998D01*
X169786388Y-127129571D01*
X169783883Y-127195920D01*
X169782090Y-127266727D01*
X169780898Y-127344672D01*
X169780198Y-127432436D01*
X169779879Y-127532701D01*
X169779828Y-127590088D01*
X169780134Y-127703085D01*
X169781104Y-127809711D01*
X169782691Y-127908851D01*
X169784853Y-127999390D01*
X169787545Y-128080213D01*
X169790722Y-128150204D01*
X169794339Y-128208249D01*
X169798354Y-128253233D01*
X169802721Y-128284041D01*
X169807396Y-128299557D01*
X169808067Y-128300439D01*
X169811892Y-128295901D01*
X169816976Y-128278285D01*
X169822434Y-128250935D01*
X169824477Y-128238326D01*
X169832910Y-128185453D01*
X169843633Y-128122150D01*
X169856365Y-128049831D01*
X169870824Y-127969911D01*
X169886730Y-127883806D01*
X169903802Y-127792930D01*
X169921758Y-127698697D01*
X169940319Y-127602524D01*
X169959203Y-127505824D01*
X169978129Y-127410012D01*
X169996816Y-127316504D01*
X170014984Y-127226715D01*
X170032351Y-127142059D01*
X170048637Y-127063950D01*
X170063561Y-126993805D01*
X170076841Y-126933038D01*
X170088197Y-126883063D01*
X170097348Y-126845296D01*
X170104012Y-126821152D01*
X170107606Y-126812288D01*
X170117110Y-126813522D01*
X170136696Y-126824382D01*
X170164291Y-126843244D01*
X170197821Y-126868484D01*
X170235210Y-126898478D01*
X170274385Y-126931603D01*
X170313271Y-126966235D01*
X170349794Y-127000750D01*
X170355356Y-127006228D01*
X170425235Y-127079874D01*
X170482448Y-127150221D01*
X170529529Y-127220558D01*
X170554281Y-127264727D01*
X170567868Y-127291935D01*
X170579876Y-127319217D01*
X170590545Y-127348017D01*
X170600119Y-127379783D01*
X170608836Y-127415961D01*
X170616939Y-127457995D01*
X170624669Y-127507333D01*
X170632266Y-127565420D01*
X170639972Y-127633703D01*
X170648028Y-127713626D01*
X170656675Y-127806638D01*
X170666154Y-127914182D01*
X170669978Y-127958624D01*
X170683124Y-128105542D01*
X170696200Y-128237274D01*
X170709470Y-128355196D01*
X170723200Y-128460682D01*
X170737655Y-128555108D01*
X170753099Y-128639847D01*
X170769800Y-128716274D01*
X170788021Y-128785765D01*
X170808028Y-128849694D01*
X170830087Y-128909435D01*
X170854462Y-128966365D01*
X170871215Y-129001583D01*
X170907665Y-129067910D01*
X170944416Y-129118988D01*
X170982669Y-129156108D01*
X171023629Y-129180561D01*
X171045470Y-129188431D01*
X171092247Y-129196364D01*
X171139159Y-129192303D01*
X171187640Y-129175618D01*
X171239128Y-129145677D01*
X171295057Y-129101847D01*
X171342653Y-129057647D01*
X171381571Y-129018112D01*
X171418701Y-128977373D01*
X171454779Y-128934231D01*
X171490540Y-128887485D01*
X171526722Y-128835935D01*
X171564062Y-128778380D01*
X171603295Y-128713621D01*
X171645159Y-128640458D01*
X171690389Y-128557690D01*
X171739723Y-128464117D01*
X171793896Y-128358539D01*
X171853646Y-128239755D01*
X171892386Y-128161834D01*
X171928619Y-128089015D01*
X171964154Y-128018201D01*
X171998000Y-127951322D01*
X172029168Y-127890309D01*
X172056668Y-127837094D01*
X172079509Y-127793607D01*
X172096703Y-127761780D01*
X172104505Y-127748049D01*
X172158674Y-127669699D01*
X172224509Y-127598540D01*
X172302823Y-127534012D01*
X172394429Y-127475552D01*
X172500139Y-127422600D01*
X172620766Y-127374593D01*
X172668858Y-127358131D01*
X172709818Y-127344833D01*
X172745346Y-127333636D01*
X172772395Y-127325477D01*
X172787916Y-127321289D01*
X172790135Y-127320933D01*
X172794867Y-127322693D01*
X172796911Y-127329227D01*
X172795888Y-127342419D01*
X172791421Y-127364152D01*
X172783135Y-127396308D01*
X172770651Y-127440772D01*
X172756149Y-127490708D01*
X172652454Y-127835143D01*
X172547896Y-128163119D01*
X172442442Y-128474720D01*
X172336056Y-128770029D01*
X172228705Y-129049131D01*
X172120355Y-129312108D01*
X172010972Y-129559046D01*
X171900521Y-129790026D01*
X171788967Y-130005134D01*
X171676278Y-130204453D01*
X171594432Y-130338212D01*
X171554092Y-130399793D01*
X171508560Y-130465733D01*
X171460231Y-130532824D01*
X171411499Y-130597854D01*
X171364760Y-130657614D01*
X171322406Y-130708893D01*
X171294444Y-130740412D01*
X171237628Y-130801658D01*
X171059391Y-130796637D01*
X170860002Y-130786395D01*
X170666314Y-130766667D01*
X170471918Y-130736677D01*
X170325267Y-130707727D01*
X170241438Y-130689762D01*
X170195335Y-130609929D01*
X170154146Y-130534430D01*
X170112815Y-130450068D01*
X170070678Y-130355300D01*
X170027073Y-130248583D01*
X169981337Y-130128375D01*
X169943989Y-130024911D01*
X169891245Y-129875840D01*
X169896054Y-129971080D01*
X169904795Y-130093851D01*
X169918385Y-130217575D01*
X169936188Y-130337981D01*
X169957568Y-130450797D01*
X169981886Y-130551751D01*
X169983539Y-130557750D01*
X169991253Y-130587014D01*
X169996347Y-130609333D01*
X169997909Y-130620629D01*
X169997722Y-130621201D01*
X169988939Y-130619864D01*
X169967126Y-130613593D01*
X169934767Y-130603256D01*
X169894348Y-130589718D01*
X169848354Y-130573843D01*
X169799269Y-130556499D01*
X169780127Y-130549584D01*
X169749579Y-130538549D01*
X169701769Y-130520860D01*
G37*
G36*
X173295272Y-116107500D02*
G01*
X168599543Y-116107500D01*
X168599543Y-114906652D01*
X173295272Y-114906652D01*
X173295272Y-116107500D01*
G37*
G36*
X173164291Y-95876693D02*
G01*
X173171375Y-95888879D01*
X173183638Y-95911578D01*
X173198787Y-95940522D01*
X173203570Y-95949821D01*
X173252623Y-96061515D01*
X173292066Y-96185938D01*
X173321729Y-96322212D01*
X173341442Y-96469455D01*
X173351037Y-96626788D01*
X173351919Y-96719969D01*
X173351359Y-96772085D01*
X173350598Y-96820316D01*
X173349702Y-96861514D01*
X173348741Y-96892533D01*
X173347784Y-96910224D01*
X173347758Y-96910499D01*
X173333577Y-97024522D01*
X173313971Y-97135305D01*
X173289879Y-97238111D01*
X173269136Y-97308021D01*
X173217604Y-97440522D01*
X173154422Y-97561353D01*
X173079796Y-97670318D01*
X172993932Y-97767224D01*
X172897036Y-97851877D01*
X172789313Y-97924082D01*
X172670970Y-97983646D01*
X172542212Y-98030376D01*
X172486285Y-98045823D01*
X172452258Y-98054283D01*
X172420581Y-98061709D01*
X172389965Y-98068169D01*
X172359123Y-98073729D01*
X172326764Y-98078458D01*
X172291601Y-98082422D01*
X172252345Y-98085688D01*
X172207706Y-98088324D01*
X172156397Y-98090396D01*
X172097128Y-98091973D01*
X172028611Y-98093121D01*
X171949557Y-98093908D01*
X171858677Y-98094400D01*
X171754683Y-98094664D01*
X171636285Y-98094769D01*
X171547407Y-98094784D01*
X170893577Y-98094784D01*
X170893577Y-98599968D01*
X169990870Y-98599968D01*
X169990870Y-98094784D01*
X169096446Y-98094784D01*
X169096446Y-96893936D01*
X169990870Y-96893936D01*
X169990870Y-96107174D01*
X170893577Y-96107174D01*
X170893577Y-96894632D01*
X171508493Y-96891812D01*
X171627043Y-96891272D01*
X171730256Y-96890760D01*
X171819360Y-96890193D01*
X171895580Y-96889487D01*
X171960145Y-96888560D01*
X172014280Y-96887330D01*
X172059213Y-96885712D01*
X172096170Y-96883626D01*
X172126377Y-96880987D01*
X172151063Y-96877713D01*
X172171452Y-96873722D01*
X172188773Y-96868930D01*
X172204251Y-96863254D01*
X172219115Y-96856613D01*
X172234589Y-96848922D01*
X172248396Y-96841876D01*
X172290198Y-96813999D01*
X172331192Y-96775097D01*
X172366776Y-96730269D01*
X172392345Y-96684612D01*
X172393990Y-96680654D01*
X172401997Y-96658824D01*
X172407420Y-96637665D01*
X172410730Y-96613194D01*
X172412400Y-96581429D01*
X172412902Y-96538390D01*
X172412892Y-96521259D01*
X172411313Y-96454887D01*
X172406159Y-96399756D01*
X172396303Y-96350728D01*
X172380616Y-96302661D01*
X172357969Y-96250416D01*
X172349635Y-96233130D01*
X172335269Y-96202963D01*
X172324667Y-96178981D01*
X172319293Y-96164588D01*
X172319060Y-96162015D01*
X172327238Y-96158879D01*
X172349596Y-96150765D01*
X172384691Y-96138187D01*
X172431075Y-96121660D01*
X172487304Y-96101696D01*
X172551931Y-96078810D01*
X172623512Y-96053514D01*
X172700600Y-96026324D01*
X172739499Y-96012621D01*
X172834637Y-95979222D01*
X172915266Y-95951150D01*
X172982442Y-95928070D01*
X173037219Y-95909643D01*
X173080653Y-95895532D01*
X173113799Y-95885398D01*
X173137712Y-95878905D01*
X173153448Y-95875714D01*
X173162062Y-95875489D01*
X173164291Y-95876693D01*
G37*
G36*
X172068324Y-102389226D02*
G01*
X171985137Y-102368320D01*
X171874565Y-102325837D01*
X171773070Y-102269534D01*
X171680712Y-102199484D01*
X171597551Y-102115762D01*
X171523647Y-102018441D01*
X171459061Y-101907596D01*
X171403855Y-101783300D01*
X171358087Y-101645628D01*
X171340607Y-101579412D01*
X171325653Y-101514962D01*
X171312734Y-101451470D01*
X171301718Y-101387222D01*
X171292475Y-101320500D01*
X171284871Y-101249588D01*
X171278775Y-101172769D01*
X171274056Y-101088327D01*
X171270580Y-100994544D01*
X171268218Y-100889705D01*
X171266836Y-100772093D01*
X171266303Y-100639992D01*
X171266287Y-100611723D01*
X171266253Y-100201079D01*
X171214493Y-100208083D01*
X171122472Y-100226961D01*
X171041333Y-100257532D01*
X170969587Y-100300475D01*
X170920315Y-100341909D01*
X170864858Y-100404507D01*
X170819334Y-100476796D01*
X170782984Y-100560313D01*
X170755049Y-100656595D01*
X170747404Y-100692156D01*
X170740106Y-100742253D01*
X170735113Y-100804573D01*
X170732427Y-100874934D01*
X170732047Y-100949157D01*
X170733973Y-101023061D01*
X170738206Y-101092467D01*
X170744746Y-101153193D01*
X170747378Y-101170425D01*
X170775350Y-101305514D01*
X170813225Y-101437671D01*
X170859842Y-101563811D01*
X170914039Y-101680848D01*
X170974653Y-101785698D01*
X170984899Y-101801179D01*
X171024411Y-101859734D01*
X170207157Y-102268262D01*
X170177429Y-102220893D01*
X170107150Y-102097036D01*
X170042702Y-101959289D01*
X169984700Y-101809482D01*
X169933757Y-101649447D01*
X169890489Y-101481013D01*
X169855509Y-101306011D01*
X169841976Y-101221129D01*
X169824103Y-101071013D01*
X169813195Y-100914824D01*
X169809196Y-100756157D01*
X169812046Y-100598611D01*
X169821689Y-100445781D01*
X169838065Y-100301265D01*
X169855639Y-100198338D01*
X171895663Y-100198338D01*
X171895807Y-100481986D01*
X171896180Y-100582081D01*
X171897261Y-100667396D01*
X171899156Y-100739703D01*
X171901971Y-100800776D01*
X171905813Y-100852387D01*
X171910787Y-100896307D01*
X171917000Y-100934311D01*
X171924558Y-100968171D01*
X171925059Y-100970116D01*
X171952027Y-101049254D01*
X171988368Y-101114809D01*
X172034023Y-101166725D01*
X172088931Y-101204949D01*
X172153032Y-101229423D01*
X172217830Y-101239602D01*
X172292288Y-101237195D01*
X172360489Y-101219856D01*
X172421589Y-101188309D01*
X172474745Y-101143277D01*
X172519112Y-101085482D01*
X172553848Y-101015647D01*
X172578110Y-100934493D01*
X172579041Y-100930110D01*
X172585911Y-100879660D01*
X172588550Y-100818950D01*
X172587176Y-100753673D01*
X172582006Y-100689523D01*
X172573259Y-100632195D01*
X172566582Y-100604141D01*
X172540804Y-100527616D01*
X172508947Y-100462189D01*
X172468020Y-100402688D01*
X172417625Y-100346546D01*
X172381396Y-100311342D01*
X172350361Y-100285038D01*
X172319226Y-100263711D01*
X172282700Y-100243440D01*
X172269569Y-100236813D01*
X172192121Y-100198338D01*
X171895663Y-100198338D01*
X169855639Y-100198338D01*
X169858752Y-100180106D01*
X169899005Y-100015703D01*
X169950480Y-99863322D01*
X170013109Y-99723042D01*
X170086822Y-99594937D01*
X170171552Y-99479084D01*
X170267229Y-99375560D01*
X170373784Y-99284441D01*
X170491148Y-99205802D01*
X170619253Y-99139721D01*
X170758029Y-99086274D01*
X170877013Y-99052584D01*
X170905965Y-99045538D01*
X170932204Y-99039184D01*
X170956682Y-99033484D01*
X170980356Y-99028400D01*
X171004181Y-99023895D01*
X171029110Y-99019931D01*
X171056098Y-99016469D01*
X171086101Y-99013473D01*
X171120072Y-99010905D01*
X171158967Y-99008727D01*
X171203741Y-99006900D01*
X171255348Y-99005388D01*
X171314742Y-99004152D01*
X171382879Y-99003156D01*
X171460713Y-99002360D01*
X171549199Y-99001728D01*
X171649292Y-99001221D01*
X171761946Y-99000802D01*
X171888117Y-99000433D01*
X172028758Y-99000076D01*
X172184825Y-98999694D01*
X172216579Y-98999615D01*
X173295272Y-98996905D01*
X173295272Y-100115520D01*
X173077877Y-100115522D01*
X172860482Y-100115523D01*
X172923670Y-100156009D01*
X173017025Y-100225518D01*
X173099270Y-100307215D01*
X173170296Y-100400906D01*
X173229992Y-100506394D01*
X173278249Y-100623484D01*
X173314956Y-100751981D01*
X173340004Y-100891690D01*
X173340631Y-100896496D01*
X173344690Y-100938187D01*
X173347945Y-100991678D01*
X173350326Y-101052758D01*
X173351762Y-101117218D01*
X173352183Y-101180847D01*
X173351520Y-101239435D01*
X173349702Y-101288772D01*
X173347622Y-101316368D01*
X173324902Y-101474381D01*
X173290308Y-101621121D01*
X173243879Y-101756495D01*
X173185653Y-101880413D01*
X173115668Y-101992781D01*
X173033961Y-102093509D01*
X173020352Y-102107968D01*
X172929876Y-102192461D01*
X172834586Y-102261924D01*
X172732454Y-102317657D01*
X172628594Y-102358622D01*
X172523070Y-102386494D01*
X172410201Y-102403551D01*
X172294067Y-102409734D01*
X172217830Y-102406590D01*
X172178748Y-102404979D01*
X172068324Y-102389226D01*
G37*
G36*
X172232362Y-102733481D02*
G01*
X172297772Y-102735919D01*
X172359919Y-102740439D01*
X172414523Y-102746874D01*
X172457306Y-102755058D01*
X172460460Y-102755883D01*
X172582356Y-102796845D01*
X172695600Y-102851783D01*
X172800278Y-102920773D01*
X172896474Y-103003887D01*
X172984275Y-103101202D01*
X173063764Y-103212790D01*
X173135028Y-103338727D01*
X173140468Y-103349609D01*
X173197006Y-103476709D01*
X173244740Y-103612410D01*
X173284161Y-103758454D01*
X173315759Y-103916579D01*
X173333143Y-104032769D01*
X173337373Y-104074523D01*
X173341099Y-104129775D01*
X173344268Y-104195463D01*
X173346829Y-104268527D01*
X173348730Y-104345908D01*
X173349919Y-104424544D01*
X173350344Y-104501376D01*
X173349953Y-104573342D01*
X173348695Y-104637384D01*
X173346517Y-104690440D01*
X173344723Y-104716010D01*
X173317891Y-104950965D01*
X173279117Y-105175090D01*
X173228237Y-105389201D01*
X173169434Y-105581448D01*
X173153151Y-105626403D01*
X173133644Y-105675787D01*
X173112045Y-105727182D01*
X173089484Y-105778169D01*
X173067091Y-105826332D01*
X173045996Y-105869251D01*
X173027330Y-105904509D01*
X173012223Y-105929686D01*
X173001805Y-105942365D01*
X173000337Y-105943207D01*
X172991215Y-105940682D01*
X172968666Y-105932190D01*
X172934407Y-105918475D01*
X172890156Y-105900276D01*
X172837631Y-105878336D01*
X172778549Y-105853395D01*
X172714628Y-105826196D01*
X172647585Y-105797478D01*
X172579138Y-105767985D01*
X172511004Y-105738456D01*
X172444902Y-105709633D01*
X172382548Y-105682258D01*
X172325660Y-105657072D01*
X172275956Y-105634816D01*
X172235153Y-105616232D01*
X172204969Y-105602061D01*
X172187121Y-105593044D01*
X172183113Y-105590482D01*
X172183963Y-105580893D01*
X172191925Y-105560914D01*
X172205431Y-105534260D01*
X172211132Y-105524121D01*
X172270203Y-105409662D01*
X172323567Y-105282286D01*
X172370610Y-105144836D01*
X172410718Y-105000157D01*
X172443277Y-104851091D01*
X172467674Y-104700482D01*
X172483293Y-104551175D01*
X172489523Y-104406012D01*
X172485748Y-104267837D01*
X172484902Y-104255916D01*
X172475069Y-104158530D01*
X172461030Y-104076375D01*
X172442351Y-104008557D01*
X172418599Y-103954179D01*
X172389340Y-103912346D01*
X172354139Y-103882162D01*
X172312564Y-103862730D01*
X172291932Y-103857311D01*
X172263900Y-103852340D01*
X172243801Y-103852624D01*
X172223569Y-103859136D01*
X172205358Y-103867747D01*
X172180876Y-103882171D01*
X172158907Y-103900594D01*
X172139080Y-103924195D01*
X172121027Y-103954155D01*
X172104377Y-103991654D01*
X172088761Y-104037869D01*
X172073808Y-104093983D01*
X172059150Y-104161173D01*
X172044417Y-104240620D01*
X172029238Y-104333503D01*
X172013245Y-104441002D01*
X172003099Y-104513043D01*
X171989651Y-104608602D01*
X171977637Y-104690314D01*
X171966593Y-104760785D01*
X171956058Y-104822624D01*
X171945568Y-104878437D01*
X171934662Y-104930832D01*
X171922878Y-104982416D01*
X171911967Y-105027005D01*
X171869511Y-105173886D01*
X171819384Y-105306231D01*
X171761363Y-105424298D01*
X171695226Y-105528347D01*
X171620751Y-105618637D01*
X171537713Y-105695425D01*
X171445892Y-105758971D01*
X171345063Y-105809534D01*
X171235005Y-105847370D01*
X171197357Y-105856937D01*
X171167469Y-105863362D01*
X171138602Y-105868061D01*
X171107333Y-105871283D01*
X171070240Y-105873278D01*
X171023900Y-105874298D01*
X170964892Y-105874590D01*
X170955689Y-105874588D01*
X170897435Y-105874386D01*
X170852390Y-105873681D01*
X170817203Y-105872178D01*
X170788522Y-105869581D01*
X170762993Y-105865595D01*
X170737266Y-105859925D01*
X170710768Y-105853030D01*
X170586348Y-105811173D01*
X170470647Y-105755307D01*
X170363754Y-105685563D01*
X170265761Y-105602069D01*
X170176756Y-105504957D01*
X170096832Y-105394356D01*
X170026078Y-105270396D01*
X169964585Y-105133207D01*
X169912443Y-104982920D01*
X169869743Y-104819665D01*
X169836575Y-104643571D01*
X169827850Y-104583502D01*
X169822348Y-104530653D01*
X169818039Y-104464376D01*
X169814923Y-104387764D01*
X169812997Y-104303908D01*
X169812260Y-104215901D01*
X169812711Y-104126835D01*
X169814348Y-104039802D01*
X169817170Y-103957896D01*
X169821174Y-103884207D01*
X169826360Y-103821829D01*
X169828238Y-103805022D01*
X169854789Y-103619589D01*
X169888347Y-103444878D01*
X169928630Y-103281974D01*
X169975355Y-103131961D01*
X170028241Y-102995922D01*
X170053093Y-102941391D01*
X170097806Y-102847958D01*
X170125085Y-102859407D01*
X170139509Y-102865618D01*
X170166545Y-102877411D01*
X170204471Y-102894026D01*
X170251570Y-102914707D01*
X170306121Y-102938694D01*
X170366406Y-102965229D01*
X170430704Y-102993554D01*
X170497297Y-103022909D01*
X170564464Y-103052537D01*
X170630488Y-103081679D01*
X170693648Y-103109577D01*
X170752225Y-103135472D01*
X170804499Y-103158605D01*
X170848752Y-103178219D01*
X170883263Y-103193554D01*
X170906314Y-103203853D01*
X170916184Y-103208357D01*
X170916423Y-103208487D01*
X170913791Y-103216150D01*
X170905114Y-103236071D01*
X170891588Y-103265613D01*
X170874410Y-103302138D01*
X170865254Y-103321304D01*
X170794973Y-103484667D01*
X170740578Y-103649489D01*
X170701687Y-103817444D01*
X170677921Y-103990207D01*
X170668899Y-104169452D01*
X170668797Y-104185980D01*
X170671434Y-104305418D01*
X170680105Y-104409804D01*
X170694941Y-104499562D01*
X170716078Y-104575116D01*
X170743647Y-104636891D01*
X170777782Y-104685312D01*
X170818616Y-104720803D01*
X170840523Y-104733316D01*
X170887872Y-104748958D01*
X170932421Y-104748507D01*
X170973780Y-104732256D01*
X171011560Y-104700500D01*
X171045371Y-104653533D01*
X171074821Y-104591648D01*
X171091181Y-104544418D01*
X171100666Y-104510878D01*
X171110124Y-104471898D01*
X171119872Y-104425766D01*
X171130223Y-104370775D01*
X171141492Y-104305215D01*
X171153994Y-104227375D01*
X171168044Y-104135548D01*
X171174728Y-104090741D01*
X171198913Y-103936532D01*
X171223633Y-103797570D01*
X171249291Y-103672539D01*
X171276288Y-103560121D01*
X171305029Y-103459000D01*
X171335915Y-103367860D01*
X171369350Y-103285385D01*
X171405736Y-103210258D01*
X171445476Y-103141163D01*
X171482063Y-103086375D01*
X171557469Y-102993815D01*
X171641936Y-102915117D01*
X171735477Y-102850271D01*
X171838108Y-102799270D01*
X171949843Y-102762104D01*
X172059342Y-102740315D01*
X172108868Y-102735513D01*
X172167968Y-102733290D01*
X172232362Y-102733481D01*
G37*
G36*
X170982791Y-109864230D02*
G01*
X170830605Y-109803688D01*
X170686353Y-109729065D01*
X170550620Y-109640788D01*
X170423994Y-109539288D01*
X170307060Y-109424992D01*
X170200404Y-109298331D01*
X170104613Y-109159734D01*
X170020273Y-109009629D01*
X170011442Y-108991867D01*
X169947721Y-108848612D01*
X169896849Y-108703783D01*
X169858229Y-108554845D01*
X169831266Y-108399265D01*
X169815364Y-108234510D01*
X169811130Y-108139480D01*
X169809948Y-108046204D01*
X170667605Y-108046204D01*
X170671000Y-108142315D01*
X170688707Y-108250977D01*
X170720686Y-108351783D01*
X170766315Y-108443943D01*
X170824975Y-108526670D01*
X170896044Y-108599175D01*
X170978902Y-108660670D01*
X171072927Y-108710368D01*
X171137887Y-108735354D01*
X171170253Y-108745410D01*
X171201505Y-108753888D01*
X171218634Y-108757716D01*
X171249690Y-108763468D01*
X171249690Y-107363707D01*
X171185507Y-107380078D01*
X171129710Y-107397486D01*
X171068989Y-107421672D01*
X171009824Y-107449743D01*
X170958696Y-107478805D01*
X170946661Y-107486755D01*
X170904282Y-107520286D01*
X170859347Y-107563140D01*
X170817024Y-107609989D01*
X170782483Y-107655504D01*
X170781346Y-107657207D01*
X170734139Y-107742716D01*
X170699084Y-107837647D01*
X170676725Y-107939608D01*
X170667605Y-108046204D01*
X169809948Y-108046204D01*
X169809721Y-108028244D01*
X169812354Y-107928090D01*
X169819420Y-107833946D01*
X169831315Y-107740737D01*
X169848432Y-107643390D01*
X169850379Y-107633565D01*
X169892284Y-107462344D01*
X169947460Y-107300198D01*
X170015450Y-107147607D01*
X170095799Y-107005051D01*
X170188051Y-106873009D01*
X170291750Y-106751961D01*
X170406441Y-106642386D01*
X170531668Y-106544764D01*
X170666974Y-106459574D01*
X170811905Y-106387297D01*
X170966003Y-106328412D01*
X171128815Y-106283397D01*
X171134830Y-106282042D01*
X171240815Y-106261188D01*
X171343960Y-106247119D01*
X171449489Y-106239383D01*
X171562628Y-106237523D01*
X171630649Y-106238860D01*
X171685210Y-106240714D01*
X171737010Y-106242821D01*
X171782690Y-106245016D01*
X171818894Y-106247138D01*
X171842265Y-106249024D01*
X171843903Y-106249209D01*
X171887382Y-106254374D01*
X171887382Y-108746177D01*
X171906015Y-108740568D01*
X171936860Y-108729057D01*
X171976610Y-108711114D01*
X172020258Y-108689296D01*
X172062798Y-108666162D01*
X172099223Y-108644267D01*
X172113833Y-108634403D01*
X172164777Y-108593148D01*
X172216203Y-108543135D01*
X172262125Y-108490465D01*
X172284105Y-108460777D01*
X172334102Y-108374108D01*
X172374134Y-108276422D01*
X172404037Y-108170055D01*
X172423648Y-108057344D01*
X172432802Y-107940625D01*
X172431335Y-107822233D01*
X172419084Y-107704504D01*
X172395884Y-107589775D01*
X172361572Y-107480382D01*
X172354246Y-107461547D01*
X172321033Y-107389363D01*
X172278376Y-107312890D01*
X172229835Y-107238099D01*
X172186213Y-107179818D01*
X172164806Y-107152801D01*
X172148098Y-107130806D01*
X172138332Y-107116834D01*
X172136734Y-107113564D01*
X172142644Y-107107135D01*
X172159196Y-107090573D01*
X172185043Y-107065174D01*
X172218835Y-107032232D01*
X172259226Y-106993043D01*
X172304868Y-106948902D01*
X172354412Y-106901103D01*
X172406512Y-106850943D01*
X172459818Y-106799714D01*
X172512983Y-106748714D01*
X172564660Y-106699237D01*
X172613500Y-106652577D01*
X172658155Y-106610031D01*
X172697279Y-106572893D01*
X172729522Y-106542457D01*
X172753537Y-106520020D01*
X172767976Y-106506876D01*
X172769795Y-106505309D01*
X172798795Y-106480914D01*
X172853158Y-106534295D01*
X172954996Y-106645738D01*
X173046339Y-106769491D01*
X173126701Y-106904664D01*
X173195593Y-107050368D01*
X173252531Y-107205716D01*
X173286400Y-107325233D01*
X173299326Y-107383225D01*
X173312277Y-107452741D01*
X173324461Y-107528765D01*
X173335085Y-107606276D01*
X173343355Y-107680258D01*
X173344575Y-107693284D01*
X173347088Y-107731490D01*
X173349082Y-107782404D01*
X173350532Y-107842175D01*
X173351411Y-107906955D01*
X173351695Y-107972894D01*
X173351358Y-108036143D01*
X173350374Y-108092853D01*
X173348719Y-108139174D01*
X173347644Y-108157059D01*
X173326947Y-108343740D01*
X173292580Y-108525215D01*
X173244970Y-108700339D01*
X173184544Y-108867966D01*
X173111731Y-109026947D01*
X173026958Y-109176139D01*
X172930652Y-109314392D01*
X172902786Y-109349625D01*
X172794674Y-109469779D01*
X172676034Y-109577617D01*
X172547781Y-109672800D01*
X172410827Y-109754989D01*
X172266088Y-109823845D01*
X172114476Y-109879028D01*
X171956905Y-109920199D01*
X171794291Y-109947020D01*
X171627545Y-109959150D01*
X171457583Y-109956250D01*
X171308619Y-109941350D01*
X171249690Y-109930333D01*
X171142324Y-109910260D01*
X170982791Y-109864230D01*
G37*
G36*
X173295272Y-111668504D02*
G01*
X172938061Y-111668504D01*
X172996771Y-111732687D01*
X173088568Y-111843580D01*
X173166181Y-111960486D01*
X173230300Y-112084821D01*
X173281618Y-112218004D01*
X173320824Y-112361449D01*
X173333519Y-112423349D01*
X173339530Y-112466539D01*
X173344242Y-112522534D01*
X173347604Y-112587623D01*
X173349563Y-112658094D01*
X173350071Y-112730235D01*
X173349075Y-112800336D01*
X173346524Y-112864685D01*
X173342368Y-112919571D01*
X173340556Y-112935605D01*
X173313493Y-113092474D01*
X173273104Y-113239688D01*
X173219672Y-113376933D01*
X173153483Y-113503897D01*
X173074821Y-113620265D01*
X172983972Y-113725725D01*
X172881219Y-113819962D01*
X172766848Y-113902664D01*
X172641142Y-113973517D01*
X172504387Y-114032207D01*
X172356868Y-114078421D01*
X172287579Y-114094949D01*
X172258725Y-114101241D01*
X172232540Y-114106914D01*
X172208069Y-114112002D01*
X172184354Y-114116539D01*
X172160437Y-114120559D01*
X172135362Y-114124097D01*
X172108172Y-114127187D01*
X172077909Y-114129862D01*
X172043616Y-114132158D01*
X172004336Y-114134107D01*
X171959113Y-114135745D01*
X171906988Y-114137105D01*
X171847005Y-114138221D01*
X171778206Y-114139128D01*
X171699635Y-114139860D01*
X171610335Y-114140450D01*
X171509347Y-114140934D01*
X171395716Y-114141345D01*
X171268483Y-114141717D01*
X171126693Y-114142084D01*
X170969387Y-114142481D01*
X170953619Y-114142521D01*
X169866645Y-114145315D01*
X169866645Y-112944962D01*
X170804548Y-112941406D01*
X170954740Y-112940837D01*
X171089363Y-112940301D01*
X171209413Y-112939749D01*
X171315885Y-112939133D01*
X171409775Y-112938406D01*
X171492076Y-112937519D01*
X171563785Y-112936426D01*
X171625896Y-112935077D01*
X171679404Y-112933426D01*
X171725305Y-112931425D01*
X171764594Y-112929024D01*
X171798265Y-112926178D01*
X171827314Y-112922838D01*
X171852735Y-112918956D01*
X171875525Y-112914484D01*
X171896677Y-112909375D01*
X171917188Y-112903580D01*
X171938052Y-112897052D01*
X171960263Y-112889743D01*
X171973922Y-112885205D01*
X172062618Y-112848522D01*
X172138411Y-112801496D01*
X172201468Y-112743955D01*
X172251961Y-112675724D01*
X172290057Y-112596632D01*
X172306543Y-112545703D01*
X172314535Y-112503971D01*
X172319682Y-112450936D01*
X172321972Y-112391616D01*
X172321395Y-112331028D01*
X172317938Y-112274187D01*
X172311592Y-112226111D01*
X172307301Y-112206815D01*
X172274684Y-112112681D01*
X172230097Y-112029103D01*
X172173235Y-111955828D01*
X172103793Y-111892603D01*
X172021465Y-111839174D01*
X171925945Y-111795287D01*
X171816927Y-111760690D01*
X171750986Y-111745505D01*
X171738944Y-111743354D01*
X171724509Y-111741426D01*
X171706716Y-111739705D01*
X171684604Y-111738175D01*
X171657209Y-111736818D01*
X171623569Y-111735619D01*
X171582722Y-111734562D01*
X171533704Y-111733629D01*
X171475553Y-111732804D01*
X171407306Y-111732071D01*
X171328000Y-111731414D01*
X171236673Y-111730815D01*
X171132363Y-111730259D01*
X171014105Y-111729728D01*
X170880939Y-111729207D01*
X170775562Y-111728830D01*
X169866645Y-111725667D01*
X169866645Y-110525628D01*
X173295272Y-110525628D01*
X173295272Y-111668504D01*
G37*
G36*
X168599543Y-119304239D02*
G01*
X170158166Y-119304239D01*
X170114835Y-119256827D01*
X170033335Y-119155739D01*
X169964361Y-119044432D01*
X169907798Y-118922641D01*
X169863530Y-118790101D01*
X169831445Y-118646548D01*
X169829370Y-118632971D01*
X170769260Y-118632971D01*
X170781081Y-118736668D01*
X170807122Y-118838501D01*
X170844495Y-118930244D01*
X170864060Y-118968908D01*
X170881737Y-118999416D01*
X170900824Y-119026277D01*
X170924623Y-119053998D01*
X170956434Y-119087086D01*
X170967353Y-119098054D01*
X171002222Y-119132253D01*
X171030450Y-119157618D01*
X171056647Y-119177474D01*
X171085421Y-119195143D01*
X171121381Y-119213950D01*
X171142281Y-119224228D01*
X171258204Y-119271660D01*
X171378738Y-119303311D01*
X171504074Y-119319206D01*
X171634401Y-119319373D01*
X171743430Y-119308044D01*
X171860410Y-119283662D01*
X171967418Y-119247010D01*
X172063893Y-119198580D01*
X172149272Y-119138866D01*
X172222993Y-119068362D01*
X172284494Y-118987561D01*
X172333213Y-118896955D01*
X172368587Y-118797040D01*
X172379963Y-118749365D01*
X172386742Y-118701913D01*
X172390460Y-118644514D01*
X172391112Y-118583131D01*
X172388694Y-118523728D01*
X172383202Y-118472268D01*
X172380169Y-118455364D01*
X172350342Y-118350405D01*
X172306916Y-118254610D01*
X172250448Y-118168544D01*
X172181498Y-118092771D01*
X172100621Y-118027859D01*
X172008378Y-117974371D01*
X171905325Y-117932873D01*
X171848314Y-117916389D01*
X171728926Y-117892832D01*
X171610229Y-117882383D01*
X171493766Y-117884643D01*
X171381081Y-117899215D01*
X171273717Y-117925700D01*
X171173217Y-117963702D01*
X171081124Y-118012820D01*
X170998981Y-118072659D01*
X170928330Y-118142820D01*
X170916923Y-118156552D01*
X170860446Y-118239559D01*
X170817254Y-118330706D01*
X170787534Y-118427990D01*
X170771474Y-118529412D01*
X170769260Y-118632971D01*
X169829370Y-118632971D01*
X169820547Y-118575246D01*
X169814933Y-118516814D01*
X169811545Y-118446795D01*
X169810314Y-118369559D01*
X169811169Y-118289476D01*
X169814041Y-118210915D01*
X169818860Y-118138245D01*
X169825555Y-118075835D01*
X169828915Y-118053701D01*
X169864948Y-117888064D01*
X169915148Y-117730588D01*
X169978985Y-117581794D01*
X170055929Y-117442202D01*
X170145451Y-117312335D01*
X170247021Y-117192713D01*
X170360110Y-117083859D01*
X170484187Y-116986292D01*
X170618722Y-116900536D01*
X170763187Y-116827110D01*
X170917051Y-116766537D01*
X171079785Y-116719337D01*
X171212422Y-116692159D01*
X171356548Y-116673549D01*
X171507595Y-116664784D01*
X171661371Y-116665716D01*
X171813686Y-116676194D01*
X171960348Y-116696068D01*
X172090931Y-116723593D01*
X172249380Y-116771346D01*
X172401406Y-116832317D01*
X172545139Y-116905585D01*
X172678709Y-116990228D01*
X172765668Y-117056167D01*
X172812009Y-117096749D01*
X172863799Y-117146599D01*
X172916959Y-117201437D01*
X172967409Y-117256984D01*
X173011068Y-117308960D01*
X173029727Y-117333148D01*
X173119250Y-117467697D01*
X173195107Y-117611050D01*
X173256835Y-117762013D01*
X173303971Y-117919391D01*
X173336054Y-118081989D01*
X173344385Y-118146544D01*
X173347919Y-118191150D01*
X173350343Y-118247778D01*
X173351659Y-118312012D01*
X173351872Y-118379434D01*
X173350984Y-118445628D01*
X173348997Y-118506178D01*
X173345914Y-118556667D01*
X173344112Y-118575449D01*
X173320822Y-118723069D01*
X173285304Y-118859706D01*
X173237400Y-118985719D01*
X173176954Y-119101466D01*
X173103810Y-119207305D01*
X173031534Y-119289746D01*
X172961006Y-119362211D01*
X173295272Y-119362211D01*
X173295272Y-120505087D01*
X168599543Y-120505087D01*
X168599543Y-119304239D01*
G37*
G36*
X173296326Y-126495885D02*
G01*
X173274655Y-126477819D01*
X173241615Y-126451195D01*
X173244283Y-126055822D01*
X173244838Y-125952476D01*
X173244972Y-125864986D01*
X173244642Y-125792647D01*
X173243807Y-125734757D01*
X173242425Y-125690611D01*
X173240455Y-125659507D01*
X173237854Y-125640740D01*
X173234582Y-125633607D01*
X173230596Y-125637405D01*
X173225855Y-125651429D01*
X173221424Y-125669843D01*
X173214056Y-125702598D01*
X173204081Y-125745724D01*
X173191992Y-125797191D01*
X173178284Y-125854965D01*
X173163448Y-125917015D01*
X173147977Y-125981311D01*
X173132366Y-126045820D01*
X173117107Y-126108511D01*
X173102693Y-126167352D01*
X173089617Y-126220311D01*
X173078373Y-126265358D01*
X173069453Y-126300460D01*
X173063351Y-126323586D01*
X173060559Y-126332705D01*
X173060525Y-126332748D01*
X173050844Y-126331316D01*
X173030905Y-126320268D01*
X173002657Y-126301184D01*
X172968046Y-126275648D01*
X172929019Y-126245240D01*
X172887524Y-126211543D01*
X172845509Y-126176137D01*
X172804919Y-126140606D01*
X172767702Y-126106530D01*
X172735806Y-126075491D01*
X172711178Y-126049071D01*
X172710890Y-126048736D01*
X172651067Y-125975653D01*
X172603343Y-125908542D01*
X172566118Y-125844068D01*
X172537790Y-125778893D01*
X172516761Y-125709679D01*
X172501429Y-125633089D01*
X172496915Y-125602478D01*
X172492003Y-125566112D01*
X172487814Y-125534282D01*
X172484126Y-125504755D01*
X172480715Y-125475300D01*
X172477358Y-125443687D01*
X172473832Y-125407683D01*
X172469914Y-125365057D01*
X172465379Y-125313578D01*
X172460005Y-125251013D01*
X172453569Y-125175131D01*
X172450426Y-125137933D01*
X172437644Y-124993463D01*
X172424893Y-124864147D01*
X172411927Y-124748576D01*
X172398499Y-124645344D01*
X172384363Y-124553042D01*
X172378636Y-124521628D01*
X172757175Y-124521628D01*
X172762254Y-124613368D01*
X172782607Y-124703714D01*
X172817748Y-124789515D01*
X172865602Y-124865764D01*
X172924743Y-124931286D01*
X172993332Y-124985456D01*
X173069532Y-125027650D01*
X173151503Y-125057244D01*
X173237407Y-125073614D01*
X173325406Y-125076135D01*
X173413661Y-125064184D01*
X173500335Y-125037137D01*
X173520886Y-125028243D01*
X173599431Y-124983579D01*
X173668185Y-124926962D01*
X173726241Y-124860278D01*
X173772689Y-124785412D01*
X173806622Y-124704252D01*
X173827131Y-124618684D01*
X173833307Y-124530594D01*
X173824241Y-124441868D01*
X173817601Y-124412184D01*
X173791634Y-124332727D01*
X173755841Y-124262677D01*
X173707668Y-124197598D01*
X173672482Y-124159811D01*
X173602032Y-124099089D01*
X173526242Y-124053357D01*
X173442765Y-124021316D01*
X173405134Y-124011692D01*
X173322243Y-124001196D01*
X173235577Y-124004733D01*
X173148989Y-124021634D01*
X173066334Y-124051231D01*
X173011348Y-124080069D01*
X172966530Y-124112181D01*
X172919922Y-124153827D01*
X172876563Y-124199953D01*
X172841492Y-124245507D01*
X172832981Y-124258909D01*
X172792598Y-124342312D01*
X172767310Y-124430581D01*
X172757175Y-124521628D01*
X172378636Y-124521628D01*
X172369272Y-124470263D01*
X172352980Y-124395600D01*
X172335239Y-124327644D01*
X172315803Y-124264988D01*
X172294426Y-124206224D01*
X172281699Y-124174929D01*
X172244945Y-124095471D01*
X172207992Y-124031682D01*
X172169963Y-123982684D01*
X172129984Y-123947598D01*
X172087177Y-123925543D01*
X172040669Y-123915639D01*
X172022819Y-123914880D01*
X171980697Y-123919397D01*
X171937982Y-123933867D01*
X171892719Y-123959388D01*
X171842951Y-123997055D01*
X171788643Y-124046119D01*
X171744397Y-124090366D01*
X171701981Y-124136749D01*
X171660624Y-124186508D01*
X171619556Y-124240883D01*
X171578004Y-124301117D01*
X171535197Y-124368449D01*
X171490365Y-124444120D01*
X171442736Y-124529372D01*
X171391539Y-124625445D01*
X171336002Y-124733581D01*
X171275355Y-124855020D01*
X171235696Y-124935801D01*
X171183022Y-125042888D01*
X171136432Y-125135853D01*
X171095350Y-125215737D01*
X171059198Y-125283583D01*
X171027398Y-125340434D01*
X170999374Y-125387330D01*
X170974548Y-125425314D01*
X170952343Y-125455429D01*
X170939085Y-125471228D01*
X170872267Y-125535816D01*
X170790609Y-125596662D01*
X170695608Y-125652752D01*
X170611079Y-125693485D01*
X170581412Y-125705824D01*
X170545257Y-125719802D01*
X170505730Y-125734345D01*
X170465945Y-125748380D01*
X170429015Y-125760832D01*
X170398056Y-125770626D01*
X170376182Y-125776690D01*
X170366506Y-125777948D01*
X170366401Y-125777868D01*
X170367748Y-125769315D01*
X170373313Y-125746871D01*
X170382530Y-125712501D01*
X170394832Y-125668169D01*
X170409653Y-125615843D01*
X170426426Y-125557486D01*
X170444584Y-125495066D01*
X170463560Y-125430546D01*
X170482789Y-125365893D01*
X170501702Y-125303072D01*
X170519734Y-125244048D01*
X170528182Y-125216768D01*
X170613230Y-124951861D01*
X170701143Y-124694099D01*
X170791448Y-124444634D01*
X170883671Y-124204621D01*
X170977340Y-123975212D01*
X171071982Y-123757563D01*
X171167122Y-123552825D01*
X171262290Y-123362153D01*
X171357010Y-123186701D01*
X171370153Y-123163515D01*
X171418466Y-123081476D01*
X171471447Y-122996205D01*
X171527201Y-122910468D01*
X171583830Y-122827030D01*
X171639436Y-122748659D01*
X171692124Y-122678119D01*
X171739996Y-122618179D01*
X171760842Y-122593829D01*
X171792142Y-122558313D01*
X171916368Y-122579556D01*
X172081466Y-122612043D01*
X172252311Y-122653625D01*
X172424607Y-122702966D01*
X172594058Y-122758729D01*
X172756370Y-122819579D01*
X172907244Y-122884181D01*
X172929936Y-122894729D01*
X173011229Y-122932967D01*
X173037432Y-122996480D01*
X173048708Y-123024653D01*
X173064243Y-123064640D01*
X173082605Y-123112700D01*
X173102366Y-123165091D01*
X173121828Y-123217346D01*
X173180022Y-123374699D01*
X173175109Y-123287741D01*
X173171721Y-123240189D01*
X173166722Y-123185021D01*
X173160943Y-123130999D01*
X173157935Y-123106498D01*
X173153411Y-123068885D01*
X173150351Y-123037677D01*
X173149044Y-123016296D01*
X173149640Y-123008245D01*
X173158360Y-123010415D01*
X173178980Y-123020286D01*
X173209433Y-123036652D01*
X173247653Y-123058310D01*
X173291573Y-123084055D01*
X173339127Y-123112683D01*
X173388248Y-123142990D01*
X173436869Y-123173772D01*
X173465047Y-123192036D01*
X173681081Y-123343160D01*
X173885423Y-123506017D01*
X174078085Y-123680618D01*
X174259078Y-123866972D01*
X174428410Y-124065090D01*
X174586094Y-124274982D01*
X174671898Y-124401631D01*
X174725482Y-124485629D01*
X174773949Y-124565832D01*
X174819944Y-124646925D01*
X174866115Y-124733591D01*
X174915107Y-124830515D01*
X174921449Y-124843359D01*
X175024510Y-125068944D01*
X175112761Y-125297746D01*
X175186651Y-125531321D01*
X175246630Y-125771224D01*
X175293149Y-126019010D01*
X175321160Y-126225598D01*
X175325105Y-126269973D01*
X175328593Y-126327921D01*
X175331580Y-126396456D01*
X175334022Y-126472593D01*
X175335875Y-126553344D01*
X175337095Y-126635726D01*
X175337639Y-126716752D01*
X175337463Y-126793437D01*
X175336523Y-126862794D01*
X175334775Y-126921839D01*
X175332176Y-126967585D01*
X175332064Y-126968960D01*
X175302715Y-127230090D01*
X175257839Y-127488148D01*
X175197752Y-127741860D01*
X175122770Y-127989951D01*
X175033208Y-128231150D01*
X174999891Y-128310439D01*
X174889904Y-128543924D01*
X174766109Y-128768762D01*
X174629108Y-128984471D01*
X174479502Y-129190571D01*
X174317895Y-129386579D01*
X174144888Y-129572014D01*
X173961083Y-129746394D01*
X173767084Y-129909239D01*
X173563491Y-130060067D01*
X173350907Y-130198396D01*
X173129934Y-130323745D01*
X172901175Y-130435633D01*
X172665232Y-130533577D01*
X172422706Y-130617097D01*
X172174201Y-130685711D01*
X171974805Y-130728917D01*
X171933128Y-130736578D01*
X171897125Y-130742645D01*
X171869991Y-130746619D01*
X171854924Y-130748004D01*
X171853214Y-130747833D01*
X171854891Y-130740658D01*
X171865165Y-130722869D01*
X171882458Y-130696921D01*
X171905193Y-130665270D01*
X171912683Y-130655237D01*
X172029448Y-130490483D01*
X172143417Y-130310518D01*
X172254149Y-130116522D01*
X172361204Y-129909681D01*
X172464142Y-129691175D01*
X172562524Y-129462189D01*
X172655908Y-129223905D01*
X172743856Y-128977505D01*
X172825927Y-128724173D01*
X172901681Y-128465091D01*
X172970679Y-128201442D01*
X173032479Y-127934410D01*
X173086643Y-127665176D01*
X173132731Y-127394923D01*
X173137807Y-127361755D01*
X173156043Y-127241085D01*
X173213075Y-127218896D01*
X173240032Y-127209511D01*
X173267361Y-127202781D01*
X173297441Y-127198665D01*
X173332654Y-127197126D01*
X173375379Y-127198126D01*
X173427997Y-127201626D01*
X173492888Y-127207587D01*
X173549311Y-127213464D01*
X173611285Y-127219526D01*
X173683203Y-127225600D01*
X173758454Y-127231185D01*
X173830429Y-127235780D01*
X173874992Y-127238125D01*
X173942710Y-127241347D01*
X173998392Y-127244237D01*
X174046140Y-127247123D01*
X174090057Y-127250333D01*
X174134248Y-127254194D01*
X174182815Y-127259033D01*
X174239863Y-127265179D01*
X174305041Y-127272458D01*
X174415952Y-127282844D01*
X174512045Y-127287260D01*
X174593980Y-127285632D01*
X174662418Y-127277884D01*
X174718021Y-127263941D01*
X174761449Y-127243727D01*
X174793363Y-127217167D01*
X174793762Y-127216715D01*
X174815021Y-127181832D01*
X174820141Y-127144583D01*
X174809252Y-127105708D01*
X174782484Y-127065950D01*
X174763887Y-127046631D01*
X174736006Y-127022872D01*
X174704143Y-127001187D01*
X174666444Y-126980815D01*
X174621056Y-126960995D01*
X174566124Y-126940965D01*
X174499794Y-126919965D01*
X174420210Y-126897232D01*
X174361514Y-126881435D01*
X174304407Y-126865699D01*
X174236825Y-126846043D01*
X174163924Y-126824030D01*
X174090857Y-126801223D01*
X174022779Y-126779184D01*
X174007499Y-126774097D01*
X173943126Y-126752945D01*
X173874117Y-126730988D01*
X173805179Y-126709672D01*
X173741017Y-126690449D01*
X173686340Y-126674765D01*
X173672090Y-126670859D01*
X173598417Y-126650709D01*
X173538771Y-126633681D01*
X173491087Y-126618969D01*
X173453302Y-126605764D01*
X173423352Y-126593260D01*
X173399173Y-126580648D01*
X173378700Y-126567123D01*
X173359870Y-126551875D01*
X173353590Y-126546259D01*
X173325406Y-126521076D01*
X173325255Y-126520941D01*
X173296326Y-126495885D01*
G37*
D11*
%TO.C,C5*%
X131261252Y-55265000D02*
X130738748Y-55265000D01*
X131261252Y-56735000D02*
X130738748Y-56735000D01*
%TO.C,C6*%
X151261252Y-55265000D02*
X150738748Y-55265000D01*
X151261252Y-56735000D02*
X150738748Y-56735000D01*
%TO.C,C_{IN}1*%
X139153733Y-104110000D02*
X139446267Y-104110000D01*
X139153733Y-103090000D02*
X139446267Y-103090000D01*
D12*
%TO.C,U1*%
X153575000Y-90082500D02*
G75*
G03*
X153575000Y-90082500I-100000J0D01*
G01*
D13*
X151195000Y-84702500D02*
X147205000Y-84702500D01*
X151195000Y-90197500D02*
X147205000Y-90197500D01*
D11*
%TO.C,Reg_{3.3}1*%
X117858000Y-85478000D02*
X117858000Y-88308000D01*
X117588000Y-83978000D02*
X117588000Y-85478000D01*
X124488000Y-83978000D02*
X124488000Y-85478000D01*
X124488000Y-85478000D02*
X124218000Y-85478000D01*
X124218000Y-85478000D02*
X124218000Y-86578000D01*
X117588000Y-85478000D02*
X117858000Y-85478000D01*
%TO.C,C_{5OUT1}1*%
X128910000Y-92046267D02*
X128910000Y-91753733D01*
X127890000Y-92046267D02*
X127890000Y-91753733D01*
%TO.C,REG_{5}1*%
X133038000Y-95448000D02*
X134988000Y-95448000D01*
X133038000Y-95448000D02*
X131088000Y-95448000D01*
X133038000Y-100568000D02*
X131088000Y-100568000D01*
X133038000Y-100568000D02*
X136488000Y-100568000D01*
D12*
%TO.C,D1*%
X155185000Y-91785000D02*
G75*
G03*
X155185000Y-91785000I-100000J0D01*
G01*
D13*
X156850000Y-95350000D02*
X155995000Y-95350000D01*
X156850000Y-94520000D02*
X156850000Y-95350000D01*
X155995000Y-92450000D02*
X156850000Y-92450000D01*
X156850000Y-92450000D02*
X156850000Y-93280000D01*
D11*
%TO.C,R7*%
X147077500Y-95721276D02*
X147077500Y-96230724D01*
X148122500Y-95721276D02*
X148122500Y-96230724D01*
%TO.C,C1*%
X149555252Y-91665000D02*
X149032748Y-91665000D01*
X149555252Y-93135000D02*
X149032748Y-93135000D01*
%TO.C,C_{5OUT2}1*%
X126110000Y-92046267D02*
X126110000Y-91753733D01*
X125090000Y-92046267D02*
X125090000Y-91753733D01*
%TO.C,R1*%
X157395276Y-84077500D02*
X157904724Y-84077500D01*
X157395276Y-85122500D02*
X157904724Y-85122500D01*
%TO.C,C_{3.3OUT}1*%
X116910000Y-84753733D02*
X116910000Y-85046267D01*
X115890000Y-84753733D02*
X115890000Y-85046267D01*
%TO.C,F_{5V}1*%
X121902064Y-94010000D02*
X120697936Y-94010000D01*
X121902064Y-92190000D02*
X120697936Y-92190000D01*
%TO.C,R3*%
X157395276Y-90272500D02*
X157904724Y-90272500D01*
X157395276Y-89227500D02*
X157904724Y-89227500D01*
%TO.C,R4*%
X151565500Y-92673276D02*
X151565500Y-93182724D01*
X152610500Y-92673276D02*
X152610500Y-93182724D01*
%TO.C,Q1*%
X143000000Y-99860000D02*
X146450000Y-99860000D01*
X143000000Y-94740000D02*
X144950000Y-94740000D01*
X143000000Y-94740000D02*
X141050000Y-94740000D01*
X143000000Y-99860000D02*
X141050000Y-99860000D01*
%TO.C,R5*%
X146753276Y-83007500D02*
X147262724Y-83007500D01*
X146753276Y-84052500D02*
X147262724Y-84052500D01*
%TO.C,C2*%
X152569000Y-82252748D02*
X152569000Y-82775252D01*
X151099000Y-82252748D02*
X151099000Y-82775252D01*
%TO.C,R8*%
X101440000Y-66940000D02*
X104040000Y-66940000D01*
X98840000Y-117860000D02*
X104040000Y-117860000D01*
X98840000Y-66940000D02*
X100170000Y-66940000D01*
X98840000Y-69540000D02*
X101440000Y-69540000D01*
X101440000Y-69540000D02*
X101440000Y-66940000D01*
X104040000Y-66940000D02*
X104040000Y-117860000D01*
X98840000Y-68270000D02*
X98840000Y-66940000D01*
X98840000Y-69540000D02*
X98840000Y-117860000D01*
%TO.C,Q2*%
X147600000Y-106060000D02*
X149550000Y-106060000D01*
X147600000Y-106060000D02*
X145650000Y-106060000D01*
X147600000Y-100940000D02*
X144150000Y-100940000D01*
X147600000Y-100940000D02*
X149550000Y-100940000D01*
%TO.C,C4*%
X110761252Y-55265000D02*
X110238748Y-55265000D01*
X110761252Y-56735000D02*
X110238748Y-56735000D01*
%TO.C,C_{BST}1*%
X133710000Y-102946267D02*
X133710000Y-102653733D01*
X132690000Y-102946267D02*
X132690000Y-102653733D01*
%TO.C,C3*%
X112261252Y-128265000D02*
X111738748Y-128265000D01*
X112261252Y-129735000D02*
X111738748Y-129735000D01*
%TO.C,R2*%
X157395276Y-87572500D02*
X157904724Y-87572500D01*
X157395276Y-86527500D02*
X157904724Y-86527500D01*
%TO.C,F_{VPP}1*%
X138697936Y-100390000D02*
X139902064Y-100390000D01*
X138697936Y-102210000D02*
X139902064Y-102210000D01*
%TO.C,R6*%
X147262724Y-82528500D02*
X146753276Y-82528500D01*
X147262724Y-81483500D02*
X146753276Y-81483500D01*
%TO.C,R_{PON}1*%
X137277500Y-96145276D02*
X137277500Y-96654724D01*
X138322500Y-96145276D02*
X138322500Y-96654724D01*
%TD*%
M02*
