M48
; DRILL file {KiCad (6.0.5)} date Thu Dec 15 19:21:38 2022
; FORMAT={-:-/ absolute / inch / decimal}
; #@! TF.CreationDate,2022-12-15T19:21:38+11:00
; #@! TF.GenerationSoftware,Kicad,Pcbnew,(6.0.5)
; #@! TF.FileFunction,Plated,1,2,PTH
FMAT,2
INCH
; #@! TA.AperFunction,Plated,PTH,ViaDrill
T1C0.0157
; #@! TA.AperFunction,Plated,PTH,ComponentDrill
T2C0.0394
; #@! TA.AperFunction,Plated,PTH,ComponentDrill
T3C0.0630
%
G90
G05
T1
X3.6777Y-3.8586
X3.685Y-2.8307
X3.7008Y-4.1181
X3.7277Y-3.2686
X3.7977Y-2.3886
X3.8177Y-4.8786
X4.2756Y-3.185
X4.3031Y-2.7008
X4.3346Y-3.7835
X4.4677Y-2.4486
X4.4843Y-3.0433
X4.5276Y-2.6969
X4.5669Y-3.5236
X4.5669Y-3.8386
X4.8031Y-4.2835
X4.9646Y-2.8819
X5.0118Y-3.315
X5.2126Y-3.4291
X5.2402Y-4.3661
X5.2441Y-2.8031
X5.5709Y-3.6181
X5.6024Y-4.3346
X5.7031Y-3.247
X5.7277Y-4.4686
X5.8268Y-3.8701
X5.8307Y-3.5748
X5.8877Y-4.9186
X5.8937Y-3.2638
X5.8981Y-2.7521
X6.0777Y-4.1486
X6.2477Y-2.9386
X6.4677Y-3.5986
X6.5077Y-2.9186
X6.5377Y-4.2386
X6.5472Y-2.3425
T2
X3.9437Y-2.6878
X3.9437Y-2.7878
X3.9437Y-2.8878
X3.9437Y-2.9878
X3.9437Y-3.0878
X3.9437Y-3.1878
X3.9437Y-3.2878
X3.9437Y-3.3878
X3.9437Y-3.4878
X3.9437Y-3.5878
X3.9437Y-3.6878
X3.9437Y-3.7878
X3.9437Y-3.8878
X3.9437Y-3.9878
X3.9437Y-4.0878
X3.9437Y-4.1878
X3.9437Y-4.2878
X3.9437Y-4.3878
X3.9437Y-4.4878
X3.9437Y-4.5878
X4.0437Y-2.6878
X4.0437Y-2.7878
X4.0437Y-2.8878
X4.0437Y-2.9878
X4.0437Y-3.0878
X4.0437Y-3.1878
X4.0437Y-3.2878
X4.0437Y-3.3878
X4.0437Y-3.4878
X4.0437Y-3.5878
X4.0437Y-3.6878
X4.0437Y-3.7878
X4.0437Y-3.8878
X4.0437Y-3.9878
X4.0437Y-4.0878
X4.0437Y-4.1878
X4.0437Y-4.2878
X4.0437Y-4.3878
X4.0437Y-4.4878
X4.0437Y-4.5878
T3
X4.0039Y-2.2028
X4.0039Y-5.0728
X4.7638Y-2.2028
X4.7638Y-5.0728
X5.5236Y-2.2028
X5.5236Y-5.0728
X6.2835Y-2.2028
X6.2835Y-5.0728
T0
M30
