%TF.GenerationSoftware,KiCad,Pcbnew,(6.0.5)*%
%TF.CreationDate,2022-12-11T20:22:43+11:00*%
%TF.ProjectId,Battery Board,42617474-6572-4792-9042-6f6172642e6b,1*%
%TF.SameCoordinates,Original*%
%TF.FileFunction,Paste,Top*%
%TF.FilePolarity,Positive*%
%FSLAX46Y46*%
G04 Gerber Fmt 4.6, Leading zero omitted, Abs format (unit mm)*
G04 Created by KiCad (PCBNEW (6.0.5)) date 2022-12-11 20:22:43*
%MOMM*%
%LPD*%
G01*
G04 APERTURE LIST*
G04 Aperture macros list*
%AMRoundRect*
0 Rectangle with rounded corners*
0 $1 Rounding radius*
0 $2 $3 $4 $5 $6 $7 $8 $9 X,Y pos of 4 corners*
0 Add a 4 corners polygon primitive as box body*
4,1,4,$2,$3,$4,$5,$6,$7,$8,$9,$2,$3,0*
0 Add four circle primitives for the rounded corners*
1,1,$1+$1,$2,$3*
1,1,$1+$1,$4,$5*
1,1,$1+$1,$6,$7*
1,1,$1+$1,$8,$9*
0 Add four rect primitives between the rounded corners*
20,1,$1+$1,$2,$3,$4,$5,0*
20,1,$1+$1,$4,$5,$6,$7,0*
20,1,$1+$1,$6,$7,$8,$9,0*
20,1,$1+$1,$8,$9,$2,$3,0*%
G04 Aperture macros list end*
%ADD10RoundRect,0.250000X1.975000X-1.350000X1.975000X1.350000X-1.975000X1.350000X-1.975000X-1.350000X0*%
%ADD11RoundRect,0.250000X-0.337500X-0.475000X0.337500X-0.475000X0.337500X0.475000X-0.337500X0.475000X0*%
%ADD12RoundRect,0.200000X1.800000X0.800000X-1.800000X0.800000X-1.800000X-0.800000X1.800000X-0.800000X0*%
%ADD13RoundRect,0.237500X-0.237500X0.300000X-0.237500X-0.300000X0.237500X-0.300000X0.237500X0.300000X0*%
%ADD14RoundRect,0.020500X0.799500X0.184500X-0.799500X0.184500X-0.799500X-0.184500X0.799500X-0.184500X0*%
%ADD15R,2.750000X3.050000*%
%ADD16R,1.200000X2.200000*%
%ADD17RoundRect,0.230000X0.230000X0.375000X-0.230000X0.375000X-0.230000X-0.375000X0.230000X-0.375000X0*%
%ADD18RoundRect,0.150000X0.825000X0.150000X-0.825000X0.150000X-0.825000X-0.150000X0.825000X-0.150000X0*%
%ADD19R,1.090000X0.610000*%
%ADD20RoundRect,0.550000X0.850000X0.550000X-0.850000X0.550000X-0.850000X-0.550000X0.850000X-0.550000X0*%
%ADD21RoundRect,0.237500X-0.237500X0.250000X-0.237500X-0.250000X0.237500X-0.250000X0.237500X0.250000X0*%
%ADD22RoundRect,0.250000X0.337500X0.475000X-0.337500X0.475000X-0.337500X-0.475000X0.337500X-0.475000X0*%
%ADD23RoundRect,0.237500X-0.250000X-0.237500X0.250000X-0.237500X0.250000X0.237500X-0.250000X0.237500X0*%
%ADD24RoundRect,0.250000X0.475000X-0.337500X0.475000X0.337500X-0.475000X0.337500X-0.475000X-0.337500X0*%
%ADD25RoundRect,0.150000X-0.825000X-0.150000X0.825000X-0.150000X0.825000X0.150000X-0.825000X0.150000X0*%
%ADD26RoundRect,0.237500X-0.300000X-0.237500X0.300000X-0.237500X0.300000X0.237500X-0.300000X0.237500X0*%
%ADD27RoundRect,0.237500X0.250000X0.237500X-0.250000X0.237500X-0.250000X-0.237500X0.250000X-0.237500X0*%
G04 APERTURE END LIST*
D10*
%TO.C,R_{SENSE}1*%
X142600000Y-87200000D03*
X142600000Y-82000000D03*
%TD*%
D11*
%TO.C,C5*%
X129462500Y-55900000D03*
X131537500Y-55900000D03*
%TD*%
D12*
%TO.C,L1*%
X116538000Y-100308000D03*
X116538000Y-92708000D03*
%TD*%
D11*
%TO.C,C6*%
X109712500Y-55900000D03*
X111787500Y-55900000D03*
%TD*%
D13*
%TO.C,C_{IN}1*%
X138700000Y-101937500D03*
X138700000Y-103662500D03*
%TD*%
D14*
%TO.C,U1*%
X151835000Y-89672500D03*
X151835000Y-89037500D03*
X151835000Y-88402500D03*
X151835000Y-87767500D03*
X151835000Y-87132500D03*
X151835000Y-86497500D03*
X151835000Y-85862500D03*
X151835000Y-85227500D03*
X146565000Y-85227500D03*
X146565000Y-85862500D03*
X146565000Y-86497500D03*
X146565000Y-87132500D03*
X146565000Y-87767500D03*
X146565000Y-88402500D03*
X146565000Y-89037500D03*
X146565000Y-89672500D03*
%TD*%
D15*
%TO.C,Reg_{3.3}1*%
X122563000Y-82583000D03*
X119513000Y-82583000D03*
X122563000Y-79233000D03*
X119513000Y-79233000D03*
D16*
X118758000Y-87208000D03*
X123318000Y-87208000D03*
%TD*%
D13*
%TO.C,C_{5OUT1}1*%
X127538000Y-92508000D03*
X127538000Y-94233000D03*
%TD*%
D17*
%TO.C,REG_{5}1*%
X132468000Y-98758000D03*
X132468000Y-97258000D03*
X133608000Y-98758000D03*
X133608000Y-97258000D03*
D18*
X135513000Y-99913000D03*
X135513000Y-98643000D03*
X135513000Y-97373000D03*
X135513000Y-96103000D03*
X130563000Y-96103000D03*
X130563000Y-97373000D03*
X130563000Y-98643000D03*
X130563000Y-99913000D03*
%TD*%
D19*
%TO.C,D1*%
X155130000Y-92985000D03*
X155130000Y-94815000D03*
X157270000Y-93900000D03*
%TD*%
D20*
%TO.C,D2*%
X125538000Y-100308000D03*
X125538000Y-104708000D03*
%TD*%
D21*
%TO.C,R7*%
X145992000Y-95063500D03*
X145992000Y-96888500D03*
%TD*%
D22*
%TO.C,C1*%
X150331500Y-92400000D03*
X148256500Y-92400000D03*
%TD*%
D13*
%TO.C,C_{5OUT2}1*%
X124538000Y-92508000D03*
X124538000Y-94233000D03*
%TD*%
D23*
%TO.C,R1*%
X156737500Y-84600000D03*
X158562500Y-84600000D03*
%TD*%
D13*
%TO.C,C_{3.3OUT}1*%
X116400000Y-84037500D03*
X116400000Y-85762500D03*
%TD*%
D23*
%TO.C,R3*%
X156737500Y-89750000D03*
X158562500Y-89750000D03*
%TD*%
D21*
%TO.C,R4*%
X152088000Y-92015500D03*
X152088000Y-93840500D03*
%TD*%
D18*
%TO.C,Q1*%
X138825000Y-99659000D03*
X138825000Y-98389000D03*
X138825000Y-97119000D03*
X138825000Y-95849000D03*
X143775000Y-95849000D03*
X143775000Y-97119000D03*
X143775000Y-98389000D03*
X143775000Y-99659000D03*
%TD*%
D23*
%TO.C,R5*%
X146095500Y-83530000D03*
X147920500Y-83530000D03*
%TD*%
D24*
%TO.C,C2*%
X151834000Y-81476500D03*
X151834000Y-83551500D03*
%TD*%
D25*
%TO.C,Q2*%
X145125000Y-101595000D03*
X145125000Y-102865000D03*
X145125000Y-104135000D03*
X145125000Y-105405000D03*
X150075000Y-105405000D03*
X150075000Y-104135000D03*
X150075000Y-102865000D03*
X150075000Y-101595000D03*
%TD*%
D11*
%TO.C,C4*%
X148512500Y-55950000D03*
X150587500Y-55950000D03*
%TD*%
D26*
%TO.C,C_{BST}1*%
X133813000Y-102508000D03*
X135538000Y-102508000D03*
%TD*%
D11*
%TO.C,C3*%
X150662500Y-128700000D03*
X152737500Y-128700000D03*
%TD*%
D23*
%TO.C,R2*%
X156737500Y-87050000D03*
X158562500Y-87050000D03*
%TD*%
D27*
%TO.C,R6*%
X146095500Y-82006000D03*
X147920500Y-82006000D03*
%TD*%
D23*
%TO.C,R_{PON}1*%
X135687500Y-94100000D03*
X137512500Y-94100000D03*
%TD*%
M02*
